<svg xmlns="http://www.w3.org/2000/svg" width="243" fill="#4a4143" height="243" viewBox="0 0 243.6 243.6">
  <path d="M121.8,243.6C54.6,243.6,0,189,0,121.8S54.6,0,121.8,0s121.8,54.6,121.8,121.8S189,243.6,121.8,243.6z
       M121.8,2.5C56,2.5,2.5,56,2.5,121.8S56,241.1,121.8,241.1c65.8,0,119.3-53.5,119.3-119.3S187.6,2.5,121.8,2.5z"/>
  <path d="M114.6,109.4c1.9,0.5,3.6-1.1,5.3-0.3c-0.5,1.9-2.6,3-2.1,5.2c1.8,0.7,1.9-2.5,4-1.5c-0.7,2.4-2.3,4.1-4,5.6
      c-1.6,1.3-3.4,1.2-4.2-1.2c-0.3-0.8-0.4-1.6-1.1-2.2c-0.5-0.5-1.1-1-0.3-1.8c1-1,1,0.4,1.5,0.6c0.7,0.3,1.4,0.4,2-0.2
      c0.5-0.6,0.6-1.2,0.2-2C115.4,110.9,115,110.1,114.6,109.4z"/>
  <path d="M114.5,104.8c-0.6,1.1-0.4,3.2-2,3c-2.2-0.2-2-2.5-2-4c0-1.4,0.1-3.8,2-3.6
      C114.7,100.6,113.6,103.4,114.5,104.8z"/>
  <path d="M124.3,104c-0.7,1.4,0.2,3.7-1.7,3.9c-1.4,0.2-2.1-1.5-2.1-3.1c0.1-1.5,0-3.5,1.7-3.8
  C124.1,100.7,123.6,102.9,124.3,104z"/>
  <path d="M131.5,180.6c-2.3-0.1-4.4,2.1-4.5,4.6c0,3,2.4,5,6.1,5c3.5,0,5-1.3,4.9-4.2
  C138,183.4,134.8,180.8,131.5,180.6z M132.7,188.6c-1.4-0.5-3.6-0.6-3.5-3.3c0-1.4,0.9-2.7,2-2.2c1.9,0.7,5.1-0.3,5.1,3
  C136.4,187.8,134.9,188.7,132.7,188.6z"/>
  <path d="M102.6,202.1c1.1,2.6-0.6,3.2-1.7,3.8c-3,1.5-1.5,2.6,0.3,3.5c1,0.5,2.3,0.7,3.4,1.1
    c0.7,0.2,0.9,0.8,0.7,1.4c-0.2,0.8-0.9,0.8-1.4,0.7c-1.3-0.4-2.7-0.9-3.9-1.6c-1.1-0.6-2.3-2.1-2.3,0.7c0,0.4-0.7,0.8-1.2,0.4
    c-0.3-0.3-0.6-0.7-0.7-1.2c-0.1-1.7-0.1-3.4-0.2-5c-0.1-1-0.4-2.2,0.6-2.6c1.4-0.6,0.9,0.9,1.2,1.5c0.5,0.8,1,0.2,1.5,0
    C100.3,204.3,101.5,203.5,102.6,202.1z"/>
  <path d="M130.3,207.3c0.3-0.2,0.5-0.3,0.7-0.4c1.1-0.8,1.1-3.4,2.7-2.8c1.8,0.6,1.3,2.8,1.3,4.5c0,1-0.2,2-0.3,3.4
    c-1.7-1-1.2-2.6-2.2-3.8c-1.5,1.6-3.2,2.3-4.4-0.4c-0.3,0.2-0.4,0.4-0.6,0.5c-0.8,0.8,0.1,3-1.6,2.7c-2.2-0.4,0-1.9-0.3-2.9
    c-0.2-0.5,0-1.2,0-1.8c0-1.1,0.7-1.9,1.5-2.3c1.4-0.6,1.4,0.9,2,1.5C129.7,206.1,130,206.7,130.3,207.3z"/>
  <path d="M113.6,208.8c0.7-1.2,0.3-2.2-0.2-3.3c-0.3-0.6-0.1-1.2,0.7-1.4c0.7-0.2,1.1,0.4,1.3,1
    c0.4,1.6,0.4,3.3,0.1,5c-0.3,1.8-1.4,1.8-2.6,1.1c-1.2-0.7-2.3-1.6-3.4-2.4c-1.5,1-0.3,4.2-2.3,3.6c-1.3-0.3-0.4-2.9,0-4.5
    c0.3-1.1,0.3-2.3,0.5-3.6c1.7-0.2,2.2,1.2,3,2.2C111.5,207.3,112.1,208.5,113.6,208.8z"/>
  <path d="M169.2,212.7c-1.4-0.2-1.5-0.8-1.5-1.4c0-1.4,0.3-3.2-2.2-1.9c-0.2,0.1-0.8,0-1-0.2c-2.5-2-4.3-2.7-4,1.7
    c0,0.5-0.4,0.9-0.9,0.7c-0.3-0.1-0.6-0.5-0.5-0.8c0.1-1.6-0.1-3.2,0.4-4.6c0.6-1.7,1.7-2.7,3.3-0.6c1.4,1.8,2.9,2.7,4.3,0
    c0.3-0.5,0.6-1.2,1.4-0.8c0.6,0.3,0.8,0.9,0.8,1.5C169.1,208.5,169.2,210.6,169.2,212.7z"/>
  <path d="M149.5,209.5c0.3,0.5,0.5,1,0.8,1.6c-1.2-0.5-2,0.5-3,0.8c-2.3,0.6-4.3,0.8-5-2.2c-0.7-2.7,0.8-6,3-6.5
    c1.1-0.2,1.9,0,2.1,1.3c0.2,1.3-0.5,0.9-1.4,1c-1.8,0.1-2.2,1.7-2.1,3.2c0.1,1.6,1.2,1.8,2.6,1.8
    C147.6,210.4,148.6,210.1,149.5,209.5z"/>
  <path d="M140.6,210c-0.7,0.4-1.1,0.7-1.6,0.7c-0.7,0.1-1.1-0.3-1.1-1c0-0.6,0.4-0.9,0.9-0.8
    C139.3,209,139.6,209.4,140.6,210z"/>
  <path d="M110.5,126.3c0.3,0.9,1.6,2,0.3,2.7c-1.3,0.8-0.9-1.4-1.8-1.6C109.2,126.8,109.7,126.4,110.5,126.3z"/>
  <path d="M113.9,137.8c0.3-0.6,0.6-1.4,1.4-1.1c0.4,0.1,1,0.6,0.9,1.3c-0.2,0.8-0.9,0.5-1.4,0.7
    C114.5,138.4,114.2,138.1,113.9,137.8z"/>
  <path d="M93.2,206.8c-0.8-0.5-1.8-0.6-1.5-2c0.7-2.8-1.3-2.6-2.9-2.4c-2.8,0.5-4.7,1.8-3.7,4.8
    c-0.5,5.4,0.8,6.6,6.8,4.5c0.4-0.2,0.9-0.4,1.3-0.7C95,209.7,95.3,208.2,93.2,206.8z M90.2,204.5c-0.5,1.4-1.5,2-2.9,2.2
    C88,204.9,88,204.9,90.2,204.5z M87.4,210.8c1-2.3,2.7-3,5.4-2.4C91.4,210.6,89.2,210.3,87.4,210.8z"/>
  <path d="M157,207.5c-0.3-2-1.7-2.9-3.3-3.4c-2.5-0.8-3.7,0.8-4.2,5.4c-0.5,0.9,0.3,1.2,0.8,1.6
    c1.4,1.6,3.1,1.6,4.8,0.4C156.4,210.6,157.3,209.3,157,207.5z M153,210.4c-1,0.1-1.7-0.5-1.6-1.4c0.1-1.4,1.2-2.6,2.3-2.9
    c1.1-0.3,1.4,1.2,1.8,2.1C155.2,209.7,154.3,210.3,153,210.4z"/>
  <path d="M120.5,203.8c-2.7-0.4-3.2,2-3.4,3.7c-0.3,1.7,0.7,3.4,2.7,3.6c2.4,0.2,3.3-1.5,3.6-2.7
    C123.8,205.2,122.3,204.1,120.5,203.8z M120.1,208.9c-0.7-0.1-1-0.6-1-1.2c0-0.9,0.5-1.6,1.4-1.6c0.8,0,0.8,0.7,0.9,1.2
    C121.3,208.1,121.2,209,120.1,208.9z"/>
  <path d="M114.5,133.3c-0.5,0.2-1,0.5-1.6,0.5c-0.6,0-1.1-0.4-1.1-1.1c0.1-0.8,0.7-0.8,1.3-0.7
    C113.9,132,114.2,132.4,114.5,133.3z"/>
  <path d="M120.5,131.2c-0.1,0.3-0.2,0.8-0.8,0.8c-0.8-0.1-1.2-0.8-1.2-1.5c-0.1-0.7,0.5-0.7,1-0.6
    C120.1,129.9,120.6,130.3,120.5,131.2z"/>
  <path d="M117.7,127.7c-0.7-0.1-1.1-0.5-1-1.2c0-0.4,0.4-1.1,0.8-0.9c0.5,0.2,0.8,0.8,1,1.3
    C118.8,127.7,118,127.6,117.7,127.7z"/>
  <path d="M127.1,132c-0.1,0.5-0.5,0.8-1,0.7c-0.6-0.2-0.7-0.8-0.7-1.4c0-0.6,0.5-0.8,0.9-0.6
    C127.1,130.9,127.2,131.4,127.1,132z"/>
  <path d="M132,130.5c0.5,0.8,0.5,1.6-0.3,2c-0.4,0.2-0.8-0.2-0.9-0.7C130.6,130.7,131,130.3,132,130.5
    C132.1,130.6,132,130.5,132,130.5z"/>
  <path d="M109,133.4c-0.4,0.3-0.8,0.8-1.3,0.9c-0.8,0.2-1-0.4-0.9-1.1c0.1-0.5,0.1-1,0.8-0.8
    C108.1,132.5,108.8,132.4,109,133.4z"/>
  <path d="M120.5,135.7c0.6,0,0.9,0.3,0.9,0.8c0,0.4-0.3,1.1-0.5,1.2c-0.6,0.1-1.1-0.4-1.2-1
    C119.6,136.1,119.9,135.7,120.5,135.7z"/>
  <path d="M130.7,134.2c0.6,0,0.8,0.5,0.8,0.9c0,0.4,0,1.1-0.7,0.9c-0.4-0.1-0.8-0.6-0.9-1
    C129.8,134.6,130.1,134.2,130.7,134.2z"/>
  <path d="M122,154.6c0,0.6-0.4,0.8-0.9,0.7c-0.6-0.1-1.2-0.3-1.1-1.1c0.1-0.3,0.7-0.5,1.1-0.5
    C121.6,153.7,122,154,122,154.6z"/>
  <path d="M146,110.1c-0.2-1.9,1.2-1.9,2.7-2c5.3-0.6,10.7-0.8,16.1-1c-3.9-0.6-7.8-1.1-11.8-0.6
    c-5.6,0.6-5.7,0.5-5.6-5c0.2-8-3-14.1-9.8-18.3c-1.2-0.7-2.2-1.6-3.3-2.3c0.1-0.3,0.2-0.5,0.2-0.6c0.5-0.3,1-0.7,1.5-1
    c6.4-3.4,10.7-8.6,11.8-15.8c1.3-8.8,0.6-17.6-2.1-26.1c-1.8-5.7-6.8-8.6-12.1-2.4c-5.8,6.8-11.2,13.7-13.4,23.4
    c-0.5-1.8-0.8-2.9-1.1-4.1c-1.6-5.3-1.9-11-5.3-15.8c-2.3-3.2-4.8-6.6-8.9-6.3c-4.4,0.3-5.9,4.6-7.3,8.1
    c-5,13.2-3.4,25.8,4.4,37.5c1,1.5,1.1,2.2-0.4,3.3c-7.8,5.9-11.6,13.9-11.4,23.7c0,1.7-0.4,2.3-2.3,2.2
    c-3.6-0.1-7.2,0.1-10.8,0.4c-2.2,0.2-4.6,0.1-6.3,1.9c5.6-0.2,11.1-0.6,16.7-0.7c2.3,0,3,1,3.3,2.7c0.5,2.3-1.5,1.6-2.5,1.9
    c-3,1-6.3,1-9.8,2.9c2.4-0.2,3.9-0.2,5.5-0.4c2.2-0.3,4.6-1.5,6.7-1.1c2.6,0.5,1.6,3.9,3,5.5c1.6,1.9,1.2,3.4-0.2,5.3
    c-2.6,3.4-3.6,7.7-2.8,11.6c1,5.3,1.4,10.3-0.7,15.2c-2.9-1.7-4.4-1.7-7.2,0.4c-2.2,1.6-3.4,3.8-2.3,6.6c0.3,0.8-0.1,1.5,0,2
    c0.5,2.2-0.3,5,1.6,6.6c2.4,1.9,8.3,1.6,11.1-0.3c1.5,6.5,1.2,13.2,3.4,19.7c0.8,2.3,1.3,2.8,3.1,3.2c7.8,1.8,14.6,0.6,19.4-6.5
    c1.1,1.7,1.4,3.5,1.5,5.2c0.1,1,0.2,2,1,2.5c7.2,5,16.3,6.3,21.6-2.3c2.8-4.5,5.4-9,8.1-13.5c3.4-5.7,1.8-10.8-4-13.5
    c-1.8-0.8-2-1.7-1.9-3.5c0.2-3.9,1-7.9-0.8-11.7c-0.8-1.7-0.6-3.1,0-4.8c2-5.7,2.4-11.2-2.3-16c-1.9-1.9-2.9-3.5-0.6-6
    c1.2-1.2,1.8-3.1,2.2-4.8c0.6-2.5,1.9-3.1,4.3-3c4,0.2,8.1,0.1,12.2,0.1c0-0.4,0-0.7,0-1.1c-3.9-0.3-7.8-0.5-11.6-0.9
    C147.6,111,146.1,111.9,146,110.1z M125,50.9c2.8-5.4,6.5-10.3,10.5-14.9c2.6-3,6.7-2.8,8,1.8c2.7,9.2,4.4,18.9,1.5,28.3
    c-1.9,6.4-7,10.4-13.2,12.9c-0.6,0.3-1.3,0.1-1.6-0.5c-0.5-0.9,0.4-1.2,1-1.5c7-4.7,8.1-7.3,6.3-15.6c-0.3-1.5-0.2-3.1-0.4-4.7
    c-0.4-2.4-1.7-3.1-3.8-1.6c-3.3,2.4-4.3,6-4.8,9.7c-0.6,3.9-1,7.9-0.8,12.1c-4.1-1.1-6.2-4.6-6.5-10.1
    C120.9,61.2,122.5,55.8,125,50.9z M132,60c0.6-1.3,1.1-2.6,3.3-3.6c0.1,5.2,2.8,10-0.3,14.9c-0.3,0.5-0.5,1.2-1,1.5
    c-1.2,0.9-2.8,2.6-3.8,2.3c-1.6-0.5-0.4-2.5-0.5-3.9C129.7,67.3,130.3,63.6,132,60z M120,70.5c0.5,1.7,1,3.2,1.5,4.7
    c-1.3,0.5-2.4,0.4-3.7,0.1C118.5,73.7,118,71.8,120,70.5z M101.8,37.1c1.8-3.2,3.4-3.4,6.5-1.4c4.4,2.8,5.9,7.4,7.1,12.1
    c1.1,4.4,2,8.8,2.8,13.3c0.8,4.9-0.5,9.4-3.2,13.6c-0.9,1.4-1.9,1.6-4,1.3c3.8-4.2,2.1-8.2,0.2-12.2c-1.1-2.1-2.1-4.3-3.3-6.3
    c-0.7-1.3-1.8-2.5-3.4-2.3c-1.5,0.2-1.8,1.7-2.2,3C100.5,64,102.5,69,105,74c0.7,1.3,2.4,3.2,1.2,4c-2,1.4-2.6-1.2-3.5-2.5
    C95,63.5,94.8,49.3,101.8,37.1z M108.5,76.1c-3.7-5.8-6.2-11.6-3.8-18.9C110.7,63.3,112.2,70.3,108.5,76.1z M95.2,126.6
    c0.7-1.2,1.4-2.2,2.8-0.8c0.6,0.6,1.5,0.8,2.2,1.2c1.4,0.9,4.5,1.1,4,2.3c-1,2.2-0.9,5.6-4.3,6.3c-0.7,0.1-1.4,0.4-2,0.8
    c-1,0.7-2.8,1.5-1.9,3c0.9,1.4,1.8-0.4,2.6-0.8c5.3-2.6,10.2-2.1,14.7,1.6c2.5,2.1,3.9,4.9,2.7,7.9c-1,2.7-3.9,3.7-6.7,4.1
    c-0.8,0.1-1.7,0.1-3.1,0.2c-5.7,0.1-10.1-3.1-12.4-9.8C91.8,137.2,92,131.8,95.2,126.6z M134,137.7c-8.8-1.5-11.9-1-16.2,5.3
    c-0.8-1.6-2.7-2.5-3-4.4c0.4-1,0-1.2-0.9-0.9c-2.9-0.7-5.3-3-8.4-3.3c-1.4-0.1-1-1.2-0.6-2.2c0.8-2.1,2.4-3.5,4.1-4.9
    c0.9,0.1,1.3-0.5,1.5-1.2c5.2-1.8,10.4-2.1,15.7-0.6c0.5-0.1-0.1,1.4,0.9,0.7c2.2,0.8,4.3,1.8,5,4.3l-0.1-0.1
    C134.6,133.2,134.7,133.3,134,137.7z M118.4,148.2c2.2,2.9,5.2,4.6,8.5,6c-4.2,3.4-12.6,3.7-17.2,0.7c2-0.5,4.3-0.7,5.4-2.5
    c1.3-2.1,3.2,1.5,3.7-0.5C119,151,116.8,149.9,118.4,148.2z M88.1,168c-1.5-0.2-2.9-1.3-4.6-1.4c-1.1-0.1-0.3-1,0.2-1.8
    c-3.1-1.4,0.8-4.7-1.8-6.4c-0.1-0.1-0.2-0.5-0.2-0.7c0.3-0.9,1.1-2.5,1.3-2.3c2.2,2.3,3.8-4.9,6.2-0.2c1.6,3.2,1.9,6.6,2.7,9.9
    C92.2,166.5,89.8,168.3,88.1,168z M93.6,147c3,7.1,9.9,6.7,15.2,10.2c-6.7,0.8-10.9,4.1-13.8,10C92.9,160.4,91,154.5,93.6,147z
     M107.7,188.7c-2.7,1.2-5.4,0.5-8.1,0c-1.7-0.3-1.6-2.2-2-3.4c-1.9-5.3-3.4-10.7-0.9-16.2l0.3,0c-0.6,2-0.4,3.9,0.5,5.7
    c1.2,2.6,3.1,4.1,5.8,2.2c1.8-1.3,2.8-0.3,4,0.8c-0.2,0.2-0.5,0.6-0.6,0.6c-3.5-0.4-5,2-5.6,4.7c-0.6,2.3,2.4,4.7,5.6,5
    c6-2.6,6.4-4.5,1.9-8.8c-1.1-1,0.4-1,0.4-1.5c3.3-2.3,7.3-0.9,10.8-2.1C118.4,183.2,113.6,188.4,107.7,188.7z M98.8,171.6
    c0-2,1.3-3.9,3-3.8c2.3,0.1,2,2.6,2.2,4c-0.1,2.1-0.1,4-2.6,3.7C99.1,175.4,98.9,173.4,98.8,171.6z M106.7,172.5
    c0.2-1.9,0.3-4,2.6-4.1c2.2-0.1,2.3,2.3,2.4,3.8c0.2,1.9-1.1,3.8-2.9,3.9C106.9,176.1,107,174,106.7,172.5z M109.7,183.2
    c-0.1,1.9-2,2.7-3.7,2.9c-1.6,0.2-2.8-1.1-2.8-2.6c-0.1-2.1,1.6-2.7,3.3-3C108.3,180.7,109.8,181.4,109.7,183.2z M114.4,173.3
    c0.4-1.9,0.5-4.2,2.7-4.6c1.2-0.2,1.7,1.6,1.8,2.7c0.1,2-1.3,3-3.2,3.3C114.8,174.9,114.2,174.4,114.4,173.3z M120.6,171.4
    c-0.3-1.9-0.7-3.8-3-4.4c-2.4-0.7-3.1,1.4-4.6,2.7c-0.9-2-2.2-3.5-4.6-3.5c-1.7,0-1.8,1.7-2.9,2.6c-1.5-3-3.6-4.1-6.7-1.9
    c-0.7,0.2-1,0-0.8-0.7c4.7-7.7,13.4-7.8,20.1-3.4c3.6,2.4,3.4,6.1,3,9.7C120.6,172.4,120.6,171.9,120.6,171.4z M141.6,188
    c-4,7.6-11.3,6.5-17.2,3.7c-1.4-0.7-1.4-2.3-2.1-3.4c-2.8-4.3,0.3-15.9,4.9-19.2c-0.3,1.4-0.7,2.6-0.8,3.9
    c-0.2,3.3,2.1,4.8,5,3.3c1.1-0.6,1.9-0.9,2.8,0.2c0.4,0.5,1.4,1.2,1.8,1.1c4.2-1.7,5.8,3.4,9.5,3.4
    C144.1,183.4,142.8,185.7,141.6,188z M128,172.9c0.5-1.7,1.2-3.5,3.5-3.9c1.1,0.3,1.3,1.6,1.2,2.4c-0.1,1.9-1.4,3.1-3.2,3.3
    C128.5,175,127.7,174,128,172.9z M145.1,178.4c-2.1,0.2-2.8-0.8-2.8-2.3c0-2.3,1.4-4,3.3-4.6c1.1-0.4,2.7,0.8,2.5,2.7
    C147.9,176.2,147.1,178,145.1,178.4z M148.9,166.4c2.2,1.6,1.2,4.1,1.4,6.8c-1.7-2.8-3.2-4.9-6.4-3.5c-1,0.4-1-0.8-1.4-1.2
    c-1.1-1.2-2.3-1.8-3.9-1c0,0,0,0.1,0,0.1c2.4,1.8,4.3,3.7,1.5,6.7c-1.1,1.2-2.6,2-4.1,1.1c-1.7-1-1.4-2.7-0.6-4.1
    c0.8-1.4,1.5-2.9,3.1-3.7l0,0l0,0l-0.1-0.1c0,0,0,0,0,0c-0.5-1-1.1-2-2.1-0.5c-1.3,2-2.5,2.5-4,0.2c-0.2-0.3-1.1-0.2-1.6-0.3
    c-0.8,0.3-0.9-0.1-0.8-0.8C134.2,161.4,143.9,162.7,148.9,166.4z M142.5,160.2c-0.2,0.8-0.7,1-1.3,0.8
    c-7.5-1.9-12.3,2.8-17.6,7.3c-0.3-4.2-3.1-6.4-5.8-8.6c8.5-2.7,17.7-3.9,24.3-11.3C144.2,152.1,143.3,156.2,142.5,160.2z
     M133,152.6c-3.6,1-11.1-2.1-12.8-5.4c-1.2-2.2,0.2-5.6,3-6.9c1.7-0.8,3.6-1.4,5.2-1c3.2-0.2,5.6,0.7,7.7,2.5
    c0.7,0.6,1.2,1.7,2.3,0.9c1-0.8-0.2-1.8-0.5-2.1c-2.6-3.2-0.4-7.8-3.2-11.1c-0.7-0.9,1.8-2.6,3.1-3.5c1.4-0.9,1.7,0.9,2.2,1.6
    C146.6,135.3,142.5,149.8,133,152.6z M145.1,105.1c-0.1,1.7-1.7,2.1-3.3,2.1c-4.8,0.1-9.6,0.8-14.2,2.1c-0.6,0.2-2.4-0.3-1.8,1.5
    c0.5,1.4,1.4,0.6,2.4,0.4c4.4-1.2,8.8-2.4,13.4-2.3c0.7,0,1.9-0.6,2.1,0.6c0.2,1.2-0.6,2-1.9,2.1c-3.6,0.3-7.2,0.7-10.8,0.9
    c-1.3,0.1-2.4,0.5-4.5,1.9c6,0.7,10.8-1.7,15.9-1c-1.4,4.8-3.8,8.8-7.4,12.2c-1.5,1.4-2.4,1.5-4.2,0.2
    c-6.4-4.8-17.5-4.4-23.8,0.6c-1,0.8-1.9,0.9-2.9,0.6c-5.5-1.5-8.6-5.3-10.1-10.6c-0.4-1.3-0.6-2.2,1.4-2.4
    c4.5-0.5,8.8-2.1,13.4-1.1c0.4-1.4-1-1.6-1.2-2.5c0,0-0.1,0-0.1,0l0,0c0,0-0.1,0-0.1-0.1c-4,0.7-8,1.3-12.1,2
    c-0.9,0.2-1.9,0.7-2.4-0.7c-0.2-0.7-0.6-1.4-0.5-2c0.3-1.4,1.6-0.7,2.4-0.7c4.2,0,8.5-0.4,12.6,1.4c0.1,0,0.1,0,0.2,0
    c0,0,0,0.1,0,0.1c0.8,0,1.8,0.1,1.9-1c0-0.7-0.7-1-1.5-1.3c-4.1-1.3-8.4-0.6-12.5-1c-2.9-0.3-3.3-1.2-3.2-3.6
    c0.7-13.9,10.9-23.9,24.4-25c11-0.9,18.8,5.2,25.8,12.3C146.1,94.4,145.5,100,145.1,105.1z"/>
</svg>
