<svg xmlns="http://www.w3.org/2000/svg" width="20" height="16" viewBox="0 0 26 20.5">
  <title>Mail</title>
  <path d="M23.5,0H2.5C1.1,0,0,1.1,0,2.5V18c0,1.4,1.1,2.5,2.5,2.5h20.9c1.4,0,2.5-1.2,2.5-2.5V2.5C26,1.2,24.8,0,23.5,0z M23.6,2.9
  l0,0.2c0,1.1-1.2,2.7-2,3.3l-5.7,4.5L15.7,11c-0.7,0.6-1.9,1.7-2.7,1.7c-0.7,0-1.7-0.8-2.4-1.4c-0.2-0.2-0.4-0.3-0.6-0.5L4.3,6.4
  c-1.3-1-2-2.3-2-3.8c0-0.2,0.1-0.2,0.2-0.2h20.9c0,0,0.1,0,0.1,0C23.6,2.4,23.6,2.7,23.6,2.9z M2.1,18V7.6C2.3,7.8,2.5,8,2.7,8.1
  c2.1,1.6,4.1,3.2,6.1,4.8L8.9,13c1.1,0.9,2.4,2,4,2s2.9-1.1,4-2l0.1-0.1c1-0.8,2-1.6,3.1-2.4c1-0.8,2-1.6,3-2.4
  c0.2-0.1,0.4-0.2,0.5-0.4V18c0,0.2-0.2,0.2-0.2,0.2H2.4C2.2,18.2,2.1,18,2.1,18z"/>
</svg>
