<svg xmlns="http://www.w3.org/2000/svg" width="25.5px" height="20px" viewBox="0 0 25.5 20">
  <title>Mail</title>
  <path d="M25.5,17.7c0,1.2-1,2.3-2.3,2.3H2.3C1,20,0,19,0,17.7V2.3C0,1,1,0,2.3,0h20.9c1.2,0,2.3,1,2.3,2.3V17.7z M23.2,1.8H2.3
    C2,1.8,1.8,2,1.8,2.3c0,1.6,0.8,3,2.1,4c1.9,1.5,3.8,3,5.7,4.5c0.8,0.6,2.1,1.9,3.1,1.9h0h0c1,0,2.4-1.3,3.1-1.9
    c1.9-1.5,3.8-3,5.7-4.5c0.9-0.7,2.1-2.3,2.1-3.5C23.6,2.4,23.7,1.8,23.2,1.8z M23.6,6.8c-0.3,0.3-0.6,0.7-1,0.9
    c-2,1.6-4.1,3.2-6.1,4.8c-1.1,0.9-2.4,2-3.9,2h0h0c-1.5,0-2.8-1.1-3.9-2c-2-1.6-4-3.2-6.1-4.8c-0.4-0.3-0.7-0.6-1-0.9v10.9
    c0,0.2,0.2,0.5,0.5,0.5h20.9c0.2,0,0.5-0.2,0.5-0.5V6.8z"/>
</svg>
