<svg xmlns="http://www.w3.org/2000/svg" width="15" height="21" viewBox="0 0 79.1 106.3">
  <title>Podcasts</title>
  <path d="M39.9,72.4c11.5,0,20.8-9.3,20.8-20.8V20.8C60.7,9.3,51.3,0,39.9,0S19.1,9.3,19.1,20.8v30.9C19.1,63.1,28.4,72.4,39.9,72.4
    z"/>
  <path d="M73.4,41.6c-3.2,0-5.7,2.4-5.7,5.4v7.7c0,14.1-12.6,25.5-28.1,25.5c-15.5,0-28.1-11.4-28.1-25.5v-7.7c0-3-2.6-5.4-5.7-5.4
    S0,44,0,46.9v7.7c0,18.1,14.4,33.2,33.8,35.8v5.1H18.4c-3.2,0-5.7,2.4-5.7,5.4s2.6,5.4,5.7,5.4h42.3c3.2,0,5.7-2.4,5.7-5.4
    s-2.6-5.4-5.7-5.4H45.3v-5.1c19.4-2.6,33.8-17.8,33.8-35.8v-7.7C79.1,44,76.5,41.6,73.4,41.6z"/>
</svg>
