<svg xmlns="http://www.w3.org/2000/svg" width="18px" height="20px" viewBox="0 0 18 20">
  <polygon points="3,20 5.4,20 6.4,16.3 4.3,15.3  "/>
  <polygon points="11.6,16.3 12.5,20 14.9,20 13.6,15.3  "/>
  <path d="M11.6,16.3l0.9,3.7h2.3l-1.3-4.7L11.6,16.3z M3,20h2.5l1-3.7l-2.1-1L3,20z M17,2h-6.8L9.8,0H8.2L7.7,2H1C0.4,2,0,2.4,0,3
      v11c0,0.6,0.4,1,1,1h16c0.6,0,1-0.4,1-1V3C18,2.4,17.6,2,17,2z"/>
  <rect x="1.9" y="3.9" style="fill: #FFFFFF;" width="14.3" height="9.2"/>
  <rect x="7.2" y="5.8" width="6.7" height="1.8"/>
  <rect x="7.2" y="9.4" width="6.7" height="1.8"/>
  <circle cx="5" cy="6.7" r="0.9"/>
  <circle cx="5" cy="10.2" r="0.9"/>
</svg>

