<svg version="1.1" xmlns="http://www.w3.org/2000/svg" xmlns:xlink="http://www.w3.org/1999/xlink"
	 viewBox="-184.8 274.4 285 56.8">
<path fill="#50BC8A" d="M-156.4,288.2c0,10.7-8.8,10.9-11.1,10.9c-0.5,0-1.5,0.1-2.6,0.1s-2.1-0.1-2.6-0.1
	c-2.2,0-11.1-0.2-11.1-10.9c0-2.4,0.8-4.3,2.1-5.8c-0.2-0.5-0.2-3.6,1-6.5c0,0,2.7,0.3,6.8,3.1c0.9-0.2,2.3-0.3,3.8-0.3
	c1.5,0,2.9,0.1,3.8,0.3c4.1-2.7,6.8-3.1,6.8-3.1c1.2,2.9,1.1,6,1,6.5C-157.1,283.9-156.4,285.8-156.4,288.2z M-159.9,291.6
	c0-1.3-0.5-2.6-1.6-3.5c-1.8-1.7-4.9-0.8-8.4-0.8h-0.1c0,0,0,0-0.1,0c-3.5,0-6.5-0.9-8.4,0.8c-1.1,1-1.5,2.2-1.5,3.5
	c0,5.4,4.4,6,9.9,6h0.1C-164.3,297.7-159.9,297-159.9,291.6z M-172.8,292.1c0,1.5-0.8,2.7-2,2.7c-1.1,0-2-1.1-2-2.7s0.9-2.7,2-2.7
	C-173.7,289.4-172.8,290.6-172.8,292.1z M-163.4,292.1c0,1.5-0.8,2.7-2,2.7c-1,0-2-1.2-2-2.7s0.9-2.7,2-2.7
	C-164.1,289.4-163.4,290.6-163.4,292.1z"/>
<path fill="#50BC8A" d="M-118,287.3c0-7.1,5.7-12.8,12.8-12.8c7.1,0,12.8,5.7,12.8,12.8c0,7.1-5.7,12.8-12.8,12.8
	C-112.2,300.1-118,294.4-118,287.3z M-104,287.2c-0.2-0.7-0.6-1.3-0.9-1.9c-5.6,1.7-11,1.5-11.1,1.5c0,0.1,0,0.2,0,0.4
	c0,2.7,1,5.3,2.7,7.2c0,0,3-5.3,8.8-7.2C-104.4,287.3-104.2,287.2-104,287.2z M-109.9,277.5c-3,1.5-5.2,4.2-5.9,7.6
	c0.2,0,4.8,0.1,10-1.4C-107.8,280.4-109.8,277.6-109.9,277.5z M-112.2,295.8c0.2,0.1,0.2,0.2,0.2,0.2
	C-112,295.8-112.1,295.8-112.2,295.8z M-111.9,295.9c1.9,1.5,4.2,2.3,6.7,2.3c1.5,0,3-0.3,4.3-0.9c-0.2-1-0.8-4.3-2.3-8.3
	c-0.1,0-0.1,0.1-0.1,0.1C-109.8,291.3-111.9,295.8-111.9,295.9z M-105.2,276.4c-0.9,0-1.7,0.1-2.6,0.3c0.2,0.2,2.2,3,4,6.4
	c4.1-1.5,5.6-3.9,5.7-4C-99.9,277.5-102.5,276.4-105.2,276.4z M-102.2,286.3c0.1,0.2,0.2,0.4,0.2,0.6c3.7-0.5,7.4,0.3,7.6,0.4
	c0-2.6-1-5-2.4-6.9c-0.1,0-1.8,2.6-6.1,4.4C-102.6,285.2-102.5,285.8-102.2,286.3z M-99.1,296.4c2.4-1.6,4.2-4.3,4.6-7.2
	c-0.2-0.1-3.3-1-6.8-0.5C-99.9,292.5-99.2,295.8-99.1,296.4z"/>
<path fill="#50BC8A" d="M-29.5,281.9c0,0.2,0,0.5,0,0.7c0,7.5-5.6,16-16,16c-3.3,0-6.1-0.9-8.6-2.5c0.4,0.1,0.9,0.1,1.4,0.1
	c2.7,0,5.1-0.9,7-2.4c-2.4-0.1-4.5-1.7-5.2-4c0.3,0.1,0.7,0.1,1,0.1c0.6,0,1-0.1,1.5-0.2c-2.6-0.6-4.5-2.8-4.5-5.6V284
	c0.7,0.4,1.6,0.7,2.5,0.7c-1.6-1-2.6-2.7-2.6-4.6c0-1,0.3-2,0.8-2.8c2.8,3.3,6.9,5.6,11.6,5.9c-0.1-0.3-0.2-0.8-0.2-1.3
	c0-3.1,2.5-5.6,5.6-5.6c1.6,0,3.1,0.7,4,1.7c1.3-0.2,2.5-0.7,3.5-1.3c-0.4,1.3-1.3,2.4-2.4,3.1c1.1-0.2,2.1-0.5,3.3-0.9
	C-27.5,280.1-28.4,281-29.5,281.9z"/>
<path fill="#50BC8A" d="M14.1,279c-1.5,0-2.5-1-2.5-2.3c0-1.4,1-2.3,2.5-2.3s2.5,1,2.5,2.3C16.7,277.9,15.7,279,14.1,279z
	 M11.8,280.8h4.7V296h-4.7V280.8z M19.3,280.8h4.1l0.2,2.1h0.1c0.6-1,2.1-2.5,4.6-2.5c3.2,0,5.5,2.1,5.5,6.6v9h-4.7v-8.3
	c0-2-0.7-3.3-2.4-3.3c-1.3,0-2.1,0.9-2.4,1.8c-0.2,0.3-0.2,0.7-0.2,1.2v8.7h-4.7v-10.4C19.4,283.8,19.3,282.2,19.3,280.8z"/>
<path fill="#50BC8A" d="M99.1,283.7c0,0.3,0,11,0,11c0,0.6-0.8,1.5-1.5,1.5H73.7c-0.7,0-1.5-0.8-1.5-1.5c0,0,0-10.6,0-11
	c0-0.2,0-0.6,0.6-0.3c0.8,0.4,11,5.7,11.4,5.9c0.6,0.3,0.9,0.3,1.4,0.3c0.5,0,0.8,0,1.4-0.3c0.5-0.2,10.6-5.6,11.4-5.9
	C99.1,283.1,99.1,283.5,99.1,283.7z M73.2,278.8h25.2c1.3,0,0.7,1.2-0.1,1.6c-0.7,0.3-10.8,5.8-11.1,5.9c-0.3,0.2-0.9,0.3-1.4,0.3
	s-1-0.1-1.4-0.3c-0.3-0.2-10.5-5.6-11.1-5.9C72.5,280.1,71.9,278.8,73.2,278.8z"/>
<path fill="#0681B1" d="M-156.4,318.2c0,10.7-8.8,10.9-11.1,10.9c-0.5,0-1.5,0.1-2.6,0.1s-2.1-0.1-2.6-0.1
	c-2.2,0-11.1-0.2-11.1-10.9c0-2.4,0.8-4.3,2.1-5.8c-0.2-0.5-0.2-3.6,1-6.5c0,0,2.7,0.3,6.8,3.1c0.9-0.2,2.3-0.3,3.8-0.3
	c1.5,0,2.9,0.1,3.8,0.3c4.1-2.7,6.8-3.1,6.8-3.1c1.2,2.9,1.1,6,1,6.5C-157.1,313.9-156.4,315.8-156.4,318.2z M-159.9,321.6
	c0-1.3-0.5-2.6-1.6-3.5c-1.8-1.7-4.9-0.8-8.4-0.8h-0.1c0,0,0,0-0.1,0c-3.5,0-6.5-0.9-8.4,0.8c-1.1,1-1.5,2.2-1.5,3.5
	c0,5.4,4.4,6,9.9,6h0.1C-164.3,327.7-159.9,327-159.9,321.6z M-172.8,322.1c0,1.5-0.8,2.7-2,2.7c-1.1,0-2-1.1-2-2.7s0.9-2.7,2-2.7
	C-173.7,319.4-172.8,320.6-172.8,322.1z M-163.4,322.1c0,1.5-0.8,2.7-2,2.7c-1,0-2-1.2-2-2.7s0.9-2.7,2-2.7
	C-164.1,319.4-163.4,320.6-163.4,322.1z"/>
<path fill="#0681B1" d="M-118,317.3c0-7.1,5.7-12.8,12.8-12.8c7.1,0,12.8,5.7,12.8,12.8c0,7.1-5.7,12.8-12.8,12.8
	C-112.2,330.1-118,324.4-118,317.3z M-104,317.2c-0.2-0.7-0.6-1.3-0.9-1.9c-5.6,1.7-11,1.5-11.1,1.5c0,0.1,0,0.2,0,0.4
	c0,2.7,1,5.3,2.7,7.2c0,0,3-5.3,8.8-7.2C-104.4,317.3-104.2,317.2-104,317.2z M-109.9,307.5c-3,1.5-5.2,4.2-5.9,7.6
	c0.2,0,4.8,0.1,10-1.4C-107.8,310.4-109.8,307.6-109.9,307.5z M-112.2,325.8c0.2,0.1,0.2,0.2,0.2,0.2
	C-112,325.8-112.1,325.8-112.2,325.8z M-111.9,325.9c1.9,1.5,4.2,2.3,6.7,2.3c1.5,0,3-0.3,4.3-0.9c-0.2-1-0.8-4.3-2.3-8.3
	c-0.1,0-0.1,0.1-0.1,0.1C-109.8,321.3-111.9,325.8-111.9,325.9z M-105.2,306.4c-0.9,0-1.7,0.1-2.6,0.3c0.2,0.2,2.2,3,4,6.4
	c4.1-1.5,5.6-3.9,5.7-4C-99.9,307.5-102.5,306.4-105.2,306.4z M-102.2,316.3c0.1,0.2,0.2,0.4,0.2,0.6c3.7-0.5,7.4,0.3,7.6,0.4
	c0-2.6-1-5-2.4-6.9c-0.1,0-1.8,2.6-6.1,4.4C-102.6,315.2-102.5,315.8-102.2,316.3z M-99.1,326.4c2.4-1.6,4.2-4.3,4.6-7.2
	c-0.2-0.1-3.3-1-6.8-0.5C-99.9,322.5-99.2,325.8-99.1,326.4z"/>
<path fill="#0681B1" d="M-29.5,311.9c0,0.2,0,0.5,0,0.7c0,7.5-5.6,16-16,16c-3.3,0-6.1-0.9-8.6-2.5c0.4,0.1,0.9,0.1,1.4,0.1
	c2.7,0,5.1-0.9,7-2.4c-2.4-0.1-4.5-1.7-5.2-4c0.3,0.1,0.7,0.1,1,0.1c0.6,0,1-0.1,1.5-0.2c-2.6-0.6-4.5-2.8-4.5-5.6V314
	c0.7,0.4,1.6,0.7,2.5,0.7c-1.6-1-2.6-2.7-2.6-4.6c0-1,0.3-2,0.8-2.8c2.8,3.3,6.9,5.6,11.6,5.9c-0.1-0.3-0.2-0.8-0.2-1.3
	c0-3.1,2.5-5.6,5.6-5.6c1.6,0,3.1,0.7,4,1.7c1.3-0.2,2.5-0.7,3.5-1.3c-0.4,1.3-1.3,2.4-2.4,3.1c1.1-0.2,2.1-0.5,3.3-0.9
	C-27.5,310.1-28.4,311-29.5,311.9z"/>
<path fill="#0681B1" d="M14.1,309c-1.5,0-2.5-1-2.5-2.3c0-1.4,1-2.3,2.5-2.3s2.5,1,2.5,2.3C16.7,307.9,15.7,309,14.1,309z
	 M11.8,310.8h4.7V326h-4.7V310.8z M19.3,310.8h4.1l0.2,2.1h0.1c0.6-1,2.1-2.5,4.6-2.5c3.2,0,5.5,2.1,5.5,6.6v9h-4.7v-8.3
	c0-2-0.7-3.3-2.4-3.3c-1.3,0-2.1,0.9-2.4,1.8c-0.2,0.3-0.2,0.7-0.2,1.2v8.7h-4.7v-10.4C19.4,313.8,19.3,312.2,19.3,310.8z"/>
<path fill="#0681B1" d="M99.1,313.7c0,0.3,0,11,0,11c0,0.6-0.8,1.5-1.5,1.5H73.7c-0.7,0-1.5-0.8-1.5-1.5c0,0,0-10.6,0-11
	c0-0.2,0-0.6,0.6-0.3c0.8,0.4,11,5.7,11.4,5.9c0.6,0.3,0.9,0.3,1.4,0.3c0.5,0,0.8,0,1.4-0.3c0.5-0.2,10.6-5.6,11.4-5.9
	C99.1,313.1,99.1,313.5,99.1,313.7z M73.2,308.8h25.2c1.3,0,0.7,1.2-0.1,1.6c-0.7,0.3-10.8,5.8-11.1,5.9c-0.3,0.2-0.9,0.3-1.4,0.3
	s-1-0.1-1.4-0.3c-0.3-0.2-10.5-5.6-11.1-5.9C72.5,310.1,71.9,308.8,73.2,308.8z"/>
</svg>
