<svg version="1.1" xmlns="http://www.w3.org/2000/svg" width="284.7px" height="66.4px" viewBox="0 0 284.7 66.4">
    <g>
      <path fill="#282828" d="M26.8,28.8l-1-0.2c-0.2,0-0.2,0-0.3-0.2c0-0.1-0.1-0.1-0.1-0.1l0,0.2c-0.2-0.1-0.8-0.1-1-0.1
        c-0.1,0-0.4-0.1-0.6-0.1c0-0.2,0.1-0.3,0.2-0.3c0.1,0,0.3,0.2,0.4,0.2c0,0.1,0.1,0,0.1,0c0.2,0,0.3,0,0.5-0.1
        c-0.3,0-0.5-0.1-0.7-0.2c0.2-0.2,0.5,0,0.8,0c0-0.1,0-0.2,0.1-0.4c0,0.1-0.4,0-0.5,0c-0.3,0.1-0.5,0-0.8-0.1l0-0.1l0.2,0
        c-0.4-0.1-0.4-0.2-0.4-0.3l-0.8-0.3c-0.2,0,0.1,0.1-0.2,0.1c-0.5-0.1-0.9-0.2-1.3-0.1c-0.1,0,0,0.1-0.1,0.2l0.1,0.1
        c0.3-0.1,0.6,0.1,0.8,0c0.2-0.1,0.3,0,0.3,0.2l0.9,0l0,0.2l-0.2,0.4l0,0.3l-0.3,0L21,27.9l-0.3,1.2c0.1,0.4-0.1,1.1-0.1,1.4
        l-0.3,0.8l-0.1,0.5c-0.1,0.1-0.3,0.2-0.3,0.2l0.1,1.3c-0.1,0.4-0.2,0.8-0.2,1.2v0.9c0,0.9,0,1.9,0.4,2.9c0.1,0.5,0.5,1.1,0.9,1.4
        c0.9,0.8,2.3,0.4,2.5,0l0.2,0.1c-0.4,0.8-1,1.3-1.9,1.4c-2.3,0.4-3.3-0.6-4-2.8c-0.4-0.8-0.3-2.3-0.3-3.1l0.1-1.1
        c0.1-1,0.2-1.7,0.3-2.6c0.1-0.8,0.6-2.6,0.7-3.4L18.4,28c0-0.1,0.1-0.1,0.2-0.1l-0.2-0.1l-0.2,0l-1.1,0c0.1,0,0.2,0.1,0.2,0.1
        l0.5,0c0.2,0,0.4,0.1,0.6,0.1c0,0.1-0.2,0.1-0.5,0.1L17.3,28l-2,0.1L12,28.3l-1.3,0c-0.2,0-0.5,0-0.8,0c-0.2,0-0.4,0.1-0.7,0.1
        c0,0.2-0.2,0.3-0.8,0.9c0,0.1,0,0.2-0.1,0.2c-0.4,0.7-0.6,1.2-0.9,1.7l-0.3,0.1c0-0.1,0-0.2,0-0.3c0-0.1,0.1-0.3,0.1-0.3
        C7,30.7,7,30.7,7,31.1c0,0.1,0,0.2-0.1,0.3l0.2,0.3c0,0.5-0.2,0.5-0.5,0.8c0,0.1-0.2,0.1-0.1,0.3c0,0.1-0.1,0.2-0.1,0.2
        c-0.3,0.1-0.4,0.3-0.4,0.6c0,0.3-0.1,0.3-0.2,0.5c-0.2,0.2-0.4,0.5-0.4,0.7c-0.1,0.2-0.4,0.3-0.5,0.1c0,0-0.1,0-0.1-0.2l-0.2,0
        c0.1,0.3,0.1,0.3,0,0.8c0,0.1-0.1,0.1-0.1,0.1l-0.1,0.3c0,0.2,0,0.3,0,0.4C4,36.4,4,36.6,3.9,36.7c-0.1,0.2-0.2,0.3-0.4,0.2
        l0.1,0.3c-0.1,0.5-0.4,0.6-0.8,0.8l0,0.1c-0.1,0.3-0.2,0.6-0.2,0.9c-0.1,0.1-0.2,0.4-0.3,0.6C2.1,39.9,2,40,2,40.3l-0.2,0.2
        l0.4-0.1L2,41.2c-0.2,0.1-0.3,0.1-0.3,0.1c0,0.1,0,0.2,0.1,0.2c0.1,0-0.1,0.1-0.2,0.1l-0.2,0.2l0.3,0l0,0.1c0,0,0,0.1-0.1,0.1
        c-0.2,0-0.3,0.2-0.4,0.3c0,0.4-0.1,0.8-0.2,1.1c-0.1,0.2,0,0.5,0,0.8l-0.1,1.2l-0.1,0.8c0,0.2,0,0.4,0,0.5c0,0.2,0,0.3,0,0.4
        c-0.1,0-0.2-0.1-0.3-0.1C0,45.7,0,44.7,0,43.5c0.2-1.4,0.5-2.7,0.8-3.9c0.2-0.4,0.4-0.8,0.5-1.1c0,0,0.1,0,0.2,0
        c-0.3,0.6-0.5,1.3-0.8,2c0,0.4-0.1,0.8-0.1,1.1L1,40c0.1-0.4,0.2-0.9,0.3-1.2c0-0.1,0.1-0.2,0.1-0.3c0.3-0.5,0.6-1.1,0.7-1.7
        l0.1-0.4l0.2,0l0,0.1c0-0.1,0-0.2,0-0.2c0-0.1,0-0.1,0-0.1C2.7,36,2.7,35.8,3,35.7c-0.1,0-0.1,0-0.1-0.1l-0.2,0.1
        c0.5-0.9,0.8-1.6,1.2-2.3c0,0,0,0.1,0.1,0L3.2,35l0,0.1l0.6-1c0.1-0.3,0.3-0.6,0.5-0.9L5.5,31c0.1-0.3,0.3-0.4,0.5-0.8l0.2-0.5
        C6.1,29.9,6,30,5.9,30.2c0-0.3,0.5-1.1,0.6-1.3c-0.2,0-0.6,0-0.8,0L4.5,29c-0.7,0-1.2,0.2-1.8,0.3c-0.3-0.1-0.5,0-0.8,0
        c-0.3-0.1-0.9-1.3-0.5-1.8c0.2-0.2,0.5-0.3,0.7-0.4c1.4-0.2,2.6-0.2,3.9-0.4c0.7-0.1,1.2-0.1,1.9-0.2c0.3,0,0.4-0.6,0.7-0.8
        c0.1-0.1,0.1-0.2,0.3-0.2l0.1,0l-0.7,0.8c0.4,0,0.5-0.5,0.7-0.7c0.2-0.2,0.4-0.4,0.6-0.8c0-0.3,0.3-0.3,0.4-0.7
        c0.5-0.7,1.1-1.3,1.6-1.9c1.1-1.3,2.2-2.6,3.3-3.9c1.8-2,3.5-3.9,5.3-5.7l0-0.1l-0.5,0.2l-0.7,0.8c-0.5,0.6-1.1,0.8-1.5,1.6
        l-0.2,0.2l0-0.1c0.1-0.3,0.2-0.5,0.4-0.7l0.1-0.2c0-0.3,0.1-0.3,0.2-0.3c0.2-0.1,0.3-0.2,0.4-0.2c0.2-0.1,0.3-0.4,0.5-0.3
        c0.1,0,0.2,0,0.2-0.1l0.3-0.3c-0.1-0.3,0.2-0.5,0.3-0.5c0-0.1,0.1-0.2,0.2-0.3c0.3-0.3,0.7-0.5,1.1-0.9c0.3-0.4,0.6-0.8,1.1-0.7
        c0.1,0,0.2,0,0.2-0.1c0.3-0.2,0.5-0.3,0.9-0.3c0.1,0,0.1,0,0.2,0.1c0.3,0.3,0.6,0.3,1,0.5c0.2,0.1,0.4,0.3,0.4,0.7
        c0.1,0.1,0.1,0.2,0.1,0.3l-0.2,0.5c-0.1,0.3-0.2,0.5-0.1,0.9c0.1,0.3,0.4,0.6,0.1,0.8c0,0.1-0.1,0.3-0.1,0.4
        c-0.2,0.7-0.3,1.2-0.4,1.8c-0.1,0.5-0.3,0.9-0.3,1.2c-0.1,0.3-0.2,0.6-0.3,0.9l-0.6,2.7l-0.2,0.5c-0.1,0.5-0.3,1-0.5,1.4
        c0,0.3-0.1,0.6-0.1,0.8c-0.2,0.4-0.2,0.8-0.3,1.2c0,0.2-0.1,0.3-0.2,0.4l-0.2,0.8l1.6,0.2c0.8,0.2,1.4,0.3,2.2,0.6
        c0.7,0.2,0.3,0.1,0.8,0.5c0.4,0.2,0.7,0.4,1,0.8c0.2,0.1-0.1,0,0.1,0.4C27.2,28.8,27,28.9,26.8,28.8z M0.4,42.8
        c0-0.1,0-0.3,0.1-0.4l0-0.4C0.4,42.2,0.3,42.5,0.4,42.8C0.3,42.8,0.4,42.8,0.4,42.8z M3.5,35.5c-0.4,0.8-0.8,1.4-0.9,2.2
        c-0.3,0.5-0.5,1.1-0.8,1.7c-0.1,0.5-0.5,1.1-0.6,1.8c-0.2,0.7-0.3,1.5-0.5,2.2c0,0.1-0.1,0.4-0.1,0.6c0.3-0.7,0.4-1.4,0.6-2.2
        c0.4-1.5,1.1-2.8,1.6-4.1C2.7,36.9,3.1,36.3,3.5,35.5z M3.7,36.3L3.7,36.3l-0.4,0.3c0,0.1,0.1,0.1,0.2,0.2
        C3.6,36.6,3.7,36.4,3.7,36.3z M5,32.6c0-0.2,0.2-0.3,0.2-0.3l0-0.1l-0.2,0.1c-0.3,0.4-0.6,0.9-0.9,1.5l0,0.2c0,0.1,0,0.2-0.1,0.2
        c-0.2,0.3-0.4,0.7-0.6,1.1l0.3-0.5c0.1-0.3,0.2-0.4,0.4-0.6l0-0.2l0.1,0.1C4.5,33.5,4.7,33.1,5,32.6z M4.2,35l-0.2,0
        c-0.1,0.5-0.3,0.9-0.5,1.1c0.1,0,0.2-0.1,0.3-0.2L4.2,35z M3.7,37.6c0.1-0.3,0.2-0.6,0.4-0.9C4,37,3.9,37.4,3.7,37.6
        C3.7,37.6,3.6,37.6,3.7,37.6z M4.9,34c-0.4,0-0.6,0.4-0.5,0.8C4.5,34.5,4.6,34.2,4.9,34z M7.9,27c-0.1,0-0.1,0-0.1,0
        c-0.2,0-0.4,0.1-0.5,0c-0.2,0.1-0.3,0-0.4,0.1l-1.1,0.2c-0.7,0-1,0.1-1.2,0c0.2,0.1,0.7,0.2,2.3,0c0.3-0.1,0.5-0.1,0.7-0.1
        C7.8,27.2,7.8,27.1,7.9,27z M5.1,34.6c-0.1,0-0.1-0.1-0.1-0.2c-0.1,0-0.3,0-0.4,0l0,0.1L5.1,34.6z M6.7,31C6.5,31,6.4,31,6.3,31
        c0,0.1,0,0.1,0.1,0.1c-0.4,0.8-0.8,1.4-1.4,2c0.1,0,0.1,0,0.1,0l0,0.1l-0.3,0.3c0,0.1,0,0.1,0.1,0.3c0.2-0.2,0.3-0.5,0.4-0.7
        c0-0.1,0.1-0.1,0.1-0.2c0.2-0.3,0.4-0.6,0.5-0.8C6.2,31.8,6.4,31.3,6.7,31z M5.9,30.2l-0.3,0.5c-0.1,0.3-0.4,0.6-0.5,0.8
        C5.2,31,5.5,30.6,5.9,30.2z M5.4,32c0.4-0.5,0.7-0.9,1-1.5C6.1,30.6,5.5,31.7,5.4,32z M5.8,33.1L5.8,33.1c-0.2,0.1-0.2,0.2-0.3,0.4
        c0.1,0,0.2,0.1,0.2,0.1C5.7,33.4,5.8,33.3,5.8,33.1z M6.5,32.3c-0.3-0.1-0.3,0-0.5,0.4L6.5,32.3z M6.5,30.2
        c0.3-0.1,0.6-1.1,0.5-1.3C6.8,29.2,6.7,30,6.5,30.2z M7.9,28.8c-0.2-0.1-0.2-0.1-0.5,0.1c-0.2,0.4-0.5,1.1-0.6,1.5
        c0,0.1-0.1,0.2-0.1,0.3c0,0.1,0.1,0,0.1,0.1c0.1-0.3,0.3-0.7,0.6-1c0.1-0.2,0.2-0.4,0.4-0.5C7.8,28.9,7.8,28.9,7.9,28.8z
         M10.2,25.9c0.2-0.4,0.5-0.6,0.9-1c0-0.1,0-0.1,0.1-0.2l-0.1-0.1c-0.2,0.1-0.3,0.1-0.4,0.3c-0.3,0.4-0.5,0.7-0.8,1.2
        C10,26.2,10.2,26,10.2,25.9z M10.7,27.5c-0.1-0.3-0.2-0.3-0.4-0.1C10.5,27.4,10.6,27.5,10.7,27.5z M11.8,26.9c0.3,0,0.6,0,1.1-0.1
        l1.7,0l0.1-0.1c-1.4,0-2.8,0-4.1,0C11,26.9,11.4,26.8,11.8,26.9z M11.2,22.3l0.3,0c-0.4,0.2-0.6,0.3-0.6,0.5c0,0.1-0.1,0-0.1,0
        C11,22.6,11.1,22.5,11.2,22.3z M22,16.6c-0.1,0.5-0.3,1.1-0.4,1.5c0,0.1-0.1,0.3-0.2,0.4c0.1,0.3-0.1,0.5-0.1,0.7
        c0,0.1,0.1,0.2,0,0.3C21.2,19.9,21,20,21,20.5l0,0.3c-0.3,0.6-0.4,1.2-0.7,1.8c-0.1,0.3-0.1,0.6-0.2,0.9c-0.1,0.4-0.2,0.7-0.3,1
        c0,0.1-0.2,0.1-0.2,0.1l-0.1-0.1c0.1-0.5,0.2-1.1,0.4-1.6c0.1-0.2,0.1-0.4,0.2-0.6l0.2-0.7l0.3-1.4l0.6-2.7c0.2-0.6,0.3-1.4,0.6-2
        c0-0.5,0.4-1.9,0.5-2.5l-0.3,0c-0.2,0.3-1.1,1.2-1.4,1.5c-0.1,0.4-0.4,0.7-0.7,1c-0.3,0.3-0.6,0.7-0.9,1c-0.5,0.5-0.8,0.7-1.2,1.2
        c-0.4,0.3-0.6,0.7-0.9,1.2c-0.1,0.2-0.4,0.4-0.6,0.7c-0.1,0.2-0.3,0.4-0.5,0.6c-0.4,0.3-0.6,0.5-0.8,0.9c-0.2,0.4-0.7,0.7-0.9,1.1
        c-0.2,0.2-0.4,0.2-0.4,0.6c-0.3,0.2-0.4,0.4-0.6,0.7l-0.4,0.7c-0.6,0.9-1.2,1.6-1.8,2.5c0.5-0.1,1-0.1,1.4-0.1
        c0.5,0.1,1.1,0,1.6,0.1c0.4-0.1,0.8,0,1.2-0.1c0.4,0.1,0.8,0.1,1.3,0c0.4,0,0.8,0,1.4,0l1.5,0l0.3-1.5l0.2,0c0,0,0.1,0,0.1,0.1
        l-0.1,1L19.6,26c0.1,0,0.2,0,0.2,0C20.2,25.4,22,17,22,16.6z M19.2,26.5c-2.6-0.2-5.3,0.1-8.1,0c0,0.1,0,0.1,0,0.1l2.9,0
        c1-0.1,2.1-0.1,3.2-0.1C17.8,26.5,18.5,26.5,19.2,26.5z M11.1,24.6c0.3-0.1,0.4-0.1,0.5-0.2l0,0.2c0.1-0.4,0.2-0.7,0.4-1
        C11.6,23.8,11.3,24.2,11.1,24.6L11.1,24.6z M12,21.4l-0.4,0.4l0-0.1c0.1-0.2,0.2-0.3,0.3-0.5C11.9,21.4,12,21.4,12,21.4z
         M11.8,27.5L11.8,27.5C11.8,27.6,11.8,27.6,11.8,27.5z M12.2,27.4l0-0.1c-0.1,0-0.2,0-0.3,0l0,0.1C12,27.4,12.1,27.4,12.2,27.4z
         M12.9,27.9L12,28C12.5,28.2,12.6,28.2,12.9,27.9z M12.5,22.8c0.2-0.2,0.5-0.6,0.7-0.8l0.3-0.4C13.1,21.9,12.8,22.2,12.5,22.8z
         M16.3,26.8c-0.1,0-0.1,0-0.1,0c-0.2,0-0.4,0.2-0.5,0c-0.2,0.1-0.3,0-0.4,0.1L14,27c-0.2,0-0.5,0-0.7,0c-1,0.1,0.3,0.2,2,0
        c0.3-0.1,0.5-0.1,0.7-0.1C16.2,26.9,16.2,26.8,16.3,26.8z M13.3,19.6l1.8-2l0,0.2C14.5,18.5,14,19.1,13.3,19.6
        C13.3,19.7,13.3,19.7,13.3,19.6z M13.6,21.4c0.1,0,0.1-0.1,0.2-0.1c0.3-0.3,0.6-0.7,0.9-1.1l0.2-0.2l-0.1,0
        C14.4,20.3,14,20.9,13.6,21.4z M15.2,17.5c0-0.2,0.2-0.3,0.3-0.4C15.4,17.3,15.3,17.4,15.2,17.5C15.2,17.6,15.2,17.5,15.2,17.5z
         M15.7,17.1c0,0-0.1,0-0.3,0c0.3-0.4,0.7-0.8,1-1.1c0.1-0.1,0.2-0.2,0.4-0.3l0,0.1L15.7,17.1z M19.2,26.6c0-0.1,0-0.1-0.1-0.1
        l-2.6,0.2l-0.2,0.2c0.2,0,1.2-0.1,1.4-0.2c0.1,0,0.3-0.1,0.3,0c0.4,0,0.7,0.1,1,0C19,26.8,19.1,26.7,19.2,26.6z M16.4,18.4
        c0.1-0.2,0.3-0.3,0.4-0.7C16.6,17.9,16.5,18,16.4,18.4L16.4,18.4z M18.1,34.4c-0.1-0.1-0.1-0.2-0.1-0.2c0,0.2,0,1.2,0,1.3l0.2,0
        L18.1,34.4z M18.8,30.8c0.3-0.7,0.2-1.3,0.4-2.2c-0.1,0.1-0.2,0.1-0.4,0.3c0,0.4-0.2,0.8-0.3,1.3c0,0.1-0.1,0.3,0,0.4
        c0,0.3,0,0.4-0.1,0.6c-0.1,0.1,0,0.3-0.1,0.4c-0.1,0.2-0.1,0.4-0.2,0.7l-0.1,1.2c0,0.2,0,0.4,0,0.5c0.2,0.1,0.2,0,0.2-0.2
        c0-0.2-0.1-0.4,0-0.5c0.1-0.3,0.2-0.8,0.3-1.2C18.6,31.6,18.7,31.2,18.8,30.8z M18.8,27.7c0.1-0.4-0.1-0.9-0.3-0.8
        c-0.2,0.1-0.2,0.2-0.4,0.3l0.1,0c0.1,0,0.2,0,0.2,0.1c-0.1,0.2-0.1,0.3,0.1,0.4l0.1-0.5C18.8,27.3,18.8,27.7,18.8,27.7z M19.4,27.3
        c-0.1,0.2-0.2,0.4,0,0.6C19.6,27.7,19.4,27.5,19.4,27.3z M19.6,33.6C19.6,33.6,19.6,33.5,19.6,33.6L19.3,34c0,0.1,0.1,0.2,0.1,0.3
        C19.5,34.1,19.6,33.8,19.6,33.6z M20.1,30.7c0,0.1-0.1,0.3-0.2,0.6l0.1,0C20,31.1,20.1,30.8,20.1,30.7z M20.5,28.7L20.5,28.7
        c-0.1,0.3-0.2,0.6-0.2,1l0.1,0C20.4,29.4,20.4,29,20.5,28.7z M23.7,28.2l-0.4-0.1l0.1-0.7c0.1,0,0.7,0.2,0.9,0.3
        C24.2,27.7,23.7,27.9,23.7,28.2z M24,27c-0.2,0-0.3-0.1-0.3-0.1l0,0.1L24,27C24.1,27,24,27.1,24,27z M25.3,27.2
        c-0.3-0.1-0.7-0.2-1-0.2l0,0.1c0.3,0,0.5,0.1,0.9,0.2C25.2,27.2,25.3,27.3,25.3,27.2z"/>
      <path fill="#282828" d="M43.8,38.2c-0.5-0.2-0.9-0.8-1.2-1.4c-0.1-0.5-0.5-1.1-0.6-1.9c0-0.7-0.2-1.4-0.2-1.9l-0.1-1.1
        c-0.2,0-0.3,0-0.6,0.3c0,0.1-0.1,0.1-0.1,0.2c-0.6,0.7-1.3,1.3-1.9,2c-0.3,0.5-0.9,0.7-1.3,1l-0.3,0.3c-0.2,0-0.3,0-0.6-0.1
        L36.4,35c0,0.2-0.1,0.3-0.1,0.4c-0.2,0.1-0.3,0-0.4-0.2c0-0.1-0.2-0.1-0.2-0.2c-0.1-0.1-0.3-0.2-0.3-0.3c-0.1-0.5-1-0.6-0.4-1.1
        c0.1-0.7,0.2-2.3,0.3-3.1c0-0.1,0-0.2-0.1-0.3c-0.6,0.8-1.1,1.5-1.4,1.9c-0.1,0.1-0.3,0.2-0.4,0.2c0.2,0.3-0.1,0.5-0.3,0.8
        l-0.3,0.7c-0.5,0.8-0.9,1.5-1.3,2.3c-0.1,0.3-0.4,0.4-0.6,0.6c-0.1,0.1-0.2,0.2-0.2,0.3l-0.4,0.3c-0.3-0.2-0.4-0.6-0.5-0.8L29.6,37
        c-0.3-0.4-0.5-0.9-0.5-1.5c0.1-1.8,0.3-3.5,0.7-5.3c0.2-1,0.3-2.1,0.5-3.1c0-0.3,0.1-0.5,0-0.7c-0.1-0.1,0.1-0.3,0.1-0.4
        c0.4,0,0.6,0,0.9,0.1c0.4,0.1,0.6,0.2,0.8,0.6c0.1,0.5,0.1,1.1,0,1.6c-0.1,0.7-0.1,1.4-0.3,2.1c0,0.4-0.6,2.1-0.6,2.7
        c0.2-0.1,0.3-0.1,0.3-0.2c0.1-0.3,0.4-0.7,1-1.9c0.4-0.6,0.8-1.4,1.3-2c0.3-0.4,0.6-0.8,1-1.2c0.2-0.2,0.4-0.1,0.6,0
        c0.3,0.3,0.8,0.5,1.3,0.3c0.2-0.1,0.4,0,0.6,0c0.2,0.4,0.1,0.8,0.2,1.2c0.1,0.1,0.1,0.3,0.1,0.5c0,0.5,0.1,0.9-0.1,1.4
        c-0.1,0.4-0.2,1.6-0.2,2.2c0.6-0.6,1.4-1.5,2-2c0.3-0.3,0.6-0.6,1-0.8c0.2-0.2,0.4-0.3,0.8-0.7c0.2-0.1,0.4-0.1,0.5,0
        c0.5,0.1,0.8,0.4,1.3,0.6c0.1,0.1,0.2,0.2,0,0.2c0.1,0.1,0.2,0.3,0.3,0.2c0.5,0,0.5,0.5,0.5,0.9c0.1,0.2,0.1,0.4,0.1,0.7l0,0.3
        c-0.2,0.3,0,0.7,0,1c0.1,0.5,0.1,0.9,0.2,1.4c0.1,0.3,0.1,0.5,0.5,1.5c0.4,0.6,0.8,0.8,1.5,0.5c0.1-0.1,0.3,0.2,0.2,0.5
        c0,0.1-0.1,0.2-0.2,0.3c0,0.2,0,0.3-0.3,0.6C45.5,38.6,44.3,38.6,43.8,38.2z"/>
      <path fill="#282828" d="M43,66.3c-1.6-0.2-2.6-1-3.6-2.2c-0.2-0.5-0.6-1.1-0.9-1.7c-0.6-0.8-0.8-1.7-0.5-2.6c0-0.4,0-0.6-0.1-0.7
        c0.1-0.8,0.2-1.5,0.1-2.1c0.3-1.8,0.9-3.6,1.8-5.2c0.8-1.6,1.7-3,2.6-4.4c0.9-1.3,2-2.5,3-3.7c1.1-1.1,2.3-2.2,3.5-3.3
        c0.6-0.6,1.3-1.1,1.9-1.6c0.5-0.5,1-0.6,1.3-1c0.5-0.3,1-0.7,1.3-0.9c0.6-0.3,0.5-0.7,0.5-1.2c0.1-0.5,0.3-1,0.2-1.5
        c0.1-0.8,0.2-1.4,0.2-2.1c0.2-1.2,0.3-2.2,0.3-3.1c-0.1-0.4,0.1-0.7,0.1-1c-0.1-0.2-0.3-0.1-0.3-0.3c0,0.2-0.1,0.2-0.1,0.2
        c-0.8,0.5-1.3,1.3-2.1,2.1c-0.6,0.3-0.9,0.9-1.6,1.2c-0.4,0.3-0.6,0.7-1.1,0.8c-0.3,0-0.5,0.2-0.7-0.1l0.4-0.2
        c-0.6,0-0.4-0.1-0.6-0.4l0-0.2l-0.2,0c0,0.2,0,0.3-0.1,0.3c0,0-0.3,0-0.3-0.1c-0.2-0.3-0.4-0.7-0.5-1c-0.1-0.6,0.3-0.9,0.3-1.3
        c0.2-0.6,0.2-1.5,0.2-2.2c0-0.4,0-0.9,0.2-1.4c0.1-0.3,0.1-0.6-0.1-0.9C48,24.2,48,23.9,48,23.8c0.2-0.2,0.3-0.4,0.7-0.4
        c0.3,0.1,0.3,0,0.6,0.2c0.3,0.1,0.7,0.6,1,0.8c0,0,0.1,0.1,0,0.4c-0.1,0.3,0,0.7-0.1,1.3c-0.1,0.4-0.2,1.1-0.4,1.8
        c0,0.4,0,0.6-0.1,1.1c0.3-0.2,0.7-0.5,0.8-0.6c0.5-0.3,0.7-0.9,1.1-1.3c0.5-0.3,0.8-0.8,1.2-1.2c0.6-0.6,1-1.1,1.6-1.5
        c0.3-0.4,0.4-0.5,0.8-0.4c0.1,0.2,0.4,0.2,0.6,0.2c0.1,0,0.3,0.1,0.4,0.1l0,0.1l0.1,0.4c0.4,0.1,0.2,0.4,0.6,0.3l-0.1,0.6
        c0,0.4-0.1,1.3-0.2,1.4l0,0.1c0.1,0.6-0.2,1.4-0.2,1.7c-0.1,0.4-0.1,0.8-0.1,1.2c0,0.2-0.1,0.4-0.1,0.4c-0.2,0.2-0.2,0.4-0.1,0.7
        c0.3,0.4,0,0.9,0.1,1.4c0,0.1-0.3,0.5-0.3,0.6c-0.1,0.5-0.1,0.8-0.1,1.3L56,34.6c0.1,0.2,0.3,0.1,0.4,0c1.1-0.7,1.9-1.2,2.6-1.8
        c0.6-0.4,0.9-0.5,1.6-1l1-0.5c0.4-0.1,1.6-1,1.8-1l0.1,0.6c-0.2,0.4-0.7,1-0.8,1.2c-0.2,0.1-0.4,0.4-0.5,0.4
        c-0.4,0.3-0.7,0.4-1.1,0.8L60.1,34l0.2,0.1c-0.4,0.2-0.5,0.8-1,0.6c-0.5,0.3-0.8,0.6-1.1,0.8l0.2,0.2c0,0.1-0.3,0.1-0.5,0.2
        c-0.1,0.1-0.1,0-0.7,0.4c-0.1,0.1-0.1,0.2-0.2,0.4c-0.1,0-0.1-0.2-0.1-0.2l-0.3,0.1c-0.1,0.4-0.2,0.7-0.5,1
        c-0.2,0.1-0.1,0.6-0.2,0.6c0,0.2-0.1,0.3-0.1,0.5l0.1,0c-0.1,0-0.3,0.1-0.5,0.1c0.6,0.6,0.3,1.3,0.2,2.1c-0.1-0.3-0.1-0.5-0.3-0.6
        l0,0.6l0.3,0c0,0.2,0,0.2-0.5,0.3l0.3,0.1c0.2,0.1,0.2,0.2,0.2,0.6c0,0.2-0.1,0.3-0.1,0.5c0.1,0.3,0.1,0.6-0.6,0.7
        c0.5,0.3,0.4,0.8,0.4,1.1c-0.1,0.4-0.2,0.6-0.5,1c0.5,0.2,0.4,1.1,0.1,1.4c0.1,0.4,0,0.6-0.2,0.8c-0.2-0.1-0.3-0.2-0.5-0.3
        c0.3-0.3-0.2-0.9,0.2-0.9c0,0-0.1-0.1-0.1-0.3c0.1-0.2,0-0.5,0.3-0.8c0.2-0.4,0.1-0.9,0.2-1.4c0-0.3,0.1-0.8,0.2-1.1
        c0-0.5-0.1-0.9,0.1-1.4c-0.1-0.2,0-0.4,0-0.6c0-0.4-0.1-0.6,0.1-1l0-0.2c0.2-0.3,0.2-0.4,0.2-0.7c0-0.3,0.1-0.3,0.1-0.4
        c-0.2,0-0.2,0-0.2-0.1c-0.2,0.3-0.4,0.5-0.3,0.9c-0.1,0.4,0,1.1-0.2,1.6c0.1,0.3-0.1,0.6,0,0.9c-0.1,0.5,0,1.2-0.1,1.8
        c-0.2,0.7-0.3,1.3-0.4,2.1c0,0.1,0.1,0.3,0.1,0.5c-0.1,0.5-0.2,0.7-0.5,1.2c-0.1,0-0.4-0.2-0.7-0.2c0.3,0.5,0.2,0.9,0.1,0.9l0,0.5
        c0,0-0.2,0-0.4,0.2c0,0-0.2,0-0.3,0.2l0.1,0c0,0,0.2,0,0.4-0.1c0,0.2,0,0.3-0.2,0.5c0,0.3-0.2,0.7-0.1,1.1
        c-0.1,0.1-0.2,0.3-0.2,0.4l0,0.2c0,0.1,0,0.6-0.2,0.6l0.2,0.1c-0.2,0.3-0.2,0.6-0.4,0.7l0,0.2c-0.1,0.4-0.1,0.8-0.1,1
        c0,0.3-0.4,0.3-0.4,0.4c0,0,0.7,0,0.1,0.4c0,0.4,0,0.5-0.3,0.9c0,0.3-0.2,1.1-0.6,1.4c0.4,0.1,0.1,0.2,0,0.4
        c-0.3,0.9-0.5,1.7-0.9,2.5c0,0.1-0.2,0.4-0.2,0.5c-0.1,0.1,0,0.3,0,0.3c0.1,0,0.3,0,0.4-0.1c0-0.2,0-0.2-0.2-0.3l0.3,0l0-0.4l0.1,0
        c0,0.2,0.2,0.2,0.2,0.4c-0.1,0.2-0.3,0.2-0.3,0.3c-0.2,0-0.1,0.2-0.1,0.2c-0.2,0-0.2,0.2-0.4,0.2l-0.1-0.2
        c-0.2,0.2-0.4,0.3-0.5,0.6c-0.2,0.3-0.5,0.9-0.7,1.3c0,0.3-0.1,0.3-0.1,0.3c-0.4,0.1-0.3,0.3,0,0.6c-0.3,0.1-0.5,0.2-0.8,0.4
        c0.4,0.2,0.4,0.3,0.5,0.3l0-0.3c0.1,0,0.1-0.3,0.4-0.3l0,0.3c0.1,0,0.3,0.2,0.3,0.2c-0.2,0.1-0.1,0.2-0.4,0.4c0,0.2-0.4,0-0.8,0
        l-0.1,0.1c0,0-0.1,0-0.4,0.2c0,0,0,0.2,0.2,0.1l-0.2,0.2l0.3,0c0,0.1,0.2,0.1,0.3,0.1c-0.4,0.2-0.7,0.4-1.2,0.5
        c0.2,0.4-0.2,0.2-0.3,0.4c-0.5,0.5-1.5,0.2-2.1,0.4C43.9,66.4,43.4,66.4,43,66.3z M38.3,59.1c0-0.4,0.2-0.7,0.2-1.2
        c0-0.4,0-0.8,0.1-1.3c0-0.4,0.2-0.6,0.4-1.1c0.2-0.4,0.5-1.2,0.7-1.8c0.3-0.3,0.2-0.4,0.3-0.8c0.2-0.1,0.5-0.3,0.5-0.7
        c0-0.2,0-0.2,0.1-0.2c0.1-0.2,0.5-0.3,0.5-0.7c-0.1-0.3,0-0.3,0.2-0.3c0-0.2,0.1-0.3,0.1-0.3c0.4,0,0-0.2,0.2-0.3
        c0,0,0.1-0.2,0.1-0.4c0.3-0.3,0.5-0.7,0.6-0.9c0.2-0.5,0.7-0.9,1-1.3c0.1-0.3,0.4-0.7,0.7-1l0-0.2c0.2-0.1,0.4-0.1,0.5-0.3
        c0-0.1,0.1-0.1,0.1-0.4c0.4-0.2,0.6-0.3,0.7-0.7c0.4-0.7,1-1.1,1.5-1.7c0.3-0.2,0.6-0.6,0.9-0.7c0.2-0.4,0.4-0.6,0.6-0.7
        c0,0,0.2,0,0.4-0.2c0.1-0.5,0.8-0.6,1-1.1c0.2-0.3,0.6-0.6,0.8-0.7c0.4-0.3,1-0.8,1.3-1.3c0.7-0.5,1-1,1.6-1.3
        c0.3-0.2,0.2-0.3,0.4-0.4l-0.2,0c-0.3,0.2-0.4,0.3-0.8,0.5c-0.6,0.3-1.2,0.9-1.7,1.5c-0.6,0.4-1.2,0.9-1.9,1.5
        c-0.9,0.7-1.7,1.6-2.6,2.5c-0.9,0.9-1.6,1.8-2.5,2.6c-0.5,0.8-1,1.6-1.6,2.3c-0.2,0.4-0.6,0.7-0.7,1.2c-0.2,0.3-0.4,0.7-0.7,1.2
        c-0.5,0.9-1,1.7-1.4,2.6c-0.3,0.5-0.5,1.2-0.8,1.7c-0.3,0.6-0.4,1.3-0.6,2c-0.1,0.4-0.1,0.9-0.2,1.2c0.1,0.4,0.1,0.9,0.1,1.3l0,0.3
        C38.3,59.4,38.4,59.3,38.3,59.1z M39,60.6C39,60.4,39,60.2,39,60l0-0.2c-0.1-0.1-0.2-0.4-0.1-0.6c-0.1,0.5-0.1,0.7-0.2,1.4
        C38.8,60.6,39,60.6,39,60.6z M39,57.9c0-0.2,0-0.7,0.2-0.9l-0.1-0.2c-0.3,0.9-0.3,1.9,0,2.1C39.2,58.6,39.3,58.2,39,57.9z
         M39.5,57.3c-0.2,0.3-0.2,0.4-0.2,0.7C39.5,57.9,39.5,57.7,39.5,57.3z M44.4,64.6c0.9-0.2,1.7-1,2.4-1.7c0.7-0.8,1.6-1.7,1.8-2.7
        c0.5-1.1,0.9-1.9,1.3-2.8c0.2-0.6,0.3-1.3,0.6-1.9c0.5-1.9,1.2-3.7,1.7-5.6c0.1-0.6,0.1-1.3,0.3-2.1l0.3-0.2c0,0-0.1-0.2,0.1-0.2
        l-0.4,0c0-0.3,0.2-0.4,0.2-0.5c0.1-1,0.2-1.9,0.4-2.9c0-1,0.1-2.4,0.4-3.6c0-0.4,0-0.8,0.1-1.1c-0.3,0.1-0.6,0.1-0.6,0.4
        c-0.2,0.4-0.5,0.8-0.9,0.8l0,0.2c-0.3,0.2-0.4,0.4-0.6,0.4c-0.1,0.2-0.5,0.3-0.6,0.6c-0.3,0.5-0.9,1-1.6,1.2c0,0-0.2,0-0.1,0.2
        c-0.2,0.3-0.3,0.7-0.9,0.7c-0.3,0-0.5,0.1-0.8,0.1c0.2-0.2,0.2-0.4,0.2-0.4c0.5-0.3,0.6-0.8,1.2-1.1c0.4-0.3,0.7-0.5,1.1-1
        c0.1,0,0.1-0.2,0.1-0.2c0.2-0.2,0.2-0.2,0.4-0.2c0.4-0.3,1-0.7,1.3-1.1c0.3-0.4,0.9-0.7,1-1.1c0.4,0,0.5-0.1,0.7-0.4l0-0.1
        c-0.2,0.1-0.3,0.1-0.6,0.4c-0.9,0.7-2,1.6-3,2.3c-0.1,0.2-0.1,0.2,0,0.4l-0.2,0c-0.7,0.5-1.4,1.1-2.1,1.8c-0.5,0.6-1.1,1.2-1.7,2
        c-0.4,0.3-0.7,0.7-0.9,1.1c-0.3,0-0.3,0.1-0.4,0.3c-0.1,0.2-0.2,0.4-0.4,0.6c0.3,0,0.3-0.2,0.4-0.6l0.5-0.2c0.3-0.5,1-1,1.4-1.6
        c0.3-0.4,0.4-0.4,0.5,0c0.3,0.1,0.3,0,0.5-0.3c0.1-0.3,0.3-0.6,0.6-0.4c0.2,0,0.2-0.3,0.2-0.3c0.4,0.2,0,0.4,0.1,0.5
        c-0.1,0-0.2,0-0.5,0.2c-0.1,0-0.1,0.3-0.3,0.4c-0.2,0-0.4,0.2-0.3,0.3c-0.4,0.3-0.7,1-1.2,1.1l-0.3,0.2l0.3,0
        c0,0.2-0.3,0.2-0.2,0.4c-0.1,0.3-0.4,0.5-0.5,0.7c0,0.2-0.1,0.3-0.4,0.3c-0.1,0.4-0.3,0.4-0.3,0.9c0,0.2-0.1,0.2-0.3,0.2
        c-0.3,0.6-0.9,1.2-1.2,1.9c-0.1,0.3-0.4,0.8-0.5,1.1c-0.1,0.3-0.3,0.7-0.6,0.6l-0.2,0.1c0.2,0,0.2,0.2,0.3,0.2
        c-0.2,0.1-0.2,0.3-0.5,0.7c-0.3,0.2-0.2,0.6-0.6,0.9c-0.2,0.4-0.3,0.8-0.3,1.2c-0.2,0.3-0.3,0.8-0.4,1.2c0,0.2,0,0.8-0.3,1.1
        c-0.3,0.8-0.2,1.3-0.1,2c0,0.6,0.2,1,0.1,1.6l0.3,0.1c-0.3,0-0.4,0.1-0.5,0.1c0.2,0.2,0.2,0.2,0.3,0.2C40.1,62,40.1,62,39.9,62
        c0.1,0.2,0.3,0.1,0.3,0.3c0.2-0.1,0.2-0.1,0.2,0.2c0.2,0.1,0.2,0.2,0.4,0.3c0,0.4,0.1,0.7,0.3,0.8c0,0.3,0.1,0.5,0.5,0.7
        c0,0,0,0.1,0.1,0.3l0.1,0l0.2,0.1C42.7,65.1,43.6,65,44.4,64.6z M40.1,55.8c-0.1-0.4,0.6-0.5,0.3-0.9c0.2-0.4-0.1-1,0.6-1
        c-0.4-0.3-0.4,0.3-0.7,0.5c0.2-1.3,1.1-2.1,1.4-3.2l-0.2,0c-0.3,0.5-0.8,1-1,1.6c-0.3,0.6-0.6,1.3-0.6,2.2
        c-0.3,0.2-0.1,0.4-0.2,0.8L40.1,55.8z M41.2,53c-0.3,0.1-0.1,0.3-0.5,0.7C41,53.6,41.3,53.6,41.2,53z M41.5,52.5
        c-0.1-0.2-0.3,0-0.2,0.3l0,0.3C41.4,52.8,41.5,52.7,41.5,52.5z M42.2,50.6c0.1-0.3,0.2-0.7,0.5-0.8c0.3-0.4,0.4-0.7,0.7-1.2
        c0.2-0.3,0.3-0.5,0.6-0.9c-0.4,0-0.6,0.4-0.6,0.9c0,0-0.3,0-0.3,0.1c-0.2,0.5-0.5,0.9-0.8,1.3c-0.1,0.4-0.3,0.7-0.4,1.1
        C42,50.8,42,50.8,42.2,50.6z M44.3,65.6l-0.6,0C43.9,65.7,44.1,65.8,44.3,65.6z M44.4,48.4c-0.1-0.1-0.1-0.1-0.3-0.2
        c0,0.1,0,0.3-0.3,0.4C44,48.6,44.2,48.5,44.4,48.4z M45,47.3l0-0.3c-0.3,0.2-0.3,0.3-0.5,0.3c0.1,0.2,0.2,0.1,0.2,0.1
        C44.8,47.5,44.8,47.3,45,47.3z M45.2,65.1c0.5,0.2,2.2-1.2,2.2-1.8c0.2,0,0.2,0,0.2,0.1c0-0.1,0-0.1,0.1-0.1
        c-0.2-0.2-0.2-0.2-0.4-0.3l-0.1,0.2c-0.4,0.2-0.4,0.5-0.6,0.6c-0.2,0.5-0.4,0.6-0.8,0.9c-0.1,0.2-0.5,0.2-0.8,0.4l0-0.2
        c0,0.2-0.1,0.3,0,0.5C45.1,65.4,45,65.1,45.2,65.1z M45.9,45.9c-0.4,0.1-0.5,0.6-0.7,0.7C45.6,46.4,45.9,46.3,45.9,45.9z
         M48.3,64.4l0,0.2c-0.3,0.2-0.6,0-0.9,0.1C47.6,64.6,48,64.4,48.3,64.4z M48.8,43c-0.2,0.2-0.4,0.4-0.5,0.6
        C48.4,43.4,48.7,43.2,48.8,43z M48.8,62.9c0.2-0.2,0.2-0.3,0.4-0.5c0.1-0.2,0.4-0.4,0.5-0.7l0.1-0.2c-0.1-0.2-0.1-0.4-0.1-0.4
        l-0.5,0c0.2-0.1,0.2-0.3,0.3-0.4c0.1,0.2,0.2,0.1,0.3,0.3c0.7-1.1,1.3-2.3,1.5-3.5c0-0.3,0.3-0.6,0.4-0.9c0-0.1,0.2-0.1,0.4-0.2
        c0.2,0.1,0.2,0.1,0.3,0.2c-0.1,0.2-0.1,0.5-0.5,0.2c0,0.3,0.1,0.5-0.1,0.6c0.3,0.2,0.2,0.3-0.1,0.4c-0.2,0.2-0.3,0.2-0.2,0.5
        c0-0.3,0.2-0.3,0.4-0.3c-0.3,0.5-0.4,1-0.6,1.6l-0.2,0L51,59.9c0.2,0.5-0.1,0.8-0.2,1.1c-0.3,0.3-0.6,0.8-0.9,1.1L49.4,63
        c0,0.3-0.5,0.3-0.8,0.2L48.8,62.9z M49.8,58.7c0,0,0-0.1-0.2-0.1c0,0.3-0.1,0.4-0.1,0.6C49.6,59,49.6,58.9,49.8,58.7z M51.2,57.3
        l0.1,0c0.1,0.2,0.1,0.2,0.1,0.3c0,0.4-0.1,0.5-0.3,0.9c0,0.2-0.1,0.2-0.3,0.1C50.9,58.1,51,57.8,51.2,57.3z M51.8,56.7
        c-0.3,0.1-0.4,0.2-0.5,0.2C51.3,56.6,51.4,56.5,51.8,56.7z M51.5,56.3l0.2-0.2c-0.3-0.1-0.3-0.1-0.4-0.1c0.4-0.2,0.5-0.4,0.8-0.6
        c0.1,0.2,0.1,0.3,0.1,0.3c0.1-0.3,0.1-0.4,0.2-1c-0.1,0.2-0.3,0.2-0.5,0.2c0.2-0.3,0.3-0.3,0.7-0.4l-0.1-0.2
        c0.1-0.4,0.4-0.4,0.8-0.3l0,0.2c-0.2,0.5-0.4,1-0.5,1.6c-0.1,0.2-0.3,0.6-0.6,0.5C52.1,56.4,51.8,56.5,51.5,56.3z M52.2,54.2
        c0-0.3,0.1-0.4,0.5-0.7c-0.2,0.4-0.2,0.7-0.4,0.9c0,0,0.1,0.2,0,0.2C52.2,54.6,52.2,54.4,52.2,54.2z M52.9,39.5l-0.2,0
        c0,0.3-0.3,0.4-0.5,0.6C52.4,39.9,52.6,39.8,52.9,39.5z M52.6,26.9c0,0.1-0.1,0.1,0,0.3c-0.2,0.1-0.2,0.3,0.1,0
        C53.2,27.1,52.6,27,52.6,26.9z M53,52.5l-0.4,0.7C52.6,52.6,52.5,52.5,53,52.5z M52.8,53.8c0-0.1,0.2-0.1,0.2-0.1
        c-0.2-0.2-0.4-0.3-0.1-0.3c0.1-0.2,0.1-0.3,0.1-0.6c0.2-0.3,0.2-0.6,0.3-1c0-0.2,0.1-0.2,0.1-0.2c0.1,0,0.4,0,0.5-0.1
        c0.1,0.3,0.1,0.4-0.1,0.4c-0.2,0.3-0.5,0.3-0.4,0.5l0.3,0c0.2,0,0.3,0,0.2,0c0.1,0.2,0,0.3-0.2,0.5c-0.1,0.4-0.1,0.7-0.3,1
        C53,53.8,52.9,53.8,52.8,53.8z M52.8,51.6c0-0.1-0.2-0.3,0-0.5c-0.1-0.1,0-0.3,0-0.3c0.2-0.1,0.2-0.1,0.3-0.3L53,50.5l-0.1-0.2
        c0.2-0.2,0.3-0.3,0.4-0.6c0,0,0.2,0,0.2,0.2c-0.2,0.5-0.4,1.1-0.4,1.8C52.9,51.7,52.8,51.7,52.8,51.6z M53.5,47
        c0.1-0.2,0.2-0.3,0.2-0.5c0.3-0.1,0.2-0.3,0.3-0.5c-0.4-0.1-0.4-0.1,0-0.5c-0.1-0.1-0.3-0.5,0-0.6c0.1-0.4,0.1-0.6,0-1
        c0.1-0.2,0.1-0.3,0.1-0.5c0-0.2,0-0.3,0-0.3c-0.1-0.2,0.1-0.4,0.1-0.4s0.2-0.2,0-0.3c-0.1-0.3,0.2-0.5,0.1-0.8
        c0.1-0.4,0.3-0.4,0.1-0.9c0-0.1,0-0.3,0.2-0.4L54.4,40c0-0.4,0.1-0.7,0-1.1c0-0.2-0.2-0.2-0.2-0.2c0,0.2-0.1,0.4-0.1,0.4
        c0.1,0.2,0.1,0.2,0,0.5c0,0.3-0.1,0.4,0,0.6c0,0.1,0,0.3-0.3,0.4c0.1,0.5-0.2,0.7-0.1,1.2c-0.1,0.2,0,0.5-0.1,0.8
        c-0.1,0.4,0,0.6,0,1c0,0.3,0,0.3-0.3,0.3c0,0.2,0.3,0.3,0.3,0.3c-0.3,0.3-0.2,0.9-0.3,1.2C53.5,46,53.3,46,53,46
        c0.1,0,0.2,0.2,0.3,0.3c0,0.2,0,0.4-0.1,0.5l0.1,0.2L53.5,47z M53.3,26.5c0,0.1,0.2,0.1,0.4,0c0-0.1,0.1-0.5,0.5-0.4
        c0,0,0.2,0,0.2-0.1c0.2-0.2,0.2-0.6,0.3-0.8c0,0,0-0.2-0.1-0.2c-0.2,0.2-0.2,0.6-0.5,0.8c-0.1,0.2-0.1,0.2-0.4,0
        c-0.1,0-0.3,0-0.4,0.2c-0.2,0-0.2,0.4-0.2,0.4c0,0.1,0,0.2,0,0.3C53.1,26.6,53.1,26.6,53.3,26.5z M53.2,51.4c0.4-0.4,0-1,0.4-1.5
        c0-0.2-0.1-0.4-0.1-0.5c0,0-0.1,0-0.1,0.2l-0.2,0l0-0.1c-0.1-0.2-0.1-0.2-0.1-0.4c0.1-0.2,0.3-0.3,0.4-0.4c0.1,0.1,0.1,0.2,0.1,0.2
        c0,0.2,0,0.4,0.2,0.6c-0.1-0.4,0.1-0.7,0-1.2c0-0.1,0-0.4,0-0.5c0.3,0,0.3-0.2,0.6-0.2c-0.1,0.1,0,0.3-0.1,0.5c0,0,0.1-0.2,0.4-0.2
        c0,0.5,0.1,0.9-0.2,1.3c0,0.2-0.1,0.3-0.1,0.3c0,0.4-0.1,0.7,0,1.1l-0.4,0c0,0,0.1,0.1,0.2,0c-0.1,0.2-0.3,0.3-0.4,0.7l0.2,0
        l0.1-0.3l0,0.6C53.7,51.5,53.5,51.5,53.2,51.4z M53.5,47.9c0,0-0.1-0.2,0.1-0.3c0,0,0-0.1,0.1-0.2c0,0,0.1,0.2,0.1,0.3
        c0,0.2-0.1,0.4-0.2,0.7c0,0-0.2,0-0.4,0.1C53.2,48.3,53.4,48.2,53.5,47.9z M54.9,35.2c0-0.4,0.4-0.9,0-1.4c0.1-0.5,0.1-1.1,0.2-1.6
        c0-0.4,0.1-0.8,0.2-1.3c0-0.4-0.1-0.8-0.1-1.4l0-0.4c-0.1,0.4-0.1,0.9-0.2,1.2c-0.1,1-0.1,2-0.2,3l-0.1,0.2c0,0.1,0.1,0.3,0,0.5
        c-0.2,0.2,0,0.3,0.1,0.5l0,0.1c-0.2,0.3-0.1,0.8-0.3,1.3C55,35.7,55.1,35.4,54.9,35.2z M54.9,36.4c-0.4,0.1-0.5,0.1-0.5,0.3
        C54.5,36.6,54.7,36.6,54.9,36.4z M55.5,35.4c0-0.3-0.1-0.7,0-0.8l-0.1,0c0,0.2-0.2,0.5-0.2,0.8L55.5,35.4z M55.4,33.9
        c0,0-0.1,0.2,0,0.5C55.6,34.2,55.6,34.1,55.4,33.9z M60.6,32.8c-0.1-0.2-0.1-0.2-0.1-0.4c-0.7,0.5-1.7,1-2.4,1.5
        c-0.7,0.4-1.3,1.4-2.2,1.7c0.2,0.2,0.3,0.4,0.3,0.4C58.1,34.9,59.2,33.8,60.6,32.8z"/>
      <path fill="#282828" d="M91.2,37.8c-0.4-0.1-0.9-0.1-1.3-0.2l-2.2-0.8c-0.9-0.3-1.6-0.7-2.5-1.3c-0.4-0.3-0.9-0.6-1.3-0.9l-0.3,0.5
        l-0.5,0.8c0,0.1-0.4,0.5-0.6,0.8l-0.6,0.7c-0.6-0.2-1.2-0.6-1.6-1.1l0.1-0.4l0.2-0.6l0.5-0.8l1-1.6l0.3-0.6l1.3-2l0.4-0.6
        c-0.3-0.1-0.4-0.1-0.6-0.2l-1.7-0.4c-0.3-0.1-0.6-0.2-0.9-0.4l-1.2-0.5l-1.1-0.7c-0.8-0.6-1.7-1.3-2.4-2.1c-0.8-1-1.3-2-1.7-3.2
        c-0.1-0.5-0.2-0.9-0.2-1.4c-0.1-0.4-0.1-0.7-0.1-1c0-0.9,0.2-1.7,0.5-2.7c0.1-0.3,0.3-0.8,0.5-1c0.2-0.3,0.2-0.7,0.6-0.9
        c0,0.1,0,0.2,0,0.2c0,0,0,0.1,0.1,0l0.1-0.2c0.4-0.7,0.8-1.3,1.4-1.8c0.4-0.3,0.8-0.8,1.2-1.1c0.4-0.4,1.1-0.7,1.6-1.1
        c0.3-0.2,0.5-0.4,0.8-0.5c0.4-0.3,0.8-0.4,1.1-0.6l0.3-0.2l1.2-0.6l0.3-0.2l0-0.2l-2.1,1c-0.1,0-0.1,0-0.1-0.1
        c0.1-0.1,0.2-0.1,0.3-0.1l2-1c0.5-0.3,0.9-0.5,1.4-0.8c0.3-0.1,0.5-0.1,0.7-0.2l0.4,0c0.9-0.3,1.3-0.5,2-0.6
        c0.6-0.1,1.2-0.3,1.8-0.4c0.7-0.1,1.5-0.2,2.2-0.2c1-0.1,1.9-0.1,2.8-0.1c0.6,0,1.5,0.2,2,0.2l0.1-0.1c0.1-0.3,0.3-0.6,0.5-0.9
        c0.2-0.2,0.4-0.2,0.5,0L98.9,6c0.1,0,0.2,0.1,0.3,0.1c0-0.1,0.4,0.1,0.4,0.1c0.2,0.2,0.3,0.3,0.3,0.4c0,0.2-0.2,0.7-0.3,0.9
        c0.4,0.2,0.8,0.4,1.2,0.6c0.4,0.2,0.8,0.4,1.1,0.7c0.9,0.7,1.7,1.4,2.5,2.2c0.5,0.4,0.8,1,1.2,1.5c0.4,0.6,0.9,1.2,1.2,1.8
        c0.4,0.7,0.6,1.5,0.8,2.3l0.5,1.7c0.1,0.3,0,0.4-0.2,0.6c0.1,0,0.2,0,0.2,0c0.1,0,0.2,0,0.2,0.1c0,0-0.1,0.1-0.1,0.2
        c0,0.1-0.1,0.2-0.1,0.2c0.2,0.2,0.1,0.4,0.2,0.6c0,0.2,0,0.3-0.1,0.4c0.3,0.6,0.3,1.1-0.1,1.7c0.4,0.1,0.4,0.2,0.3,0.6
        c0,0.1,0,0.2-0.1,0.3l-0.1,0.4c0.1,0,0.2,0.2,0,0.3c0.2,0.2,0.2,0.4,0,0.5c-0.1,0,0,0.1-0.2,0.1c0.4,0.2,0.1,0.4,0.1,0.7l-0.2-0.2
        c0,0.2,0,0.3,0,0.5c0,0.1-0.1,0.2-0.3,0.2c-0.1,0-0.1-0.1-0.2-0.1l0.1-0.2c0.3-0.1,0.2-0.4,0-0.7c0.1,0,0.2,0,0.2-0.1
        c0-0.2-0.1-0.4-0.1-0.6l0.2,0.1c0-0.1,0-0.1,0-0.1c-0.1-0.3,0-0.4,0-0.6c0.1-0.3,0.1-0.6,0.1-0.9l0-0.5c0-0.1,0-0.1-0.1-0.3l-0.1,0
        c-0.1,1-0.1,1.9-0.2,2.8c0,0-0.9,2.5-1,2.8c0,0.1-0.7,1.8-1.2,2.4l-0.4,0.7l-0.4,0c0.2-0.3,0.4-0.6,0.5-0.9c-0.2,0.1,0-0.3,0.1-0.2
        c0.2-0.3,0.7-1.2,1-2.2l0.8-2.5l-0.1,0.2c-0.1,0.2-0.5,0.3-0.5,0.6c0,0.1-0.2,0.1-0.2,0.1c-0.1,0-0.1,0-0.1,0
        c0.2-0.2,0.3-0.4,0.4-0.7c0-0.1,0-0.1,0-0.1c0-0.4,0.4-0.6,0.3-1c-0.1-0.3,0.1-0.6,0.1-1c0.1-0.1,0-0.2,0-0.3
        c0.2-0.5,0.2-1.1,0.3-1.7c0-0.1,0-0.2,0-0.4l-0.1,0l-0.1,0.6c-0.1,0.4-0.2,0.7-0.3,1.1c-0.1,0.5-0.1,1-0.2,1.5c0,0.3,0,0.7-0.3,1
        c-0.1,0.1,0,0.2-0.1,0.2c0,0.2,0,0.3-0.1,0.3c-0.3,0.1-0.2,0.4-0.4,0.6c0.2,0.1,0.4,0.2,0.2,0.4c-0.2,0.1-0.2,0.2-0.4,0.3
        c0.2-0.1,0.5-0.1,0.6-0.2c0,0.3-0.1,0.6-0.2,0.8c-0.1,0.3-0.3,0.6-0.4,0.9c-0.1,0.2-0.5,0.3-0.7,0.5c0,0,0-0.1-0.1,0
        c0.1-0.2,0.2-0.5,0.3-0.6c0-0.1-0.1,0-0.1,0c-0.1,0.3-0.4,0.5-0.4,1c0,0.1,0,0.2-0.1,0.2c-0.3,0.1-0.4,0.4-0.6,0.7l-0.7,0.9
        c-0.1,0-0.1,0-0.1,0c0-0.1,0-0.2,0.1-0.3c0.3-0.4,0.6-0.9,0.8-1.4c0.5-0.9,0.9-1.7,1.2-2.6c0.3-0.5,0.4-1.1,0.5-1.7
        c0.1-0.5,0.2-1.1,0.3-1.6c0-0.4,0-0.8,0-1.2c0-0.2,0-0.5,0.1-0.7c0-0.2-0.1-0.3-0.1-0.4c-0.1-0.4,0-0.8-0.1-1.2c0-0.5,0-1-0.2-1.5
        c-0.2-0.4-0.1-0.9-0.4-1.3c-0.2-0.4-0.3-0.8-0.4-1.2l-0.2-0.4l0-0.2l0.1,0l0.2,0.3c0-0.3-0.1-0.4-0.3-0.4c-0.2,0-0.3-0.3-0.4-0.4
        l-1.2-1.7c-0.2-0.3-0.5-0.6-0.6-0.8l-0.3-0.3c-0.6-0.5-1.2-1-1.8-1.5c-0.1,0-0.1,0-0.1-0.1c0.4,0,0.5,0.3,0.8,0.4
        c0.3,0.2,0.6,0.4,0.9,0.6c0-0.1,0-0.2,0-0.3l-1-0.7c-0.2-0.1-0.4-0.2-0.5-0.3c-0.3-0.3-0.9-0.5-1.4-0.7l-0.2,0
        c0.2,0.1,0.3,0.2,0.4,0.3l0,0.1c-0.2-0.1-0.4-0.2-0.6-0.2c-0.2,0.3-0.4,0.7-0.6,1c-0.3,0.4-0.5,0.9-0.9,1.4
        c-0.3,0.6-0.6,1.1-0.9,1.7c-0.1,0.3-0.3,0.4-0.4,0.6l-0.1,0.3c-0.2,0.4-0.4,1-0.6,1.3c-0.3,0.3-0.4,0.8-0.7,1.2l-1,1.7
        c-0.3,0.7-0.7,1.4-1,2c-0.1,0.2-0.1,0.4-0.4,0.5l0,0.2c-0.1,0.3-0.3,0.5-0.4,0.8c-0.1,0.3-0.3,0.5-0.5,0.8
        c-0.2,0.2-0.2,0.4-0.4,0.5c-0.1,0.3-0.3,0.4-0.4,0.7c-0.2,0.2-0.3,0.4-0.4,0.7L89.7,25c-0.1,0.3-0.4,0.5-0.6,0.8
        c-0.1,0.3-0.2,0.4-0.3,0.6L88.4,27c0,0.1,0,0.2-0.1,0.4c-0.3,0.4-0.6,0.9-0.8,1.4c-0.1,0,0,0.1-0.2,0.1c1.5-0.1,2.8-0.3,4.2-0.5
        c0,0.1,0,0.1,0.1,0.2c-0.2,0-0.4,0-0.5,0.1c-0.2,0-0.4,0.1-0.5,0.1l0.1,0c0.5-0.1,0.9-0.1,1.5-0.2c-0.1,0-0.2-0.1-0.2-0.1l0-0.1
        l1.5-0.3c0,0.1,0,0.1,0.1,0.1c-0.4,0.1-0.7,0.1-1.1,0.3l0,0.1l1.1-0.3l1.2-0.2c0.4-0.1,0.7-0.1,1.1-0.2c0.2,0,0.4-0.2,0.7-0.3
        c0.2-0.1,0.4-0.1,0.7-0.1c0.1,0,0.2,0.1,0.3,0.1l0,0.2l-1.1,0.2c-0.1,0-0.2,0-0.3,0.1c-0.1,0.3-0.5,0.3-0.7,0.4l-1.5,0.5
        c-1,0.2-2,0.4-3.1,0.5c-0.6,0-1.3,0.4-1.9,0.4c-0.2,0-0.3,0-0.5,0c0-0.1,0.1-0.1,0.2-0.1l-0.1-0.1c-0.5,0.3-1.1,0.2-1.6,0.4
        l-0.1,0.2c-0.1,0.3-0.2,0.3-0.4,0.7c-0.2,0.2-0.4,0.5-0.6,0.8c-0.2,0.5-0.4,0.8-0.7,1.3l-0.7,1c0.3,0.3,0.8,0.8,1.3,1.1
        c0.6,0.4,1.5,0.8,2,1c0.6,0.2,1.2,0.4,1.8,0.5c1,0.2,1.6,0.2,2.5,0.1l1.8-0.3c0.5-0.1,0.9-0.1,1.4-0.3c0.6-0.1,1-0.3,1.5-0.5
        c0.2-0.1,0.4,0,0.6,0l0-0.2c0.3,0,0.4-0.1,0.6-0.1l0,0.1l-0.4,0.2l0,0.1l0.7-0.2c-0.1,0-0.1-0.1-0.1-0.2l0-0.2
        c0.3,0.3,0.5,0,0.7-0.1c0.2-0.1,0.4-0.2,0.6-0.4l0-0.1c-0.3,0.1-0.5,0.3-0.8,0.4c0,0.1-0.2,0.1-0.2,0.1l0.1-0.3
        c0.4-0.3,0.8-0.6,1.3-1l0.8-0.6l0.1,0c0.3,0.2,0.4,0,0.6-0.1c0.1-0.1,0.3-0.1,0.4-0.2c0.1-0.1,0.2-0.2,0.2-0.3
        c0-0.2,0.1-0.3,0.2-0.4c0.1-0.1,0.1-0.3,0.3-0.4c0.1-0.1,0.2-0.1,0.3-0.1c0,0.1-0.1,0.1-0.1,0.3c0.2,0,0.3-0.1,0.4-0.4
        c-0.2,0-0.3,0-0.4,0l0.3-0.3c0.1,0,0.2,0.1,0.2,0.2c0-0.1,0-0.1,0-0.1c0-0.1-0.1,0-0.1-0.2c0.4,0.1,0.5-0.1,0.6-0.3
        c0.1-0.2,0.3-0.3,0.5-0.5c0,0.1,0.1,0,0.1,0l-0.5,0.8l0,0.1c0.2-0.1,0.4-0.1,0.5-0.1c0,0.6-0.5,1.1-0.9,0.9l0.7-0.5
        c-0.3-0.2-0.4-0.2-0.5,0c0,0.1,0,0.1,0,0.1c-0.2,0.1-0.3,0.1-0.2,0.3c0.1,0-0.1,0.2-0.1,0.2c0.1,0,0.2,0,0.5,0.1
        c-0.4,0.2-0.6,0.5-0.8,0.7c0,0.1,0,0.1,0.1,0c0.4-0.1,0.8-0.6,1.1-0.9c0.3-0.2,0.5-0.7,0.9-1c0,0.1,0,0.1-0.1,0.3l0.5-0.5
        c0-0.1,0-0.2,0-0.3c0.1,0,0.2-0.1,0.2-0.1c0-0.1,0-0.3,0-0.4c0-0.1,0.1-0.3,0.4-0.2c0.1-0.2,0.2-0.4,0.3-0.6c0.4-0.2,0.3-0.7,0.6-1
        c0-0.1,0.2-0.1,0.3-0.1c0,0,0,0.1,0.1,0l-0.4,0.9c0,0,0,0.1,0.1,0c0.1-0.2,0.3-0.4,0.4-0.6c0,0.1,0,0.3,0,0.5l-0.2,0l0.2,0.1
        l-0.3,0.2c0.3,0.3-0.1,0.5-0.2,0.7l-0.2-0.2c0-0.2,0.2-0.3,0.4-0.2c-0.1-0.1-0.1-0.2-0.2-0.3l-1.8,2.5c0.1,0,0.2,0.1,0.3,0.2
        l0.2-0.3c0.1,0,0.1,0,0.2,0c-0.2,0.1-0.2,0.3-0.3,0.4l-0.1-0.1c-0.2,0.1-0.4,0.2-0.6,0.5c-0.1,0.1-0.2,0.2-0.4,0.3l0-0.1l0.7-0.8
        c0-0.1-0.1-0.1-0.1-0.2c-0.2,0.2-0.4,0.4-0.7,0.7l0.1,0c-0.1,0.1-0.2,0.1-0.3,0.1c-0.3,0.2-0.4,0.4-0.7,0.5
        c-0.4,0.3-0.8,0.5-1.1,0.6c-0.3,0.2-0.7,0.4-1,0.5c-0.2,0.1-0.2,0.3-0.3,0.4c-0.2,0.1-0.2,0.3-0.4,0.1c0-0.1-0.2,0.1-0.2,0.1l0,0.2
        c0.3-0.1,0.5,0,0.7-0.2c0.5-0.2,0.9-0.5,1.3-0.7c0.1,0,0-0.1,0.1-0.1c0.5,0,0.7-0.3,1-0.6c0.2-0.2,0.5-0.3,0.8-0.5
        c0,0.1,0,0.1,0,0.2c0.1-0.2,0.4-0.3,0.6-0.5c0,0.1,0,0.1,0.1,0.1c-0.3,0.1-0.4,0.5-0.8,0.4c-0.3,0-0.4,0.3-0.4,0.4
        c-0.2,0.4-0.4,0.7-0.8,0.9l-1.4,0.5l-0.7,0.4c-0.4,0.2-0.7,0.2-1.1,0.3c-0.1,0-0.1,0-0.2,0.1l0.3,0l0.1,0.1
        c-0.7,0.1-1.2,0.5-1.9,0.5c-0.3,0-0.5,0.2-0.8,0.4c0.9-0.1,1.9-0.1,2.9-0.4l0,0.1c-0.4,0.2-0.8,0.3-1.3,0.5c-0.2,0-0.5,0-0.8-0.1
        c0.1,0.2-0.2,0.3-0.8,0.3l0.5-0.2c-0.1,0-0.1,0-0.1,0l-0.7,0.2c-0.5,0-1,0.1-1.6,0c0.3,0.3,0.7,0.2,0.9,0.3
        c-0.4,0.1-0.9,0.3-1.4,0.2c-0.2,0-0.5,0-0.8,0l-0.6,0l0,0.1l0.6,0.2l0,0.1l-0.4,0C92.3,38,91.7,37.9,91.2,37.8z M84.8,28.6
        c0.4-0.8,0.9-1.4,1.3-2.1c0.3-0.5,0.6-1,0.9-1.5c0-0.1,0.2-0.2,0.3-0.2c0.5,0,0.5,0,0.7-0.4c0,0.1-0.2,0.1-0.2,0.2
        c0-0.1,0-0.1-0.1,0c0.1-0.2,0.1-0.3,0.2-0.5c-0.1,0.2-0.3,0.4-0.4,0.5c-0.1,0-0.1,0-0.1,0c1.8-3.2,3.6-6.5,5.5-9.7c0,0,0.1,0,0.1,0
        c0,0.1-0.1,0.3-0.2,0.5c0.2-0.1,0.3-0.1,0.3-0.1l0-0.4c0-0.1,0.1-0.2,0-0.2c-0.2-0.3,0-0.4,0-0.6l2-3.7c0.1-0.2,0.3-0.4,0.4-0.7
        c0.1,0.1,0.1,0.2,0.1,0.2l0.6-0.9C96,9,96,9,95.8,9c0.4-0.4,0.3-1,0.9-1.2C95,7.6,94,7.5,91.9,7.9c-1,0.2-1.6,0.4-2.3,0.6
        c-0.8,0.2-1.4,0.6-2,0.8c-0.3,0.1-0.5,0.1-0.7,0.2l-0.4,0.2c-0.2,0.1-0.3,0.2-0.5,0.3c-0.3,0.2-0.6,0.2-0.9,0.4
        c-0.5,0.3-1.1,0.5-1.4,1c0,0.1-0.2,0.1-0.3,0.1c-0.2,0.1-0.3,0.1-0.3,0.2l-0.4,0.3c-0.7,0.5-1.4,0.7-2.1,1.4
        c-0.5,0.5-1.2,0.8-1.6,1.4c0,0.1-0.2,0.1-0.3,0.1c0.1-0.2,0.1-0.3,0.2-0.4l-0.1,0c-0.2,0.2-0.4,0.4-0.6,0.6l0.3,0l-0.5,0.8
        c-0.3,0.4-0.6,0.7-0.8,1c-0.3,0.5-0.4,1-0.6,1.5l-0.2,0.4l-0.2-0.2c0,0.1-0.1,0.2-0.2,0.3c0.5,0.1,0.5,0.3,0.2,0.7
        c0,0.1-0.1,0.3,0,0.5c0,0.2-0.1,0.4-0.3,0.4l-0.2,0c0,0,0,0.1,0,0.1c0.2,0,0.4,0.1,0.6,0.2l-0.4,0.2c0.2,0.1,0.3,0.2,0.3,0.3
        c0,0.2,0,0.3,0,0.6c0,0.2,0,0.4,0,0.6c-0.2-0.1-0.3-0.2-0.4-0.3c0.1,0.3,0.1,0.5,0.1,0.7l0.1,0c0-0.3,0.2-0.3,0.5-0.3
        c-0.1,0.2-0.2,0.5-0.3,0.7l0.1,0l0.4,0.2l-0.4,0.2c0.5,0,0.5,0,0.6,0.6l0,0.1c0.3,0.2,0,0.3-0.2,0.3c0.3,0.1,0.5,0.2,0.4,0.5
        l0.4,0.1c0,0.2,0.2,0.4,0.3,0.5c0.1,0.2,0.2,0.4,0.2,0.5c0.2,0.1,0.4,0.2,0.5,0.3c0.2,0.1,0.4,0.4,0.7,0.6c0.3,0.3,0.7,0.5,1,0.7
        l0.9,0.4c0.7,0.3,1.3,0.4,2,0.6c0.5,0.1,0.9,0.1,1.3,0.2C84.5,28.7,84.7,28.7,84.8,28.6z M76.4,14.1c0.2-0.3,0.4-0.5,0.6-0.7
        c0.1,0,0.1,0,0.1,0.1c-0.1,0.2-0.4,0.4-0.5,0.7C76.5,14.1,76.4,14.1,76.4,14.1z M77.6,12.7c0.3-0.2,0.5-0.4,0.8-0.6l0.1,0.1
        c-0.3,0.2-0.5,0.4-0.7,0.6C77.7,12.8,77.7,12.7,77.6,12.7z M80.4,10.6l0.8-0.4c0,0,0.1,0,0.1,0l-0.8,0.4
        C80.4,10.7,80.4,10.6,80.4,10.6z M83,8.9c0.4-0.1,0.7-0.4,0.9-0.5c0.1,0,0.1,0,0.1,0c-0.3,0.1-0.7,0.4-1,0.5
        C83.1,8.9,83,8.9,83,8.9z M94.3,27.8l1.3-0.3l0,0.1c-0.5,0.2-0.9,0.3-1.3,0.3C94.3,27.8,94.3,27.8,94.3,27.8z M97.6,26.6
        c-0.1,0.3-0.3,0.4-0.6,0.2L97.6,26.6z M98,27.2c0.2-0.1,0.5-0.2,0.8-0.3l0,0.1L98,27.2L98,27.2z M99.7,8.7c0-0.1,0-0.1,0-0.1
        l0.8,0.4c0,0.1,0,0.1,0,0.1L99.7,8.7z M99.8,36.1c0.2-0.1,0.4-0.2,0.6-0.3c0,0.1,0.1,0,0.1,0.1c-0.2,0.1-0.4,0.2-0.6,0.3
        C99.9,36.2,99.9,36.1,99.8,36.1z M103.4,30.1c-0.2,0.6-0.2,0.6-0.5,0.6L103.4,30.1z M104.1,30c0.2-0.3,0.5-1.2,0.7-1.1
        c0.2-0.3,0.4-0.7,0.5-1l0.3-0.1c-0.2,0.5-0.5,1-1.4,2.3L104.1,30z M104.3,30.6l0.3-0.4c0.1,0.3,0,0.4-0.2,0.5
        C104.4,30.7,104.3,30.6,104.3,30.6z M106,30.1l0.2,0.2c0,0.1,0,0.1-0.5,0.2C105.8,30.3,105.9,30.2,106,30.1z M107.1,27.9
        c-0.1,0-0.2,0.1-0.3,0.1c0-0.1-0.1,0-0.1,0c0-0.2,0.1-0.3,0.2-0.5s0-0.3,0-0.5c0-0.3,0-0.4,0.3-0.6c0.2-0.1,0.3-0.2,0-0.4
        c0.1,0,0.2-0.1,0.3-0.1l0-0.6c0.2,0,0.4,0,0.6,0c0-0.1,0.1-0.3,0.1-0.5c0,0.5-0.2,1-0.4,0.9l0,0.1c0.3,0.3,0,0.7-0.1,1
        c-0.1,0.5-0.4,0.9-0.6,1.3c0,0.1-0.1,0.2-0.2,0.3L107.1,27.9z"/>
      <path fill="#282828" d="M122.7,22.2c0,0.1-0.2,0.1-0.2,0.1c-0.1,0-0.2,0-0.3,0.1c0.1,0,0.2,0.1,0.3,0.1c0,0.1-0.2,0.1-0.2,0.3
        c0,0.1-0.2,0-0.3,0c0.1,0.2,0,0.4-0.2,0.5c-0.1,0.2-0.2,0.3-0.5,0.2c-0.1-0.1,0-0.3-0.1-0.4l-0.1,0c0,0.1,0,0.1,0,0.1
        c0,0.2,0,0.3-0.2,0.3c-0.1,0-0.2,0.1-0.2,0.2c0,0.1,0,0.3,0,0.3c0.2,0.1,0.1,0.2,0,0.3l-0.5,0.6c0,0-0.1,0-0.1,0l0.2-0.3
        c0,0,0-0.1,0-0.1c-0.5,0.3-0.8,0.7-0.7,1c0-0.1,0.1-0.2,0.1-0.2c0.2,0,0.3-0.1,0.4-0.1c0,0.1,0.1,0.2,0,0.3c-0.2,0-0.3,0-0.4,0.1
        c0.1,0,0.1,0.1,0.1,0.2c0.2-0.1,0.3-0.2,0.5-0.3c0-0.3,0.2-0.5,0.3-0.7c0.5-0.4,0.9-1,1.3-1.5c0.1,0,0.1-0.1,0.2-0.1l0.1,0
        c-0.3,0.4-0.6,0.9-1,1.4c-0.2,0.3-0.5,0.6-0.8,0.8c-0.1,0.2-0.2,0.3-0.3,0.5c0,0.1-0.1,0.2-0.1,0.3c0.1-0.2,0.3-0.3,0.5-0.4
        c-0.1,0.3-0.4,0.5-0.7,0.8c0,0.1-0.1,0.2-0.1,0.3c0.1,0,0.1,0,0.1,0c0.2-0.1,0.3-0.3,0.5-0.5c0,0.1,0.1,0.2,0,0.2
        c-0.2,0.2-0.4,0.4-0.5,0.7c-0.1,0.1-0.1,0.3-0.2,0.4l-0.2,0.3c-0.4,0.3-0.7,0.7-1,1.2c-0.2,0.3-0.4,0.5-0.7,0.7
        c-0.2,0.2-0.5,0.3-0.8,0.4c-0.3,0.2-0.7,0.4-1,0.6c-0.4,0.1-0.7,0-1.1-0.1c-0.5-0.1-0.8-0.5-1.1-0.8c-0.1,0-0.1-0.2-0.2-0.3
        c-0.1-0.2-0.2-0.3-0.3-0.4c-0.1-0.2-0.2-0.3-0.3-0.5c-0.2-0.9,0-1.9,0.2-2.8c0.1-0.7,0.2-1.4,0.4-2.1c0.2-1,0.4-1.9,0.6-2.9l0-0.4
        c-0.1-0.2,0-0.4,0.2-0.4c0.2-0.1,0.3-0.2,0.5,0.1c0.2,0.3,0.5,0.4,0.7,0.6c0.2,0.1,0.5,0.3,0.6,0.5c0.1,0.2,0.1,0.5,0.1,0.8
        c0,0.3-0.1,0.6-0.2,0.9c-0.1,0.6-0.3,1.3-0.5,2c-0.1,0.2-0.2,0.4-0.2,0.6c0,0.1-0.1,0.2-0.1,0.3c0.2,0.5-0.1,1-0.1,1.5
        c0,0.5-0.1,1-0.1,1.5c0.6-0.2,1-0.4,1.4-0.8c0.8-0.8,1.7-1.6,2.4-2.4c0.8-0.8,1.5-1.7,2.2-2.4c0.6-0.6,1.2-1.2,1.9-1.9
        C122.9,21.4,123,21.7,122.7,22.2z M114.7,16.7c-0.3-0.3-0.5-0.8-0.4-1.3c0.2-0.8,0.8-1.2,1.4-1.6c0-0.1,0.3-0.1,0.3-0.1
        c0.6-0.1,0.9,0.1,1,0.4c0.2,0.5,0.4,1.1,0.3,1.7c-0.2,0.6-0.6,0.9-1.1,1.3c-0.3,0.1-0.6,0.1-0.9-0.1
        C115.2,17,114.9,16.9,114.7,16.7z M119.5,25.6c-0.5,0-0.6,0.7-1,0.9l0,0.1l0.9-0.4c0-0.1-0.1,0-0.1-0.1c-0.1,0-0.1,0.1-0.2,0.1
        l-0.1,0C119.2,25.9,119.4,25.7,119.5,25.6z M120.9,25.4c0.1,0,0.1,0,0.1,0c0,0.2-0.1,0.3-0.2,0.5c-0.1,0-0.2-0.1-0.2-0.2
        L120.9,25.4z"/>
      <path fill="#282828" d="M122.3,28.8c-0.1-0.1-0.5-0.3-0.9-0.5c-0.5-0.6-0.7-1.3-0.5-2.1c0.1-0.4,0.2-0.6,0.3-1c0-0.1,0-0.1,0-0.1
        c0-0.3,0.2-0.6,0.3-1l0.3-0.6c0.2-0.3,0.3-0.5,0.4-0.7c0.5-0.9,1.2-1.6,1.7-2.4c0.6-0.7,1.4-1.4,2.4-1.6c1.1,0.1,2.4,0.3,2.7,1.5
        c0.2,0.7-0.2,1.2-0.4,1.8c0.4-0.1,0.8-0.5,1.4-0.5c0.3,0.1,0.5,0.3,0.7,0.7c0,0,0.1,0.6,0,1c0,0.1,0,0.2-0.1,0.3
        c-0.1,0.7-0.1,1.5,0.3,2.2c0.1,0.2,0.2,0.4,0.5,0.5c0.1,0,0.2,0,0.4,0c0.2-0.1,0.4-0.1,0.6-0.2c0.8-0.4,1.6-1.1,2.3-1.7
        c0.7-0.5,1.4-1,2.1-1.5c1.2-0.9,1.1-0.7,2.3-1.6c0.3-0.3,0.8-0.6,1.3-1l0.2,0.1l-0.4,0.7c0.1,0.3,0.1,0.3,0.4,0
        c0-0.1,0-0.3,0.2-0.2c-0.5,0.8-1.3,1.3-1.9,1.8c-0.2,0.2-0.6,0.4-0.8,0.5c-0.1,0.2-0.3,0.4-0.6,0.6c0,0.1-0.2,0.1-0.4,0.1
        c0,0,0-0.1-0.1-0.1c0.1,0,0.2-0.1,0.3-0.2c0.2-0.1,0.3-0.3,0.2-0.5c0-0.1-0.1-0.1-0.2-0.1c-0.4,0.2-0.7,0.5-1,0.8
        c-0.6,0.3-1.1,0.6-1.6,1.1c-0.2,0.1-0.3,0.2-0.5,0.3l0,0.1c0.2-0.1,0.3-0.1,0.4-0.2c0.2-0.2,0.4-0.2,0.5-0.1c0-0.1-0.1-0.1-0.1-0.2
        c0.4-0.2,0.6-0.1,0.9-0.4c0.3-0.2,0.7-0.4,0.9-0.6c0,0.1,0,0.3-0.2,0.4c-0.4,0.2-0.8,0.6-1.2,0.8c-0.1,0.1-0.2,0.2-0.3,0.3
        c-0.1,0.1-0.2,0.2-0.4,0.2c0.2,0,0.3,0,0.4,0l0,0.1c-0.1,0.1-0.2,0.1-0.4,0.1l0,0.2c0.3-0.2,0.6-0.4,0.9-0.5l0,0.1
        c-0.2,0.2-0.6,0.5-0.8,0.7c-0.4,0.5-0.9,0.6-1.4,1c-0.3,0.2-0.5,0.1-0.7,0.3c-0.1,0.1-0.4,0.2-0.5,0.2c-0.1,0-0.3,0.1-0.5,0.1
        c-0.2,0-0.7,0.1-0.9,0.1c-0.1,0-0.4,0-0.5-0.1c-0.2,0-0.3-0.2-0.4-0.3c-0.3-0.4-0.7-0.6-1-1c-0.3-0.3-0.3-0.4-0.5-0.7
        c-0.1,0-0.1-0.1-0.2-0.3c-0.4,0.2-0.3,0.8-0.7,0.8c-0.1,0.1-0.1,0.3-0.2,0.3c-0.6,0.5-1.4,1.2-2.2,1.7c-0.8,0.5-1.7,0.5-2.5,0.3
        C122.6,28.8,122.5,28.8,122.3,28.8z M124.6,26.9c0.7-0.3,1.1-0.7,1.6-1.3c0.7-0.9,1.1-1.5,1.8-2.4c0.1,0,0.2-0.3,0.2-0.3l-0.1,0
        c-1.2,0-0.9-2.4-0.8-2.4c-1.6,0.4-3.2,2.9-3.8,3.9c-0.4,0.9-0.8,1.8-1,2.8C123.1,27.2,124.1,27.1,124.6,26.9z M138,22.9
        c0-0.2,0.1-0.3,0.2-0.3c0-0.1,0.3-0.2,0.4-0.2c0.1-0.1,0.3-0.1,0.4-0.1l0-0.3c0.1-0.1,0.1-0.2,0.2-0.2c0-0.1,0-0.1-0.1-0.1
        c-0.1,0.1-0.3,0.3-0.6,0.5c-0.4,0.2-1,0.7-1.1,0.9c0.1,0,0.3,0.1,0.4,0.2C137.9,23.2,138,23,138,22.9z"/>
      <path fill="#282828" d="M138.6,29.4c-0.1-0.1-0.1-0.2-0.1-0.3c-0.4,0.1,0,0.4-0.1,0.5c-0.3,0-0.7-0.5-0.6-1
        c0.1-0.9,0.2-1.7,0.3-2.7c0.2-0.9,0.5-1.9,0.6-2.8c0.1-0.6,0.1-1.2,0.2-1.8c0-0.1,0-0.2-0.1-0.2c-0.2-0.1-0.1-0.5-0.1-0.8
        c0-0.4,0.1-0.5,0.4-0.4c0.7,0,1.1,0.4,1.5,0.9c0.1,0,0.1,0,0.1,0.1l-0.1,1.2c0,0.4-0.1,0.6-0.2,1c-0.1,0.4-0.1,0.7-0.2,1.1
        c0,0.1,0,0.1,0,0.2c0-0.1,0.1,0,0-0.1c0.5-0.8,1-1.6,1.6-2.2c0.3-0.4,0.6-0.8,1-1.1c0.3-0.2,0.3-0.2,0.8-0.3c0.4,0,0.5,0,0.7,0.1
        c0.2,0,0.3,0.1,0.4,0.2c-0.2,0-0.3,0.1-0.4,0.1l0,0.1c0.4,0,0.7,0.4,1.1,0.1c0.1,0.3,0,0.5,0.2,0.6c0.1,0,0,0.2,0,0.3
        c0.2,0.5,0.3,0.9,0.4,1.4c0,0.4,0,0.8,0,1.3c0,0.1,0.1,0.3,0,0.4c0.1,0.4,0.1,0.8,0.1,1.1l0.2,0.5c0,0.1,0.2,0.3,0.2,0.3l0.2,0
        c0-0.1,0.2-0.1,1.1-0.6c0.3-0.1,0.6-0.3,0.9-0.5c0.3-0.1,0.6-0.5,0.9-0.6c0.2-0.1,0.3-0.2,0.3-0.2c0.2-0.2,0.5-0.5,0.8-0.6
        c-0.1,0-0.2,0-0.1-0.1c-0.3,0.2-0.7,0.5-1,0.8c-0.1,0-0.1,0-0.1,0c1.8-1.6,3.3-3.6,4.6-5.5c0,0,0.1,0,0,0.1c0,0.1-0.2,0.3-0.2,0.4
        c0,0.1-0.2,0.3-0.1,0.5c0,0,0,0.1,0,0.1c-0.2,0.1-0.2,0.1-0.3,0.3l0.3,0c-0.2,0.1-0.3,0.4-0.4,0.6l0,0.7l0.1,0
        c-0.1,0.3-0.1,0.5-0.2,0.7c-0.1,0.2-0.3,0.5-0.5,0.7l-0.8,1.1c0,0.1,0,0.3-0.3,0.4c0,0,0,0.1,0.1,0.2c0,0.1-0.2,0.1-0.2,0.1
        c-0.2,0.4-0.6,0.8-0.9,1.2c-0.3,0.4-0.7,0.8-1.2,1.1c-0.7,0.6-1.6,0.6-2.4,0.8l-0.1,0c-0.4-0.1-0.5-0.1-0.8-0.4
        c-0.5-0.3-0.9-0.8-1.2-1.5c-0.3-0.9-0.6-1.9-0.5-3c0-0.3,0-0.6,0-0.9c-0.1-0.1-0.2-0.1-0.3-0.3c-0.1,0.6-0.3,0.8-0.7,0.8
        c-0.1,0.4-0.3,0.7-0.7,0.9c0.1,0.4-0.3,0.5-0.4,0.8c0,0.2-0.3,0.4-0.2,0.4c0.2,0.4-0.3,0.2-0.2,0.4c-0.1,0-0.1,0-0.2,0
        c0.1,0.3-0.2,0.5-0.4,0.6c0.1,0,0.1,0.1,0.1,0.2c0,0.1-0.1,0.1-0.1,0.1l0.2,0.1c-0.3,0.5-0.6,1-0.8,1.6c-0.2,0.3-0.4,0.4-0.7,0.5
        l-0.1,0.4c-0.1,0.1-0.1,0.1-0.1,0.2c-0.2,0.4-0.4,0.5-0.8,0.4C138.5,29.8,138.5,29.6,138.6,29.4z M141.5,23.2
        C141.5,23.2,141.5,23.2,141.5,23.2c0,0.2-0.1,0.3-0.2,0.4l0.1,0c0.2-0.1,0.3-0.2,0.5-0.3c-0.1-0.1-0.1-0.1-0.2-0.1
        c0.1-0.1,0.2-0.1,0.2-0.1c0.1-0.2,0.2-0.4,0.5-0.3c0.1,0,0.1-0.1,0.1-0.1c-0.1-0.3,0.1-0.4,0.2-0.6c0.1,0,0.2,0.1,0.2,0
        c0-0.1,0.1-0.2,0.3-0.3c-0.4,0-0.6,0-0.8,0.2l-0.6,0.7l-0.7,1c0,0,0.1,0,0.1,0.1L141.5,23.2z M142.7,23.2l0.2,0
        c0-0.2-0.1-0.3-0.2-0.4c0,0.2-0.5,0.2-0.2,0.5c-0.1,0.1-0.3,0.1-0.3,0.1c0,0.2,0,0.2,0.1,0.3C142.4,23.6,142.7,23.7,142.7,23.2z
         M151.1,24.6c0.2-0.2,0.4-0.4,0.6-0.7c0.1-0.2,0.3-0.3,0.4-0.5c0,0-0.1,0-0.1,0c-0.4,0.4-0.7,0.8-1.1,1.3c0.1,0,0.1,0,0.1,0
        S151.1,24.6,151.1,24.6z"/>
      <path fill="#282828" d="M153.5,26.9c-0.1-0.1-0.5-0.3-0.9-0.5c-0.5-0.6-0.7-1.3-0.5-2.1c0.1-0.4,0.2-0.6,0.3-1c0-0.1,0-0.1,0-0.1
        c0-0.3,0.2-0.6,0.3-1l0.3-0.6c0.2-0.3,0.3-0.5,0.4-0.7c0.5-0.9,1.2-1.6,1.7-2.4c0.6-0.7,1.4-1.4,2.4-1.6c1.1,0.1,2.4,0.3,2.7,1.5
        c0.2,0.7-0.2,1.2-0.4,1.8c0.4-0.1,0.8-0.5,1.4-0.5c0.3,0.1,0.5,0.3,0.7,0.7c0,0,0.1,0.6,0,1c0,0.1,0,0.2-0.1,0.3
        c-0.1,0.7-0.1,1.5,0.3,2.2c0.1,0.2,0.2,0.4,0.5,0.5c0.1,0,0.2,0,0.4,0c0.2-0.1,0.4-0.1,0.6-0.2c0.8-0.4,1.6-1.1,2.3-1.7
        c0.7-0.5,1.4-1,2.1-1.5c1.2-0.9,1.1-0.7,2.3-1.6c0.3-0.3,0.8-0.6,1.3-1l0.2,0.1l-0.4,0.7c0.1,0.3,0.1,0.3,0.4,0
        c0-0.1,0-0.3,0.2-0.2c-0.5,0.8-1.3,1.3-1.9,1.8c-0.2,0.2-0.6,0.4-0.8,0.5c-0.1,0.2-0.3,0.4-0.6,0.6c0,0.1-0.2,0.1-0.4,0.1
        c0,0,0-0.1-0.1-0.1c0.1,0,0.2-0.1,0.3-0.2c0.2-0.1,0.3-0.3,0.2-0.5c0-0.1-0.1-0.1-0.2-0.1c-0.4,0.2-0.7,0.5-1,0.8
        c-0.6,0.3-1.1,0.6-1.6,1.1c-0.2,0.1-0.3,0.2-0.5,0.3l0,0.1c0.2-0.1,0.3-0.1,0.4-0.2c0.2-0.2,0.4-0.2,0.5-0.1c0-0.1-0.1-0.1-0.1-0.2
        c0.4-0.2,0.6-0.1,0.9-0.4c0.3-0.2,0.7-0.4,0.9-0.6c0,0.1,0,0.3-0.2,0.4c-0.4,0.2-0.8,0.6-1.2,0.8c-0.1,0.1-0.2,0.2-0.3,0.3
        c-0.1,0.1-0.2,0.2-0.4,0.2c0.2,0,0.3,0,0.4,0l0,0.1c-0.1,0.1-0.2,0.1-0.4,0.1l0,0.2c0.3-0.2,0.6-0.4,0.9-0.5l0,0.1
        c-0.2,0.2-0.6,0.5-0.8,0.7c-0.4,0.5-0.9,0.6-1.4,1c-0.3,0.2-0.5,0.1-0.7,0.3c-0.1,0.1-0.4,0.2-0.5,0.2c-0.1,0-0.3,0.1-0.5,0.1
        c-0.2,0-0.7,0.1-0.9,0.1c-0.1,0-0.4,0-0.5-0.1c-0.2,0-0.3-0.2-0.4-0.3c-0.3-0.4-0.7-0.6-1-1c-0.3-0.3-0.3-0.4-0.5-0.7
        c-0.1,0-0.1-0.1-0.2-0.3c-0.4,0.2-0.3,0.8-0.7,0.8c-0.1,0.1-0.1,0.3-0.2,0.3c-0.6,0.5-1.4,1.2-2.2,1.7c-0.8,0.5-1.7,0.5-2.5,0.3
        C153.8,26.9,153.6,26.9,153.5,26.9z M155.7,25c0.7-0.3,1.1-0.7,1.6-1.3c0.7-0.9,1.1-1.5,1.8-2.4c0.1,0,0.2-0.3,0.2-0.3l-0.1,0
        c-1.2,0-0.9-2.4-0.8-2.4c-1.6,0.4-3.2,2.9-3.8,3.9c-0.4,0.9-0.8,1.8-1,2.8C154.3,25.4,155.2,25.3,155.7,25z M169.1,21.1
        c0-0.2,0.1-0.3,0.2-0.3c0-0.1,0.3-0.2,0.4-0.2c0.1-0.1,0.3-0.1,0.4-0.1l0-0.3c0.1-0.1,0.1-0.2,0.2-0.2c0-0.1,0-0.1-0.1-0.1
        c-0.1,0.1-0.4,0.3-0.6,0.5c-0.4,0.2-1,0.7-1.1,0.9c0.1,0,0.3,0.1,0.4,0.2C169.1,21.3,169.1,21.1,169.1,21.1z"/>
      <path fill="#282828" d="M200.3,33c-1.5-1.1-2.7-2.4-3.8-4c-0.5-0.8-0.9-1.6-1.5-2.4c0-0.2-0.1-0.5-0.1-0.5
        c-1.1-1.5-1.9-3.2-2.6-4.8c0-0.1,0-0.3,0-0.5c0-0.3,0.1-0.5,0.2-0.7c0.3-0.5,0.8-0.8,1.4-0.7c0.3,0,0.6,0.1,0.9,0.3
        c1-0.3,1.9-0.8,2.6-1.5c0.2-0.1,0.4-0.2,0.6-0.3c0.3-0.1,0.6-0.4,0.9-0.5c0.5-0.4,1-1,1.6-1.4c0.4-0.2,0.5-0.5,0.8-0.8
        c0.2-0.3,0.4-0.9,0.8-0.9c0.1,0,0.1-0.1,0.1-0.2c0.4-0.9,1.1-1.5,1.4-2.3c1-1.8,1.5-3.8,1-6c-0.4-1.3-1.1-2.4-2.2-3.3
        c-1.2-1-2.5-1.3-4.1-1.2c-0.8,0-1.6,0.1-2.4,0.4c-1,0.1-2,0.2-2.9,0.7c-0.4,0.1-0.6,0.3-1,0.4c-0.2,0.1-0.2,0.2-0.4,0.2
        c-1.1,0.4-2.1,1.3-3.3,1.9c0,0.1-0.2,0.1-0.3,0.1c-1.1,1-2.3,1.9-3.2,3.3c-0.4,0.7-0.8,1.2-1.3,1.9c-0.4,0.7-0.6,1.3-0.5,2.3
        c0.2,0.5-0.1,0.9-0.6,1.3c-0.1,0.2-0.6,0-0.7-0.1c-0.2-0.7-0.6-1.2-0.8-1.9c-0.1-0.4,0-1,0.2-1.4c0.2-0.5,0.5-1,0.8-1.5
        c1-1.3,2.1-2.4,3.2-3.4c1.2-1.1,2.5-2.1,4-3c1.5-0.9,3.1-1.5,4.8-1.9c1.3-0.3,2.7-0.4,4.1-0.5c0.9-0.1,1.9,0,2.8,0.4
        c1.3,0.6,2.5,1.3,3.6,2.6c0.6,0.6,0.9,1.3,1.3,2.2c0.6,1.5,0.6,2.9,0.4,4.6c-0.2,0.8-0.5,1.5-0.8,2.3c-0.6,1.5-1.7,2.7-2.7,3.7
        c-1.1,1.1-2.1,1.9-3.4,2.5c-1.2,0.7-2.5,1.4-4,2c0.3,0.6,0.8,1.2,0.7,1.8c0.1,0.3,0.2,0.5,0.5,0.8c-0.1,0.3,0,0.4,0.1,0.7
        c0.3,0.4,0.5,0.9,0.8,1.3c0,0.1,0,0.1,0,0.1c0.1,0.2,0.2,0.5,0.2,0.6c0.9,1.7,2,3.3,3.2,4.8c1.6,1.7,3.5,2.5,5.7,2.8
        c1.3,0,2.1-0.2,2.9-0.9c0.3-0.2,0.5-0.5,0.8-0.8c0.1,0.3,0,0.5-0.1,0.6c-0.7,0.9-1.4,1.7-2.6,2.1C205,35,202.5,34.4,200.3,33z
         M185.7,32.1c-0.4-0.8-0.8-1.7-0.8-2.6c0-0.2-0.1-0.5-0.2-0.8c0.2-0.1,0.4-0.2,0.5-0.3c0-0.3,0.1-0.5,0.1-0.8c0-0.1,0-0.2-0.1-0.3
        c0.1,0.1,0.1,0.2,0.1,0.3c-0.2,0.1-0.3,0.2-0.4,0.2c-0.1-0.7-0.1-0.7,0.2-1.1c0.4-0.6,0.5-1.3,0.5-2c-0.1-0.2,0-0.3,0.1-0.6
        c0.3-0.9,0.7-1.9,0.8-2.9l0,0.1c0.3-0.6,0.7-1.4,0.7-2c0.4-0.7,0.7-1.3,0.8-2c-0.3-0.7,0-1,0.3-1.5c0.3-0.5,0.4-1.1,0.7-1.8
        c0.4-1.5,1-2.9,1.4-4.5c0.2-0.4,0.2-0.7,0.3-1.3c-0.2-0.5-0.5-1.1-0.3-1.9c0.9-0.4,1.9-0.6,3-0.6c0.5,0,1.1,0.5,1.1,1.1
        c0,0.4,0,0.8-0.1,1.1c-0.2,0.5-0.4,1.1-0.6,1.6c-0.5,1.5-1.1,2.8-1.7,4.2c-0.8,2.3-1.8,4.6-2.7,6.9c-0.4,1-0.7,1.8-1,2.9
        c-0.2,0.5-0.3,1-0.4,1.6c-0.2,1-0.3,2.2-0.6,3.3c-0.3,1.7-0.2,3.3,0.9,4.7C188.3,33.2,186.9,34.1,185.7,32.1z M186.4,25.6
        c-0.1,0-0.1,0-0.2-0.1c0,0.1-0.1,0.2-0.1,0.2c0,0.1,0.2,0.1,0.3,0.1C186.3,25.7,186.3,25.6,186.4,25.6z M187.7,21.7
        c-0.5,0-0.6,0.3-0.6,0.8C187.5,22.2,187.5,22.2,187.7,21.7z M187.5,24.7c0-0.2-0.1-0.2-0.2-0.3c0,0.1,0,0.1,0,0.3
        c0,0.1,0.1,0.1,0.1,0.1L187.5,24.7z M187.7,21.1l-0.1,0c-0.2,0.2,0,0.4,0.1,0.5l0,0.1C187.8,21.6,188,21.2,187.7,21.1z M188.3,20.2
        c0.2-0.4,0.2-0.9,0.2-1.3c-0.3,0.1-0.6,0.1-0.7,0.4c0,0.3,0,0.4,0,0.6c0.1,0.3-0.5,0.3,0,0.7C188,20.4,188.3,20.4,188.3,20.2z
         M189,18.5c0-0.2,0.1-0.4,0.3-0.6c0-0.1,0-0.3,0.1-0.4c0-0.2,0.2-0.3,0.2-0.5c-0.2-0.2-0.6-0.1-0.7,0.1c-0.1,0.5-0.4,1.2-0.3,1.9
        C188.7,18.8,188.8,18.7,189,18.5z M189.9,16.1c-0.1,0.1-0.2,0.1-0.2,0.1c-0.1,0-0.2,0-0.3,0.1c0.1,0,0.4,0.2,0.4,0.2
        C189.8,16.3,189.8,16.2,189.9,16.1z M190.2,15.7c0.2-0.7,0.3-1.5,0.6-2.4c-0.5,0.7-0.9,1.5-1,2.4c0.2,0,0.2,0,0.2,0
        C190.2,15.8,190.2,15.8,190.2,15.7z M199.3,17.6c-0.4,0.1-0.6,0.2-0.8,0.5C198.9,18,199.2,18.1,199.3,17.6z M200.9,16.4
        c-0.3,0.3-0.5,0.5-0.8,0.8C200.7,17.2,200.7,16.9,200.9,16.4z"/>
      <path fill="#282828" d="M207.4,23.7c-0.1-0.1-0.5-0.3-0.9-0.5c-0.5-0.6-0.7-1.3-0.5-2.1c0.1-0.4,0.2-0.6,0.3-1c0-0.1,0-0.1,0-0.1
        c0-0.3,0.2-0.6,0.3-1l0.3-0.6c0.2-0.3,0.3-0.5,0.4-0.7c0.5-0.9,1.2-1.6,1.7-2.4c0.6-0.7,1.4-1.4,2.4-1.6c1.1,0.1,2.4,0.3,2.7,1.5
        c0.2,0.7-0.2,1.2-0.4,1.8c0.4-0.1,0.8-0.5,1.4-0.5c0.3,0.1,0.5,0.3,0.7,0.7c0,0,0.1,0.6,0,1c0,0.1,0,0.2-0.1,0.3
        c-0.1,0.7-0.1,1.5,0.3,2.2c0.1,0.2,0.2,0.4,0.5,0.5c0.1,0,0.2,0,0.4,0c0.2-0.1,0.4-0.1,0.6-0.2c0.8-0.4,1.6-1.1,2.3-1.7
        c0.7-0.5,1.4-1,2.1-1.5c1.2-0.9,1.1-0.7,2.3-1.6c0.3-0.3,0.8-0.6,1.3-1l0.2,0.1l-0.4,0.7c0.1,0.3,0.1,0.3,0.4,0
        c0-0.1,0-0.3,0.2-0.2c-0.5,0.8-1.3,1.3-1.9,1.8c-0.2,0.2-0.6,0.4-0.8,0.5c-0.1,0.2-0.3,0.4-0.6,0.6c0,0.1-0.2,0.1-0.4,0.1
        c0,0,0-0.1-0.1-0.1c0.1,0,0.2-0.1,0.3-0.2c0.2-0.1,0.3-0.3,0.2-0.5c0-0.1-0.1-0.1-0.2-0.1c-0.4,0.2-0.7,0.5-1,0.8
        c-0.6,0.3-1.1,0.6-1.6,1.1c-0.2,0.1-0.3,0.2-0.5,0.3l0,0.1c0.2-0.1,0.3-0.1,0.4-0.2c0.2-0.2,0.4-0.2,0.5-0.1c0-0.1-0.1-0.1-0.1-0.2
        c0.4-0.2,0.6-0.1,0.9-0.4c0.3-0.2,0.7-0.4,0.9-0.6c0,0.1,0,0.3-0.2,0.4c-0.4,0.2-0.8,0.6-1.2,0.8c-0.1,0.1-0.2,0.2-0.3,0.3
        c-0.1,0.1-0.2,0.2-0.4,0.2c0.2,0,0.3,0,0.4,0l0,0.1c-0.1,0.1-0.2,0.1-0.4,0.1l0,0.2c0.3-0.2,0.6-0.4,0.9-0.5l0,0.1
        c-0.2,0.2-0.6,0.5-0.8,0.7c-0.4,0.5-0.9,0.6-1.4,1c-0.3,0.2-0.5,0.1-0.7,0.3c-0.1,0.1-0.4,0.2-0.5,0.2c-0.1,0-0.3,0.1-0.5,0.1
        c-0.2,0-0.7,0.1-0.9,0.1c-0.1,0-0.4,0-0.5-0.1c-0.2,0-0.3-0.2-0.4-0.3c-0.3-0.4-0.7-0.6-1-1c-0.3-0.3-0.3-0.4-0.5-0.7
        c-0.1,0-0.1-0.1-0.2-0.3c-0.4,0.2-0.3,0.8-0.7,0.8c-0.1,0.1-0.1,0.3-0.2,0.3c-0.6,0.5-1.4,1.2-2.2,1.7c-0.8,0.5-1.7,0.5-2.5,0.3
        C207.7,23.7,207.6,23.7,207.4,23.7z M209.6,21.8c0.7-0.3,1.1-0.7,1.6-1.3c0.7-0.9,1.1-1.5,1.8-2.4c0.1,0,0.2-0.3,0.2-0.3l-0.1,0
        c-1.2,0-0.9-2.4-0.8-2.4c-1.6,0.4-3.2,2.9-3.8,3.9c-0.4,0.9-0.8,1.8-1,2.8C208.2,22.2,209.1,22.1,209.6,21.8z M223.1,17.9
        c0-0.2,0.1-0.3,0.2-0.3c0-0.1,0.3-0.2,0.4-0.2c0.1-0.1,0.3-0.1,0.4-0.1l0-0.3c0.1-0.1,0.1-0.2,0.2-0.2c0-0.1,0-0.1-0.1-0.1
        c-0.1,0.1-0.4,0.3-0.6,0.5c-0.4,0.2-1,0.7-1.1,0.9c0.1,0,0.3,0.1,0.4,0.2C223,18.1,223.1,17.9,223.1,17.9z"/>
      <path fill="#282828" d="M238,26.7c-0.5-0.2-0.9-0.8-1.2-1.4c-0.1-0.5-0.5-1.1-0.6-1.9c0-0.7-0.2-1.4-0.2-1.9l-0.1-1.1
        c-0.2,0-0.3,0-0.6,0.3c0,0.1-0.1,0.1-0.1,0.2c-0.6,0.7-1.3,1.3-1.9,2c-0.3,0.5-0.9,0.7-1.3,1l-0.3,0.3c-0.2,0-0.3,0-0.6-0.1
        l-0.5-0.7c0,0.2-0.1,0.3-0.1,0.4c-0.2,0.1-0.3,0-0.4-0.2c0-0.1-0.2-0.1-0.2-0.2c-0.1-0.1-0.3-0.2-0.3-0.3c-0.1-0.5-1-0.6-0.4-1.1
        c0.1-0.7,0.2-2.3,0.3-3.1c0-0.1,0-0.2-0.1-0.3c-0.6,0.8-1.1,1.5-1.4,1.9c-0.1,0.1-0.3,0.2-0.4,0.2c0.2,0.3-0.1,0.5-0.3,0.8
        l-0.3,0.7c-0.5,0.8-0.9,1.5-1.3,2.3c-0.1,0.3-0.4,0.4-0.6,0.6c-0.1,0.1-0.2,0.2-0.2,0.3l-0.4,0.3c-0.3-0.2-0.4-0.6-0.5-0.8
        l-0.2,0.4c-0.3-0.4-0.5-0.9-0.5-1.5c0.1-1.8,0.3-3.5,0.7-5.3c0.2-1,0.3-2.1,0.5-3.1c0-0.3,0.1-0.5,0-0.7c-0.1-0.1,0.1-0.3,0.1-0.4
        c0.4,0,0.6,0,0.9,0.1c0.4,0.1,0.6,0.2,0.8,0.6c0.1,0.5,0.1,1.1,0,1.6c-0.1,0.7-0.1,1.4-0.3,2.1c0,0.4-0.6,2.1-0.6,2.7
        c0.2-0.1,0.3-0.1,0.3-0.2c0.1-0.3,0.4-0.7,1-1.9c0.4-0.6,0.8-1.4,1.3-2c0.3-0.4,0.6-0.8,1-1.2c0.2-0.2,0.4-0.1,0.6,0
        c0.3,0.3,0.8,0.5,1.3,0.3c0.2-0.1,0.4,0,0.6,0c0.2,0.4,0.1,0.8,0.2,1.2c0.1,0.1,0.1,0.3,0.1,0.5c0,0.5,0.1,0.9-0.1,1.4
        c-0.1,0.4-0.2,1.6-0.2,2.2c0.6-0.6,1.4-1.5,2-2c0.3-0.3,0.6-0.6,1-0.8c0.2-0.2,0.4-0.3,0.8-0.7c0.2-0.1,0.4-0.1,0.5,0
        c0.5,0.1,0.8,0.4,1.3,0.6c0.1,0.1,0.2,0.2,0,0.2c0.1,0.1,0.2,0.3,0.3,0.2c0.5,0,0.5,0.5,0.5,0.9c0.1,0.2,0.1,0.4,0.1,0.7l0,0.3
        c-0.2,0.3,0,0.7,0,1c0.1,0.5,0.1,0.9,0.2,1.4c0.1,0.3,0.1,0.5,0.5,1.5c0.4,0.6,0.8,0.8,1.5,0.5c0.1-0.1,0.3,0.2,0.2,0.5
        c0,0.1-0.1,0.2-0.2,0.3c0,0.2,0,0.3-0.3,0.6C239.7,27,238.5,27.1,238,26.7z"/>
      <path fill="#282828" d="M251.3,14.6c0,0.1-0.2,0.1-0.2,0.1c-0.1,0-0.2,0-0.3,0.1c0.1,0,0.2,0.1,0.3,0.1c0,0.1-0.2,0.1-0.2,0.3
        c0,0.1-0.2,0-0.3,0c0.1,0.2,0,0.4-0.2,0.5c-0.1,0.2-0.2,0.3-0.5,0.2c-0.1-0.1,0-0.3-0.1-0.4l-0.1,0c0,0.1,0,0.1,0,0.1
        c0,0.2,0,0.3-0.2,0.3c-0.1,0-0.2,0.1-0.2,0.2c0,0.1,0,0.3,0,0.3c0.2,0.1,0.1,0.2,0,0.3l-0.5,0.6c0,0-0.1,0-0.1,0l0.2-0.3
        c0,0,0-0.1,0-0.1c-0.5,0.3-0.8,0.7-0.7,1c0-0.1,0.1-0.2,0.1-0.2c0.2,0,0.3-0.1,0.4-0.1c0,0.1,0.1,0.2,0,0.3c-0.2,0-0.3,0-0.4,0.1
        c0.1,0,0.1,0.1,0.1,0.2c0.2-0.1,0.3-0.2,0.5-0.3c0-0.3,0.2-0.5,0.3-0.7c0.5-0.4,0.9-1,1.3-1.5c0.1,0,0.1-0.1,0.2-0.1l0.1,0
        c-0.3,0.4-0.6,0.9-1,1.4c-0.2,0.3-0.5,0.6-0.8,0.8c-0.1,0.2-0.2,0.3-0.3,0.5c0,0.1-0.1,0.2-0.1,0.3c0.1-0.2,0.3-0.3,0.5-0.4
        c-0.1,0.3-0.4,0.5-0.7,0.8c0,0.1-0.1,0.2-0.1,0.3c0.1,0,0.1,0,0.1,0c0.2-0.1,0.3-0.3,0.5-0.4c0,0.1,0.1,0.2,0,0.2
        c-0.2,0.2-0.4,0.4-0.5,0.7c-0.1,0.1-0.1,0.3-0.2,0.4l-0.2,0.3c-0.4,0.3-0.7,0.7-1,1.2c-0.2,0.3-0.4,0.5-0.7,0.7
        c-0.2,0.2-0.5,0.3-0.8,0.4c-0.3,0.2-0.7,0.4-1,0.6c-0.4,0.1-0.7,0-1.1-0.1c-0.5-0.1-0.8-0.5-1.1-0.8c-0.1,0-0.1-0.2-0.2-0.3
        c-0.1-0.2-0.2-0.3-0.3-0.4c-0.1-0.2-0.2-0.3-0.3-0.5c-0.2-0.9,0-1.9,0.2-2.8c0.1-0.7,0.2-1.4,0.4-2.1c0.2-1,0.4-1.9,0.6-2.9l0-0.4
        c-0.1-0.2,0-0.4,0.2-0.4c0.2-0.1,0.3-0.2,0.5,0.1c0.2,0.3,0.5,0.4,0.7,0.6c0.2,0.1,0.5,0.3,0.6,0.5c0.1,0.2,0.1,0.5,0.1,0.8
        c0,0.3-0.1,0.6-0.2,0.8c-0.1,0.6-0.3,1.3-0.5,2c-0.1,0.2-0.2,0.4-0.2,0.6c0,0.1-0.1,0.2-0.1,0.3c0.2,0.5-0.1,1-0.1,1.5
        c0,0.5-0.1,1-0.1,1.5c0.6-0.2,1-0.4,1.4-0.8c0.8-0.8,1.7-1.6,2.4-2.4c0.8-0.8,1.5-1.7,2.2-2.4c0.6-0.6,1.2-1.2,1.9-1.9
        C251.5,13.8,251.6,14.1,251.3,14.6z M243.4,9.1c-0.3-0.3-0.5-0.8-0.4-1.3c0.2-0.8,0.8-1.2,1.4-1.6c0-0.1,0.3-0.1,0.3-0.1
        c0.6-0.1,0.9,0.1,1,0.4c0.2,0.5,0.4,1.1,0.3,1.7s-0.6,0.9-1.1,1.3c-0.3,0.1-0.6,0.1-0.9-0.1C243.8,9.3,243.5,9.2,243.4,9.1z
         M248.1,17.9c-0.5,0-0.6,0.7-1,0.9l0,0.1l0.9-0.4c0-0.1-0.1,0-0.1-0.1c-0.1,0-0.1,0.1-0.2,0.1l-0.1,0
        C247.8,18.3,248,18.1,248.1,17.9z M249.5,17.7c0.1,0,0.1,0,0.1,0c0,0.2-0.1,0.3-0.2,0.5c-0.1,0-0.2-0.1-0.2-0.2L249.5,17.7z"/>
      <path fill="#282828" d="M251.7,21.1c0,0-0.1-0.1-0.2,0l-0.2,0.3c-0.2-0.5-0.5-1-0.4-1.7l0.3-2.2c0.1-0.6,0.2-1.2,0.2-1.7
        c0.1-0.7,0.3-1.5,0.3-2.2c0.1-0.7,0.2-1.4,0.2-2.2c0-0.1,0-0.3,0.1-0.4c0.1-0.2,0.3-0.3,0.5-0.3c0.5-0.2,0.9,0,1.2,0.8
        c0.2,0.4,0.3,0.9,0.2,1.4c0,0.2-0.1,0.3-0.1,0.6c0.1-0.2,0.3-0.4,0.4-0.5c0.2-0.5,0.5-0.8,0.9-1.2c0.4-0.7,1-1.2,1.5-1.6
        c0.6-0.6,1.4-0.6,2-0.3c0.3,0.2,0.5,0.4,0.8,0.6c0.1,0,0.1,0.2,0.2,0.1c0.2,0.1,0.3,0.3,0.5,0.6l0,0.3c0,0-0.3,0.2-1-0.1
        c-0.3,0-0.6,0-0.9,0.3c-0.2,0.3-0.5,0.4-0.8,0.6c-0.2,0.1-0.2,0.3-0.3,0.4c-0.3,0.3-0.6,0.6-0.8,0.8c-0.3,0.4-0.7,0.9-1,1.4
        c-0.3,0.5-0.7,1.1-1.1,1.7c-0.4,0.8-0.7,1.3-0.8,2c-0.2,0.5-0.2,1-0.3,1.5c-0.1,0.4-0.1,0.7-0.1,1.1c-0.1,0.6-0.3,0.8-0.7,0.6
        C251.8,21.7,251.7,21.5,251.7,21.1z M255,13.1c0,0,0-0.1,0-0.1c0.5-0.6,1-1.3,1.5-1.9c-0.2-0.4-0.3,0.3-0.5,0.2
        c-0.1,0.2-0.2,0.4-0.3,0.5c-0.5,0.2-0.7,0.8-1.1,1.2c-0.2,0.2-0.5,0.6-0.4,1.1C254.4,13.6,254.7,13.3,255,13.1z M255.9,13
        c0.3-0.2,0.4-0.5,0.7-0.8c-0.3,0.2-0.6,0.3-0.7,0.5c-0.2,0.2-0.4,0.5-0.6,0.9C255.6,13.6,255.7,13.1,255.9,13z"/>
      <path fill="#282828" d="M270.7,18.4c0.7-0.2,1.2-0.9,1.9-1.3c0,0.1,0,0.2-0.1,0.3c-0.2,0.2-0.4,0.4-0.6,0.6l-0.9,0.8
        c-0.4,0.2-0.7,0.5-1.1,0.7c-0.5,0.3-0.9,0.7-1.4,0.9c-0.3,0.2-0.7,0.2-1,0.3c-0.2,0-0.3,0.1-0.5,0.2c-0.2,0.1-0.5,0.2-0.8,0.3
        c-0.4,0.1-0.8,0.3-1.2,0.2c-0.5,0-1.1-0.1-1.6-0.2c-0.5-0.1-0.7-0.2-1.2-0.6c-0.1-0.1-0.2-0.1-0.3-0.2c-0.4-0.2-0.6-0.5-1-1
        c-0.1-0.1-0.1-0.1-0.2-0.6c-0.3-0.6-0.3-1-0.3-1.3c0-1,0.2-2.1,0.7-3.1c0.2-0.3,0.4-0.7,0.6-1c0.4-0.6,0.9-1.2,1.3-1.7
        c0.4-0.5,1-0.8,1.7-0.9c0.2,0,0.3-0.1,0.5-0.1c0.5-0.2,1,0.1,1.4,0.3c0.5,0.2,0.9,0.5,1.3,0.8c0.4,0.2,0.7,1.1,0.6,1.5
        c-0.1,0.3-0.2,0.5-0.4,0.7c-0.4,0.6-0.9,1-1.3,1.5c-0.1,0.2-0.5,0.2-0.5,0.4c0,0.4-0.4,0.4-0.6,0.6l-0.4,0.2c0.1,0,0.2,0,0.2,0
        c-0.2,0.1-0.3,0.2-0.5,0.3c0,0.1,0,0.2-0.1,0.3c-0.4,0.2-0.8,0.4-1.1,0.6c-0.2,0.1-0.2,0.2-0.3,0.3c-0.4,0.2-0.6,0.3-0.9,0.5
        c0.2,0.6,0.4,0.7,0.8,0.8c0.7-0.1,1.4-0.1,2-0.2c0.5-0.1,0.9-0.3,1.4-0.5c0.4-0.2,0.8-0.4,1.2-0.6c0.3-0.1,0.5-0.1,0.8-0.3
        c0.6-0.4,1.2-0.8,1.7-1.1l0.2-0.1l0.1,0c0,0.1-0.1,0.2-0.2,0.3c0.1,0,0.1,0.1,0.1,0.2c0.2,0,0.3-0.1,0.4-0.1c0.1,0,0.1,0,0,0.1
        c-0.2,0.2-0.4,0.4-0.6,0.6c0.2,0.1,0.4,0.1,0.7,0.2c-0.2,0.1-0.2,0.1-0.3,0.2C270.7,18.3,270.7,18.4,270.7,18.4z M262.4,16.7
        c0.4-0.3,0.7-0.5,0.9-0.6c0.1,0,0.2,0,0.3,0c0.2-0.1,0.4-0.3,0.6-0.5c-0.2,0-0.2,0.1-0.4,0.1c0.3-0.3,0.4-0.6,0.8-0.6
        c-0.1,0.2-0.2,0.3-0.3,0.4c0,0,0,0.1,0.1,0c0.5-0.3,0.8-0.7,1.3-1.1l-0.1-0.1c-0.1,0.1-0.2,0.2-0.4,0.3c-0.2,0.1-0.3,0.2-0.5,0.3
        c0-0.1,0-0.1,0-0.2c0.5-0.4,0.9-0.8,1.3-1.3c0.3-0.3,0.5-0.6,0.7-1c0.1-0.3-0.1-0.7-0.4-0.6c-0.5,0.2-0.9,0.3-1.3,0.6
        c-0.4,0.4-0.9,0.7-1.2,1.2c-0.4,0.6-0.7,1.2-1,1.9C262.6,15.9,262.5,16.3,262.4,16.7z M266.9,13.8c0.1-0.3,0.4-0.7,0.5-1l-0.2-0.4
        C266.9,12.8,266.7,13.2,266.9,13.8z M270.3,17.4c-0.1-0.2-0.5,0-0.9,0.5C269.8,17.7,270,17.6,270.3,17.4z M270.7,16.7
        c0.5-0.3,0.9-0.6,1.4-0.9C272.1,16,271.7,16.2,270.7,16.7C270.7,16.7,270.7,16.7,270.7,16.7z M273.7,15.1L273.7,15.1
        C273.7,15.1,273.8,15.1,273.7,15.1c0.1,0,0.1,0.1,0.1,0.1c-0.1,0.1-0.3,0.3-0.5,0.5l0.1,0.2c-0.2,0.1-0.3,0.2-0.1,0.4
        c-0.2,0.2-0.5,0.2-0.5,0.6c0,0,0,0.1,0,0.1c-0.4,0-0.6,0.4-0.8,0.6c-0.2,0.1-0.4,0.3-0.6,0.4c-0.1,0.1-0.2,0-0.3-0.1
        c-0.1-0.1-0.1-0.2-0.1-0.3s0-0.1,0-0.1c0.3,0.2,0.7-0.3,1.1-0.5l0.4-0.2c0.2-0.1,0.3-0.2,0.1-0.5c-0.3,0.3-0.8,0.6-1.2,1
        c-0.1,0-0.2-0.1-0.4-0.1c0.4-0.2,1.2-0.8,1.4-1.3c0.1-0.1,0.7-0.4,0.8-0.6l0.4,0.1c0.1-0.2,0.2-0.3,0.3-0.4c-0.1,0-0.1,0-0.2-0.1
        l0-0.1c0.2,0,0.3,0,0.6-0.1c-0.1-0.1-0.1-0.1-0.1-0.2l0.2-0.2l-0.1,0l-0.2,0.2l-0.1,0l0.9-0.6l0.1,0.4c0,0,0.1,0,0.1,0
        c-0.2,0.1-0.2,0.3-0.4,0.4C274.3,14.7,274,14.9,273.7,15.1z"/>
      <path fill="#282828" d="M283,20.7c0,0,0.3,0.1,0.4,0.1l0,0.1c-0.2,0.3,0,0.3,0.5,0.1c-0.1,0.1-0.1,0.3-0.3,0.4
        c-0.5,0.1-1.1,0.2-1.6,0.3c0.3,0.2,0.5,0.2,1.1,0.1l0.1,0l0,0.1c-0.4,0.2-0.7,0.4-1.1,0.3l-0.9,0l-0.5-0.1
        c-0.5-0.1-1.3-0.3-1.6-0.5l-0.6-0.2l-1.2-0.4c-0.3-0.1-0.5-0.1-0.9-0.2c-0.5-0.1-0.8-0.3-1.5,0.1l-0.5,0.7c0,0.1-0.3,0.1-0.4,0.1
        l-0.4,0l-0.2,0c-0.4-0.2-0.6-0.5-0.6-1c0.3-1.3,2-2,2.7-2.7c1.9-1.8,3.1-2.9,4.3-4l1.3-1.2l-0.1-0.1l-4.6,0.4c-0.4,0-1.4,0.4-1.6,0
        c0-0.1,0.3-0.9,0.7-1.1l-0.3,0l0.2-0.2l2.4,0.2l0.1-0.1l-2.2-0.5c0-0.1,0.1-0.3,0.2-0.2c1.9,0.3,2.5,0.4,5.1,0.3
        c0.7,0,1.4-0.2,1.8-0.2c0.3,0,0.7-0.2,0.9,0.1c0.2,0.2,0.1,0.6-0.1,1c0.2,0.4-0.2,0.6-0.5,0.8c-0.8,1.3-1.8,1.9-2.8,2.9l-2.8,2.8
        c-0.2,0.2-0.4,0.4-0.7,0.7l0.7,0.1l0.6,0.2c1.3,0.4,1.6,0.6,2.2,0.8c0.4,0.1,0.8,0.2,1.4,0.2c0.4,0,0.5,0,0.9-0.1
        c0.3-0.1,0.5-0.2,0.9-0.4l0.4-0.2c0.1,0,0.2,0,0.2,0c-0.4,0.2-0.4,0.3-0.7,0.5l0,0.1c0.2,0,0.4,0,0.7-0.2c0.2-0.1,0.4-0.3,0.6-0.4
        l0.3,0l0,0.1c-0.5,0.2-0.7,0.8-1.3,0.8C283.3,20.5,283.1,20.6,283,20.7z M279.4,12c-0.1-0.5-0.3-0.1-1.4,0l-0.5,0l-1.3,0.2
        c0,0.1,0.1,0.2,0.3,0.1c0.4,0.1,0.6,0,0.9-0.1c0.4,0,0.4-0.2,0.9-0.1C278.6,11.9,279,12,279.4,12z M277,17.7c0.4,0,0.5-0.6,0.7-0.7
        c0.3-0.2,0.4-0.5,0.7-0.9c-0.4,0.2-0.6,0.4-0.8,0.6C277.5,17,277.3,17.3,277,17.7z M278.4,16c0.3-0.4,0.6-0.8,0.9-0.9l0.1-0.1
        c0.6-0.5,2.1-1.7,2.6-2.3c-0.1-0.2-1.1,0.6-1.1,0.6c-0.8,0.6-1.3,1.2-1.8,1.6C278.9,15,278.4,15.5,278.4,16z M282.8,21
        c-0.6,0-1,0.1-1.6,0l-0.1,0.1c0.1,0,0.4,0.1,0.5,0.1C282,21.2,282.4,21.2,282.8,21z"/>
    </g>
</svg>
