<svg xmlns="http://www.w3.org/2000/svg" width="240.1px" height="40px" viewBox="0 0 240.1 40">
  <g>
    <polygon fill="#61AF86" points="0,40 28.2,40 28.2,5.5 0,5.5 10.7,22.2   "/>
    <polygon fill="#478E67" points="23,34.5 28.2,40 28.2,34.5   "/>
    <polygon fill="#61AF86" points="240.1,40 211.9,40 211.9,5.5 240.1,5.5 229.4,22.2  "/>
    <rect x="23" fill="#78C8A1" width="194.1" height="34.5"/>
    <g>
      <path fill="#FFFFFF" d="M40.3,17.2c0-4.3,3.5-7.8,7.8-7.8c2.9,0,5.4,1.6,6.7,3.9l-1.4,0.8c-1-1.9-3-3.2-5.3-3.2
        c-3.5,0-6.1,2.8-6.1,6.2c0,3.4,2.6,6.2,6.1,6.2c2.6,0,4.5-1.4,5.5-3.4l1.4,0.7c-1.3,2.5-3.8,4.2-6.9,4.2
        C43.8,25,40.3,21.5,40.3,17.2z"/>
      <path fill="#FFFFFF" d="M57.1,17.2c0-4.3,3.5-7.8,7.8-7.8s7.8,3.5,7.8,7.8c0,4.3-3.5,7.8-7.8,7.8S57.1,21.5,57.1,17.2z M70.9,17.2
        c0-3.4-2.6-6.2-6.1-6.2c-3.5,0-6.1,2.8-6.1,6.2c0,3.4,2.6,6.2,6.1,6.2C68.3,23.5,70.9,20.7,70.9,17.2z"/>
      <path fill="#FFFFFF" d="M75.6,9.7h1.6l5.7,7.9l5.9-7.9h1.6v15.1h-1.6V12.3l-5.9,7.9l-5.7-7.7v12.3h-1.6V9.7z"/>
      <path fill="#FFFFFF" d="M94.1,9.7h1.6v15.1h-1.6V9.7z"/>
      <path fill="#FFFFFF" d="M99.4,9.7h1.8l8.9,12.5V9.7h1.6v15.1H110l-9-12.6v12.6h-1.6V9.7z"/>
      <path fill="#FFFFFF" d="M114.7,17.2c0-4.3,3.3-7.8,7.9-7.8c2.9,0,5.4,1.6,6.7,3.9l-1.4,0.8c-1-1.9-2.9-3.2-5.3-3.2
        c-3.8,0-6.2,2.8-6.2,6.2c0,3.4,2.6,6.2,6.2,6.2c3.6,0,5.6-2.3,5.9-5.2h-6.1v-1.5h7.7v0.5c0,4.2-2.7,7.8-7.6,7.8
        C118.2,25,114.7,21.5,114.7,17.2z"/>
      <path fill="#FFFFFF" d="M137.9,22.2l1.4-1c1,1.6,2.3,2.3,4,2.3c1.9,0,3.2-1.2,3.2-2.9c0-1.9-1.8-2.4-3.7-3.1
        c-2.1-0.7-4.2-1.6-4.2-4.2c0-2.2,2-3.9,4.6-3.9c2.1,0,3.6,0.8,4.7,2.3l-1.3,1c-0.8-1.2-1.9-1.8-3.4-1.8c-1.7,0-3,1.1-3,2.5
        c0,1.7,1.7,2.3,3.6,2.9c2.1,0.7,4.3,1.6,4.3,4.3c0,2.2-1.9,4.3-4.8,4.3C140.7,25,139.1,24,137.9,22.2z"/>
      <path fill="#FFFFFF" d="M150.6,17.2c0-4.3,3.5-7.8,7.8-7.8s7.8,3.5,7.8,7.8c0,4.3-3.5,7.8-7.8,7.8S150.6,21.5,150.6,17.2z
         M164.4,17.2c0-3.4-2.6-6.2-6.1-6.2s-6.1,2.8-6.1,6.2c0,3.4,2.6,6.2,6.1,6.2S164.4,20.7,164.4,17.2z"/>
      <path fill="#FFFFFF" d="M168.9,17.2c0-4.3,3.5-7.8,7.8-7.8s7.8,3.5,7.8,7.8c0,4.3-3.5,7.8-7.8,7.8S168.9,21.5,168.9,17.2z
         M182.7,17.2c0-3.4-2.6-6.2-6.1-6.2s-6.1,2.8-6.1,6.2c0,3.4,2.6,6.2,6.1,6.2S182.7,20.7,182.7,17.2z"/>
      <path fill="#FFFFFF" d="M187.4,9.7h1.8l8.9,12.5V9.7h1.6v15.1H198l-9-12.6v12.6h-1.6V9.7z"/>
    </g>
    <polygon fill="#478E67" points="217.1,34.5 211.9,40 211.9,34.5  "/>
  </g>
</svg>
