<svg xmlns="http://www.w3.org/2000/svg" viewBox="0 0 21.9 22.1" fill="#fff" height="12" width="12">
  <path d="M21.8,10.5c0.1,0.3,0,0.7-0.4,1.3c-0.3,0.4-0.6,0.7-0.9,0.8c-0.3,0.1-0.8,0.2-1.6,0.2c-0.7,0-2.3-0.1-4.9-0.2
    c0.4,0.4,0.8,0.8,1.3,1.2c0.4,0.4,0.8,0.8,1.1,1.1c0.3,0.3,0.5,0.5,0.6,0.6c0.6,0.6,1,1,1.3,1.3c0.3,0.3,0.5,0.7,0.7,1
    c0.2,0.3,0.2,0.6,0,0.7c-0.2,0.2-0.6,0.3-1.1,0.4c-0.5,0.1-0.9,0.1-1.2,0c-0.3-0.1-0.7-0.4-1.2-1c-0.6-0.6-1.6-1.6-3-3.2
    C11.7,19.5,11.3,22,11,22c-0.3,0.1-0.6,0-0.7-0.4S10,20.7,10,20c0-2.1,0-4.1,0-6c-4.3,3.3-6.6,4.8-6.9,4.7c-0.6-0.3-0.4-1,0.8-2.1
    l4.5-4.6C2.9,11.7,0.1,11.3,0,11c-0.1-0.3,0-0.6,0.4-0.7s0.9-0.2,1.6-0.2c0.2,0,2.3,0,6.4-0.1C4.8,5.8,3.1,3.5,3.2,3.2
    c0.3-0.6,1-0.3,2.1,0.8c0.4,0.3,1.9,1.8,4.7,4.5v-4c0-2.5,0.2-4,0.6-4.4c0.3-0.3,0.9-0.2,1.8,0.4c0.6,0.4,0.9,0.8,1.1,1.1
    c0.1,0.3,0.2,1,0.2,2c0,0.7-0.1,1.8-0.3,3.2c0.2-0.2,0.4-0.4,0.6-0.6c0.2-0.2,0.4-0.4,0.5-0.6l0.3-0.3C16.5,3.9,17.6,3,18.2,3
    c0.4,0,0.8,0.4,0.9,1.2c0,0.1,0,0.2,0,0.4c0.1,0.7,0.1,1.2,0,1.5c-0.1,0.3-0.6,0.9-1.3,1.6c-0.4,0.4-1.3,1.2-2.6,2.3
    c1,0,2.1,0,3.1,0C20.5,9.9,21.6,10.1,21.8,10.5z"/>
</svg>
