<?xml version="1.0" encoding="UTF-8"?>
<svg width="202px" height="246px" viewBox="0 0 202 246" version="1.1" xmlns="http://www.w3.org/2000/svg" xmlns:xlink="http://www.w3.org/1999/xlink">
    <!-- Generator: Sketch 43.2 (39069) - http://www.bohemiancoding.com/sketch -->
    <title>Fill 1</title>
    <desc>Created with Sketch.</desc>
    <defs></defs>
    <g id="To-show" stroke="none" stroke-width="1" fill="none" fill-rule="evenodd" opacity="0.104393116">
        <g id="Website-d3-r2-v1" transform="translate(-619.000000, -1846.000000)" fill="#000000">
            <path d="M817.773443,1981.89952 C815.569906,1978.67757 810.081655,1977.06917 801.293246,1977.06917 C794.152342,1977.06917 781.28121,1980.90775 762.669554,1988.57978 C774.619112,1991.39063 785.585317,1992.93223 795.578464,1993.20972 C805.566462,1993.48207 812.074106,1992.38753 815.0911,1989.92097 C818.525117,1987.11012 819.420948,1984.43802 817.773443,1981.89952 M742.899495,1905.42077 C752.30057,1907.95413 759.992358,1908.78145 765.964563,1907.88733 C772.353793,1906.85959 776.539485,1904.80413 778.531937,1901.71579 C779.906573,1899.59352 779.597666,1897.91832 777.605215,1896.68504 C776.163648,1895.79091 774.073376,1895.48259 771.329251,1895.75494 C764.116269,1896.51032 754.637967,1899.73227 742.899495,1905.42077 M740.737145,1883.62769 C749.041599,1886.64409 755.085883,1886.74686 758.859699,1883.93601 C760.991158,1882.35844 762.036294,1880.69865 762.005403,1878.9515 C761.964216,1877.19922 761.073533,1876.0533 759.323059,1875.50346 C757.572585,1874.9639 755.456571,1875.13348 752.990462,1876.02247 C751.687904,1876.56716 747.600032,1879.10566 740.737145,1883.62769 M739.393399,1929.16654 C759.580482,1934.58269 772.693591,1937.01328 778.737875,1936.46344 C783.062575,1935.98041 786.069271,1935.1428 787.747667,1933.9455 C789.436359,1932.74819 790.038728,1931.1552 789.554774,1929.16654 C789.075968,1927.03913 787.011438,1925.13782 783.371482,1923.45748 C779.731526,1921.78228 774.855941,1920.94467 768.749876,1920.94467 C762.154708,1920.94467 752.372648,1923.68358 739.393399,1929.16654 M737.231049,2016.1333 C748.835661,2018.66666 759.292169,2020.03355 768.590274,2020.23909 C777.898677,2020.44464 784.056226,2019.3501 787.083517,2016.95035 C790.172588,2014.41699 791.16624,2011.81168 790.069619,2009.13958 C788.83399,2005.85083 785.055026,2004.10369 778.737875,2003.89814 C777.018291,2003.83134 775.195739,2003.89814 773.275366,2004.10369 C764.075081,2004.92587 752.058593,2008.93403 737.231049,2016.1333 M760.306414,1951.47348 C749.726343,1954.14559 740.114182,1957.33156 731.464782,1961.0314 C737.987871,1962.53703 744.217499,1963.82169 750.158813,1964.8854 C756.100128,1965.9491 762.139263,1966.85864 768.286516,1967.60889 C774.42862,1968.36427 779.95291,1968.72398 784.864533,1968.69315 C789.781306,1968.65718 794.203827,1968.24608 798.15269,1967.45473 C802.096405,1966.66851 805.154586,1965.28107 807.316936,1963.29241 C809.479286,1961.30889 810.56561,1958.77039 810.56561,1955.68719 C810.56561,1953.63172 808.645237,1951.74583 804.794194,1950.03465 C800.9483,1948.31834 795.902816,1947.46532 789.657743,1947.46532 C780.658248,1947.46532 770.876187,1948.80138 760.306414,1951.47348 M728.890555,2040.90166 L733.421194,2042.65395 C739.120531,2044.84816 744.74779,2046.13283 750.308119,2046.50795 C755.873596,2046.88307 760.198296,2046.45656 763.292516,2045.22328 C766.381588,2043.99 767.648107,2042.27369 767.102371,2040.07948 C766.206541,2036.58519 763.410931,2034.4475 758.705245,2033.65615 C753.999559,2032.86993 747.358055,2033.7435 738.775584,2036.28201 C735.619583,2037.3046 732.319425,2038.85134 728.890555,2040.90166 M723.227257,2060.9476 C731.948736,2064.71938 737.920941,2065.98863 741.149021,2064.75535 C743.141472,2063.92802 744.032155,2062.62794 743.826217,2060.84482 C743.620278,2058.9281 742.106633,2057.69482 739.29043,2057.14498 C737.709855,2056.87264 735.933639,2056.87264 733.941187,2057.14498 C730.502021,2057.62288 726.928995,2058.89213 723.227257,2060.9476 M716.735058,1876.43356 C707.946649,1872.66178 701.974444,1871.4285 698.818443,1872.72858 C696.892921,1873.48397 696.002239,1874.71724 696.141247,1876.43356 C696.275107,1878.28348 697.618853,1879.55273 700.151892,1880.23617 C701.732467,1880.64726 703.694027,1880.6781 706.026277,1880.33894 C709.805241,1879.7223 713.378267,1878.41708 716.735058,1876.43356 M699.230319,2053.75347 C696.625202,2052.86448 694.33414,2052.21187 692.382877,2051.80077 C690.426465,2051.38968 688.434013,2051.30232 686.405523,2051.54384 C684.382181,2051.78536 682.616262,2052.44824 681.102617,2053.54792 C678.976306,2055.12549 677.946615,2056.78528 678.013545,2058.53242 C678.080475,2060.27957 678.976306,2061.43063 680.690741,2061.97533 C682.405175,2062.52517 684.500596,2062.35559 686.971853,2061.46146 C688.619358,2060.70608 692.707229,2058.13675 699.230319,2053.75347 M711.07176,1896.57712 L706.541122,1894.73234 C700.841785,1892.53813 695.214526,1891.24833 689.649048,1890.87321 C684.088719,1890.49808 679.779464,1890.92459 676.726432,1892.15787 C673.668251,1893.39115 672.422325,1895.10747 672.962913,1897.30168 C673.786665,1900.86277 676.571978,1903.02101 681.308555,1903.77639 C686.045131,1904.52664 692.67119,1903.63765 701.186731,1901.10429 C703.863926,1900.3489 707.164085,1898.83814 711.07176,1896.57712 M697.067969,2032.06316 C687.728675,2029.39106 680.042035,2028.56887 673.997752,2029.5966 C667.613671,2030.62434 663.42283,2032.6798 661.430379,2035.763 C660.12782,2037.89041 660.472767,2039.53478 662.465218,2040.69612 C663.901636,2041.59025 665.966166,2041.89857 668.638213,2041.62622 C675.712187,2040.87083 685.190488,2037.67972 697.067969,2032.06316 M700.563768,2008.21462 C680.170747,2002.79847 667.062786,2000.40385 661.229589,2001.02049 C656.89974,2001.43158 653.898192,2002.23835 652.214648,2003.43566 C650.531104,2004.63297 649.928735,2006.22595 650.407541,2008.21462 C650.891496,2010.34203 652.950877,2012.24333 656.590833,2013.91854 C660.230789,2015.59888 665.142413,2016.44162 671.320557,2016.44162 C677.838498,2016.44162 687.594816,2013.69757 700.563768,2008.21462 M702.834236,1921.35063 C691.301702,1918.75046 680.8246,1917.36302 671.423526,1917.18831 C662.012154,1917.01873 655.839159,1918.09785 652.883947,1920.43081 C649.866954,1922.96417 648.868154,1925.56947 649.897845,1928.24158 C651.133473,1931.53032 654.907289,1933.3083 661.229589,1933.58579 L666.681801,1933.38024 C676.021094,1932.41931 688.073622,1928.41115 702.834236,1921.35063 M695.523433,1973.57488 C651.50931,1964.93678 629.504823,1967.64486 629.504823,1981.69397 C629.504823,1983.82138 631.409751,1985.72268 635.219606,1987.39789 C639.029461,1989.07823 644.095538,1989.92097 650.407541,1989.92097 C660.987612,1989.92097 676.021094,1984.46885 695.523433,1973.57488 M677.292762,1948.90415 C665.348351,1946.0933 654.392444,1944.53628 644.435336,1944.22283 C634.478229,1943.91451 627.996327,1944.99362 624.974185,1947.46532 C621.540167,1950.27103 620.644336,1952.94828 622.291841,1955.48164 C624.356371,1958.77039 629.844621,1960.41476 638.772038,1960.41476 C645.840864,1960.41476 658.686253,1956.57618 677.292762,1948.90415 M819.266495,1980.10098 C822.458535,1983.63125 821.243501,1987.79356 815.611093,1992.59308 C812.310935,1995.12644 807.507429,1996.52929 801.190277,1996.80678 C794.878274,1997.07913 788.494193,1996.60124 782.038033,1995.36796 C775.581873,1994.12954 767.993054,1992.31559 759.271575,1989.92097 C731.948736,2001.57032 716.498229,2008.07587 712.925203,2009.4479 C713.821034,2009.72539 715.468539,2010.20328 717.872866,2010.88672 C720.277194,2011.57017 722.125488,2012.12 723.433195,2012.5311 C726.728205,2013.49203 729.199462,2014.17547 730.846967,2014.58656 C749.726343,2005.88166 764.116269,2001.63713 774.001298,2001.84267 C782.377831,2001.98142 788.128652,2003.77995 791.253763,2007.23827 C794.373726,2010.69659 793.158691,2014.82808 787.598362,2019.62759 C784.437212,2022.09415 779.875683,2023.49701 773.903478,2023.8413 C767.926124,2024.18559 761.835504,2023.80533 755.621322,2022.71079 C749.407139,2021.61626 742.173563,2019.93591 733.941187,2017.66976 L713.028172,2028.56887 C710.284047,2030.0745 707.879719,2031.30778 705.820338,2032.26871 C710.150187,2033.57393 715.983384,2035.6962 723.330226,2038.64065 C728.205811,2036.17923 732.319425,2034.46292 735.691661,2033.50199 C741.31892,2031.99636 746.482818,2031.12279 751.183356,2030.88127 C755.889041,2030.63975 759.909983,2031.27695 763.235883,2032.78257 C766.572081,2034.2882 768.40493,2036.72393 768.749876,2040.07948 C769.161753,2043.44017 767.596623,2045.81937 764.059636,2047.22736 C760.527797,2048.63022 755.909635,2049.02589 750.210298,2048.40925 C744.510961,2047.79261 738.471826,2046.38462 732.077447,2044.19555 C730.090145,2043.50697 728.272741,2042.8595 726.625236,2042.24286 C724.01497,2043.88723 718.212664,2047.96219 709.218317,2054.47288 C709.424255,2054.61162 709.645639,2054.72981 709.887616,2054.83259 C710.129593,2054.93536 710.40761,2055.0741 710.711369,2055.24368 C711.025424,2055.41325 711.277698,2055.53658 711.483636,2055.60338 L719.309285,2059.30322 C724.874762,2055.39784 730.713107,2053.85624 736.819172,2054.67843 C740.114182,2055.15632 742.606033,2056.20461 744.289577,2057.81301 C745.967973,2059.42141 746.498264,2061.12231 745.885598,2062.90029 C745.262635,2064.68341 743.584239,2066.01946 740.840114,2066.90845 C736.716203,2068.28047 729.956285,2066.87762 720.544913,2062.69474 C715.262601,2066.46652 711.967591,2070.54148 710.659884,2074.9299 C709.563264,2078.62974 709.563264,2081.88766 710.659884,2084.69337 C711.756504,2087.50422 713.645987,2089.04582 716.323182,2089.31816 C717.970687,2089.45691 719.427699,2088.91221 720.704515,2087.67379 C721.976183,2086.44051 722.593997,2085.14043 722.557958,2083.76841 C722.521919,2082.40152 721.955589,2081.33782 720.858969,2080.58243 C719.345324,2079.89899 718.815033,2079.14361 719.2578,2078.32142 C719.705715,2077.49924 720.483132,2077.32966 721.579752,2077.80756 C721.991628,2077.9463 722.367466,2078.21865 722.707263,2078.62974 C723.330226,2079.31832 723.757548,2080.34092 723.994377,2081.71294 C724.236354,2083.08496 724.220909,2084.48782 723.942892,2085.92665 C723.675173,2087.36547 722.866865,2088.63472 721.528268,2089.72926 C720.18967,2090.82893 718.382563,2091.37877 716.122392,2091.37877 C713.028172,2091.44557 710.747408,2090.10952 709.27495,2087.36547 C707.797344,2084.62656 707.241311,2081.40462 707.622297,2077.70478 C708.003282,2074.00494 709.115348,2070.7162 710.97394,2067.83855 C712.554515,2065.37199 714.541817,2063.10584 716.946145,2061.05037 C712.07056,2058.9281 709.326435,2057.72565 708.703472,2057.4533 C708.224666,2057.24776 707.431804,2056.93944 706.335184,2056.52834 C697.407767,2062.97223 691.023685,2066.26098 687.182939,2066.39458 C683.398827,2066.53332 680.536287,2065.78308 678.579875,2064.13357 C676.623463,2062.49433 675.820304,2060.57247 676.160102,2058.37826 C676.505048,2056.18919 677.740677,2054.33413 679.866988,2052.82851 C685.633255,2048.98992 693.083066,2048.6148 702.216421,2051.698 C709.90821,2046.62614 716.086353,2042.75672 720.756,2040.07948 C712.379467,2036.99628 706.407262,2034.87401 702.834236,2033.70753 C685.602364,2042.14008 672.962913,2046.11227 664.931327,2045.63438 C661.981263,2045.42883 659.957921,2043.91806 658.856152,2041.10721 C657.553594,2037.95721 658.202299,2035.00762 660.817713,2032.26871 C663.901636,2028.90802 669.050089,2027.26879 676.263071,2027.33559 C684.227728,2027.40239 692.187236,2028.50207 700.151892,2030.62434 C704.759757,2028.29652 709.218317,2025.86079 713.548166,2023.32743 C717.388912,2021.13322 722.125488,2018.70263 727.757896,2016.03053 L720.447093,2013.86715 C719.62334,2013.6616 718.475235,2013.33787 716.997629,2012.8908 C715.520023,2012.44888 714.181426,2012.0532 712.981836,2011.70891 C711.777098,2011.36462 710.659884,2011.06144 709.630193,2010.78395 C691.6415,2017.56699 678.044436,2020.96365 668.849299,2020.96365 C662.254131,2020.96365 657.074788,2019.6944 653.295823,2017.15589 C649.516859,2014.62253 647.632525,2011.87849 647.632525,2008.93403 C647.632525,2006.19512 649.002014,2003.89814 651.751288,2002.04822 C654.495413,2000.1983 658.372198,1999.27334 663.391939,1999.27334 C671.078579,1999.27334 684.500596,2001.8067 703.657988,2006.87857 C706.062316,2005.85083 712.616296,2002.88582 723.330226,1997.98868 C734.039008,1993.08639 742.51851,1989.40197 748.768731,1986.93541 C748.629723,1986.93541 748.531902,1986.90458 748.459824,1986.83263 C734.311876,1982.6549 719.932247,1978.91909 705.305493,1975.63034 C681.210734,1989.19642 663.113923,1995.9846 651.030504,1995.9846 C644.368406,1995.9846 638.653624,1994.43786 633.881008,1991.35466 C629.108392,1988.27146 626.724659,1985.29103 626.724659,1982.41338 C626.724659,1965.14233 650.788527,1961.58123 698.921412,1971.72496 L714.680826,1962.67577 L718.696619,1960.41476 C708.806441,1957.8814 698.787552,1955.07055 688.619358,1951.98735 C688.34649,1951.8486 688.104512,1951.7818 687.898574,1951.7818 C668.74633,1959.04273 652.127125,1962.67577 638.051255,1962.67577 C629.746801,1962.67577 623.975385,1960.89779 620.747305,1957.33156 C617.524374,1953.76533 618.760002,1949.62356 624.454191,1944.89085 C627.754349,1942.29069 632.537262,1940.85186 638.823523,1940.57437 C645.109784,1940.30202 651.473271,1940.78506 657.929431,1942.0132 C664.385591,1943.25162 671.969262,1945.06557 680.690741,1947.46532 C683.228928,1946.36565 690.096964,1943.42119 701.2897,1938.62168 C712.482436,1933.82731 721.064907,1930.26107 727.037112,1927.93326 C724.771793,1927.31662 721.301736,1926.32486 716.632089,1924.94769 C714.984584,1924.40299 712.513327,1923.71955 709.218317,1922.89737 C689.927065,1931.59713 675.542288,1935.81083 666.063986,1935.53848 C657.687454,1935.40488 651.905741,1933.60634 648.708552,1930.14288 C645.52166,1926.67942 646.736695,1922.58905 652.369102,1917.86147 C654.773429,1915.93961 657.893392,1914.63953 661.739286,1913.95095 C665.580032,1913.26751 669.97681,1913.14418 674.924473,1913.59124 C679.866988,1914.03831 684.778612,1914.75772 689.649048,1915.74948 C694.529782,1916.74638 700.018032,1918.06188 706.124097,1919.70626 L726.928995,1908.91506 C728.581648,1908.02607 730.985975,1906.79279 734.141977,1905.21522 C730.157075,1903.91 724.329026,1901.75176 716.632089,1898.73536 C711.900661,1901.20706 707.81279,1902.91824 704.378772,1903.87917 C700.260009,1904.9737 696.326592,1905.72909 692.588815,1906.14018 C688.840741,1906.55127 685.411872,1906.56669 682.286761,1906.19157 C679.16165,1905.81131 676.602869,1904.87093 674.610418,1903.3653 C672.623115,1901.85453 671.490455,1899.83504 671.212439,1897.30168 C670.800563,1893.94099 672.365692,1891.55665 675.897531,1890.15379 C679.439667,1888.75094 684.05268,1888.35526 689.757166,1888.9719 C695.451355,1889.58854 701.531677,1890.99653 707.987837,1893.18561 C708.327635,1893.32435 709.151387,1893.63267 710.453946,1894.1157 C711.756504,1894.5936 712.755304,1894.93789 713.440048,1895.1383 C716.050314,1893.49393 721.85262,1889.41896 730.846967,1882.90828 C730.574099,1882.84147 730.177668,1882.66676 729.667972,1882.39441 C729.147978,1882.12206 728.751547,1881.94735 728.478679,1881.88054 C725.523467,1880.37491 722.91835,1879.1365 720.653031,1878.1807 C715.154483,1882.01929 709.326435,1883.52492 703.137995,1882.70273 C701.150692,1882.43038 699.420812,1881.91138 697.943206,1881.16113 C696.4656,1880.40575 695.415315,1879.54759 694.80265,1878.5918 C694.179687,1877.63087 693.875928,1876.63911 693.875928,1875.60623 C693.875928,1874.58364 694.33414,1873.60215 695.26601,1872.68233 C696.192732,1871.75224 697.479845,1871.01741 699.12735,1870.46757 C703.31819,1869.16749 710.078109,1870.57034 719.417402,1874.68641 C724.632785,1870.98657 727.968982,1866.93731 729.4054,1862.55403 C730.502021,1858.85419 730.486576,1855.58086 729.353916,1852.73918 C728.216108,1849.89236 726.316329,1848.33534 723.639133,1848.06299 C722.609443,1847.99105 721.646682,1848.18118 720.756,1848.6231 C719.860169,1849.07017 719.159979,1849.68681 718.645134,1850.47302 C718.130289,1851.26438 717.769897,1852.07115 717.558811,1852.89334 C717.358021,1853.71552 717.388912,1854.50174 717.666928,1855.25712 C717.939796,1856.00737 718.454641,1856.5572 719.206316,1856.90149 C720.714812,1857.51813 721.234806,1858.23755 720.756,1859.05973 C720.277194,1859.88192 719.479184,1860.0515 718.382563,1859.5736 L717.255052,1858.75141 C716.426151,1857.79048 715.9319,1856.33624 715.762001,1854.38355 C715.586953,1852.43086 716.153283,1850.56038 717.46099,1848.7824 C718.768697,1846.99929 720.895008,1846.07433 723.845071,1846.00239 C726.928995,1845.93558 729.235501,1847.27164 730.743998,1850.01054 C732.257643,1852.75459 732.823973,1855.99195 732.442988,1859.72776 C732.067151,1863.46357 730.913897,1866.76773 728.993524,1869.64538 C727.412949,1872.04514 725.425646,1874.27532 723.021319,1876.33079 C726.043461,1877.76961 728.787586,1878.96692 731.258843,1879.92785 L733.627132,1880.85281 C742.559697,1874.40892 748.974669,1871.12018 752.882345,1870.98657 C756.594379,1870.84783 759.431177,1871.60321 761.38244,1873.24245 C763.344001,1874.89196 764.167753,1876.8241 763.853698,1879.05428 C763.544791,1881.27932 762.298865,1883.11382 760.095327,1884.55265 C754.534998,1888.39123 747.085187,1888.76635 737.751042,1885.68316 C729.853316,1890.96056 723.675173,1894.83512 719.206316,1897.30168 C726.831174,1900.17933 732.803379,1902.3016 737.12808,1903.67362 C754.432029,1895.17427 767.102371,1891.23291 775.133958,1891.84955 C778.017091,1892.0551 780.045582,1893.5299 781.209132,1896.26881 C782.449909,1899.35714 781.826946,1902.26563 779.355689,1905.00967 C776.199687,1908.43716 770.979156,1910.11237 763.704393,1910.04557 C755.806666,1910.04557 747.878049,1908.987 739.913392,1906.85959 C735.243746,1909.18741 730.743998,1911.58716 726.419298,1914.05372 C722.434395,1916.31474 717.702967,1918.7813 712.20442,1921.4534 C714.268949,1921.93644 716.704168,1922.61988 719.520371,1923.51401 L730.435091,1926.69998 C748.289925,1919.845 761.845801,1916.41751 771.113016,1916.41751 C777.713333,1916.41751 782.892676,1917.68676 786.67164,1920.22526 C790.440308,1922.75862 792.334938,1925.5335 792.334938,1928.5499 C792.334938,1931.28881 790.960301,1933.58579 788.211028,1935.43571 C785.466902,1937.28563 781.626157,1938.21059 776.678494,1938.21059 C769.264722,1938.21059 755.806666,1935.64125 736.304327,1930.50259 C735.480575,1930.84174 729.37451,1933.61662 717.970687,1938.82723 C706.577161,1944.03783 697.649744,1947.90725 691.193584,1950.44575 C691.265662,1950.51255 691.363483,1950.54852 691.50764,1950.54852 C701.253661,1953.42617 711.385816,1956.16508 721.888659,1958.77039 C745.370752,1947.18783 767.715037,1941.39656 788.931811,1941.39656 C795.593909,1941.39656 801.31384,1942.93816 806.081307,1946.0265 C810.853923,1949.1097 813.237657,1952.12609 813.237657,1955.07055 C813.237657,1960.41476 810.905407,1964.44347 806.240909,1967.14641 C801.571263,1969.85449 795.048173,1971.20595 786.67164,1971.20595 C778.295108,1971.20595 769.295612,1970.5071 759.683451,1969.0991 C750.07129,1967.69625 739.429438,1965.55342 727.757896,1962.67577 C724.184869,1964.39208 721.512822,1965.83091 719.721161,1966.99739 L708.497534,1973.8832 C720.514023,1976.62211 734.79583,1980.49666 751.348106,1985.49658 C751.548896,1985.49658 751.790873,1985.56338 752.058593,1985.70213 C770.943117,1978.44119 787.562323,1974.80816 801.91106,1974.80816 C810.287593,1974.80816 816.074454,1976.57072 819.266495,1980.10098" id="Fill-1"></path>
        </g>
    </g>
</svg>