<svg width="981" height="156" viewBox="0 0 981 156" xmlns="http://www.w3.org/2000/svg"><title>The Complexionist</title><g fill="#282828" fill-rule="evenodd"><path d="M4.568.512v3.144h13.604v40.09h3.454V3.656H35.23V.512zM74.182 23.669h-25.17v20.076h-3.46V.51h3.46v19.902h25.17V.51h3.46v43.234h-3.46zM89.577.512h26.666v3.256H93.037v16.707h23.206v3.195H93.037v16.82h23.206v3.256H89.577z"/><g><path d="M.882 111.698c0-24.122 19.717-43.7 44.012-43.7 15.844 0 29.803 8.509 37.435 20.973l-3.641 2.096C71.768 79.77 59.564 72.08 44.894 72.08c-22.065 0-39.428 17.823-39.428 39.62 0 21.79 17.363 39.613 39.428 39.613 15.376 0 28.16-8.155 34.968-20.272l3.872 1.984c-7.626 13.395-21.946 22.368-38.84 22.368-24.295 0-44.012-19.572-44.012-43.694M182.431 111.698c0-21.796-17.487-39.619-39.552-39.619-22.059 0-39.427 17.823-39.427 39.62 0 21.79 17.368 39.613 39.427 39.613 22.065 0 39.552-17.823 39.552-39.614m-83.557 0c0-24.122 19.71-43.7 44.005-43.7s44.011 19.578 44.011 43.7c0 24.122-19.716 43.694-44.01 43.694-24.295 0-44.006-19.572-44.006-43.694M206.255 69.166h4.341l36.961 50.918 38.378-50.918h4.222v85.061h-4.46V76.39l-38.14 50.918-36.96-50.565v77.484h-4.342zM316.447 73.243v48.94h20.422c16.895 0 27.224-10.487 27.224-24.582 0-13.984-10.33-24.358-27.224-24.358h-20.422zm-4.34-4.08H337.1c19.248 0 31.452 12.123 31.452 28.438 0 16.31-12.204 28.662-31.452 28.662h-20.654v27.961h-4.34V69.163zM387.798 69.166h4.347v80.869h43.063v4.192h-47.41zM453.754 69.166h52.692v4.08H458.1v36.351h48.346v4.08H458.1v36.358h48.346v4.192h-52.692zM555.495 113.444l-28.393 40.78h-5.052l30.984-44.042-28.404-41.015h4.933l26.169 37.4 25.818-37.4h5.165l-28.517 40.78 30.984 44.276h-5.052zM607.604 154.225h4.46V69.164h-4.46zM715.92 111.698c0-21.796-17.487-39.619-39.546-39.619-22.065 0-39.434 17.823-39.434 39.62 0 21.79 17.369 39.613 39.434 39.613 22.059 0 39.546-17.823 39.546-39.614m-83.557 0c0-24.122 19.716-43.7 44.01-43.7 24.29 0 44.006 19.578 44.006 43.7 0 24.122-19.716 43.694-44.005 43.694-24.295 0-44.011-19.572-44.011-43.694M739.744 69.166h4.691l59.856 78.302V69.166h4.335v85.061h-4.572l-59.969-78.302v78.302h-4.34zM831.747 154.225h4.459V69.164h-4.46zM854.28 143.159l3.64-2.797c5.165 6.524 13.61 11.069 23.346 11.069 12.21 0 22.652-7.454 22.652-19.924 0-12.706-11.148-16.433-22.527-20.043-12.091-3.85-24.176-7.925-24.176-22.491 0-12.582 10.798-20.972 24.644-20.972 10.911 0 18.656 4.197 23.939 10.598l-3.522 2.567c-4.347-5.829-11.148-9.203-20.535-9.203-11.03 0-20.186 6.636-20.186 17.01 0 12.117 11.03 15.38 22.415 18.994 12.085 3.845 24.408 8.626 24.408 23.54 0 14.1-11.736 23.886-27.112 23.886-11.498 0-21.235-5.01-26.986-12.234M948.16 73.243h-27.693v-4.08h59.85v4.08h-27.81v80.981h-4.347z"/></g></g></svg>
