<?xml version="1.0" encoding="UTF-8"?>
<svg width="981px" height="156px" viewBox="0 0 981 156" version="1.1" xmlns="http://www.w3.org/2000/svg" xmlns:xlink="http://www.w3.org/1999/xlink">
    <!-- Generator: Sketch 43.2 (39069) - http://www.bohemiancoding.com/sketch -->
    <title>Page 1</title>
    <desc>Created with Sketch.</desc>
    <defs></defs>
    <g id="To-show" stroke="none" stroke-width="1" fill="none" fill-rule="evenodd">
        <g id="Website-d3-r2-v1" transform="translate(-240.000000, -258.000000)" fill="#131313">
            <g id="Page-1" transform="translate(240.000000, 258.000000)">
                <g id="THE" transform="translate(4.568102, 0.000000)">
                    <polygon id="Fill-1" points="0 0.511717796 0 3.65591123 13.6035513 3.65591123 13.6035513 43.7457786 17.0580631 43.7457786 17.0580631 3.65591123 30.6616144 3.65591123 30.6616144 0.511717796"></polygon>
                    <polygon id="Fill-2" points="69.6134925 23.6688986 44.4441003 23.6688986 44.4441003 43.7446577 40.9839439 43.7446577 40.9839439 0.510596872 44.4441003 0.510596872 44.4441003 20.4126127 69.6134925 20.4126127 69.6134925 0.510596872 73.0736489 0.510596872 73.0736489 43.7446577 69.6134925 43.7446577"></polygon>
                    <polygon id="Fill-3" points="85.0092129 0.511717796 111.674431 0.511717796 111.674431 3.76800369 88.4693693 3.76800369 88.4693693 20.4753845 111.674431 20.4753845 111.674431 23.6700195 88.4693693 23.6700195 88.4693693 40.4894927 111.674431 40.4894927 111.674431 43.7457786 85.0092129 43.7457786"></polygon>
                </g>
                <g id="COMPLEXIONIST" transform="translate(0.000000, 67.182482)">
                    <path d="M0.882449187,44.5156225 C0.882449187,20.3933257 20.5991316,0.81637799 44.8936066,0.81637799 C60.7380748,0.81637799 74.6972376,9.32419551 82.3287735,21.7888768 L78.687989,23.8850057 C71.7676762,12.586086 59.5639924,4.89654344 44.8936066,4.89654344 C22.8287593,4.89654344 5.46588638,22.7192442 5.46588638,44.5156225 C5.46588638,66.3063963 22.8287593,84.129097 44.8936066,84.129097 C60.2695708,84.129097 73.0546512,75.9743707 79.8620714,63.8571761 L83.7342856,65.8412126 C76.1083944,79.2362612 61.7879755,88.2092624 44.8936066,88.2092624 C20.5991316,88.2092624 0.882449187,68.6379194 0.882449187,44.5156225" id="Fill-4"></path>
                    <path d="M182.431155,44.5156225 C182.431155,22.7192442 164.9441,4.89654344 142.879253,4.89654344 C120.82005,4.89654344 103.451532,22.7192442 103.451532,44.5156225 C103.451532,66.3063963 120.82005,84.129097 142.879253,84.129097 C164.9441,84.129097 182.431155,66.3063963 182.431155,44.5156225 M98.8737399,44.5156225 C98.8737399,20.3933257 118.584778,0.81637799 142.879253,0.81637799 C167.173728,0.81637799 186.89041,20.3933257 186.89041,44.5156225 C186.89041,68.6379194 167.173728,88.2092624 142.879253,88.2092624 C118.584778,88.2092624 98.8737399,68.6379194 98.8737399,44.5156225" id="Fill-7"></path>
                    <polygon id="Fill-10" points="206.255432 1.98326047 210.596151 1.98326047 247.557169 52.9012593 285.934988 1.98326047 290.157169 1.98326047 290.157169 87.0446218 285.697914 87.0446218 285.697914 9.20761936 247.557169 60.1256182 210.596151 9.5607106 210.596151 87.0446218 206.255432 87.0446218"></polygon>
                    <path d="M316.44702,6.06062361 L316.44702,55.0001905 L336.869281,55.0001905 C353.76365,55.0001905 364.093317,44.5139411 364.093317,30.4183146 C364.093317,16.4347805 353.76365,6.06062361 336.869281,6.06062361 L316.44702,6.06062361 Z M312.106302,1.98045816 L337.100711,1.98045816 C356.348889,1.98045816 368.552573,14.1032574 368.552573,30.4183146 C368.552573,46.7277672 356.348889,59.080356 337.100711,59.080356 L316.44702,59.080356 L316.44702,87.0418195 L312.106302,87.0418195 L312.106302,1.98045816 Z" id="Fill-12"></path>
                    <polygon id="Fill-14" points="387.798493 1.98326047 392.144856 1.98326047 392.144856 82.8523639 435.207716 82.8523639 435.207716 87.0446218 387.798493 87.0446218"></polygon>
                    <polygon id="Fill-16" points="453.753703 1.98326047 506.446297 1.98326047 506.446297 6.06342592 458.100066 6.06342592 458.100066 42.4150099 506.446297 42.4150099 506.446297 46.4951753 458.100066 46.4951753 458.100066 82.8523639 506.446297 82.8523639 506.446297 87.0446218 453.753703 87.0446218"></polygon>
                    <polygon id="Fill-18" points="555.494719 46.2614626 527.102245 87.0406986 522.050304 87.0406986 553.033662 42.999572 524.629898 1.98494186 529.563303 1.98494186 555.731794 39.3845903 581.550318 1.98494186 586.715152 1.98494186 558.198496 42.7641779 589.181854 87.0406986 584.129913 87.0406986"></polygon>
                    <polygon id="Fill-20" points="607.604223 87.04238 612.063479 87.04238 612.063479 1.98101862 607.604223 1.98101862"></polygon>
                    <path d="M715.920101,44.5156225 C715.920101,22.7192442 698.433047,4.89654344 676.373844,4.89654344 C654.308997,4.89654344 636.940479,22.7192442 636.940479,44.5156225 C636.940479,66.3063963 654.308997,84.129097 676.373844,84.129097 C698.433047,84.129097 715.920101,66.3063963 715.920101,44.5156225 M632.362687,44.5156225 C632.362687,20.3933257 652.079369,0.81637799 676.373844,0.81637799 C700.662674,0.81637799 720.379357,20.3933257 720.379357,44.5156225 C720.379357,68.6379194 700.662674,88.2092624 676.373844,88.2092624 C652.079369,88.2092624 632.362687,68.6379194 632.362687,44.5156225" id="Fill-22"></path>
                    <polygon id="Fill-23" points="739.744379 1.98326047 744.435064 1.98326047 804.29069 80.2854466 804.29069 1.98326047 808.625763 1.98326047 808.625763 87.0446218 804.053615 87.0446218 744.085097 8.74243566 744.085097 87.0446218 739.744379 87.0446218"></polygon>
                    <polygon id="Fill-24" points="831.74672 87.04238 836.205976 87.04238 836.205976 1.98101862 831.74672 1.98101862"></polygon>
                    <path d="M854.279507,75.9760521 L857.920292,73.1793453 C863.085126,79.7031263 871.529488,84.2484755 881.266469,84.2484755 C893.475798,84.2484755 903.918358,76.794327 903.918358,64.3240411 C903.918358,51.6183611 892.770219,47.8912869 881.390651,44.2819098 C869.29986,40.4315338 857.214713,36.356973 857.214713,21.7905582 C857.214713,9.20817982 868.012885,0.818059377 881.859155,0.818059377 C892.770219,0.818059377 900.514648,5.01592191 905.798019,11.4164012 L902.275771,13.9833185 C897.929409,8.15451072 891.127633,4.78052775 881.740618,4.78052775 C870.711017,4.78052775 861.555432,11.4164012 861.555432,21.7905582 C861.555432,33.9077528 872.585033,37.1696433 883.970246,40.7846251 C896.055392,44.6293964 908.377613,49.4101397 908.377613,64.3240411 C908.377613,78.4252723 896.642434,88.2109438 881.266469,88.2109438 C869.768364,88.2109438 860.031382,83.200411 854.279507,75.9760521" id="Fill-25"></path>
                    <polygon id="Fill-26" points="948.159816 6.06062361 920.467276 6.06062361 920.467276 1.98045816 980.317257 1.98045816 980.317257 6.06062361 952.506179 6.06062361 952.506179 87.0418195 948.159816 87.0418195"></polygon>
                </g>
            </g>
        </g>
    </g>
</svg>