<svg xmlns="http://www.w3.org/2000/svg" width="673.5px" height="52.6px" viewBox="0 0 673.5 52.6" fill="#282828">
  <path d="M8.1,15.2H0v-1.9h18.3v1.9h-8.1v24.1H8.1V15.2z"/>
  <path d="M41.6,27.2h-15v12.1h-2.1v-26h2.1v12h15v-12h2.1v26h-2.1V27.2z"/>
  <path d="M50.8,13.3h15.9v2H52.9v10.1h13.9v1.9H52.9v10.1h13.9v2H50.8V13.3z"/>
  <path d="M87.9,26.3C87.9,11.8,99.7,0,114.2,0c9.5,0,17.8,5.1,22.4,12.6l-2.2,1.3C130.3,7.1,123,2.5,114.2,2.5
    c-13.2,0-23.6,10.7-23.6,23.9s10.4,23.9,23.6,23.9c9.2,0,16.8-4.9,20.9-12.2l2.3,1.2c-4.6,8.1-13.1,13.5-23.2,13.5
    C99.7,52.6,87.9,40.8,87.9,26.3z"/>
  <path d="M146.5,26.3c0-14.5,11.8-26.3,26.3-26.3c14.5,0,26.3,11.8,26.3,26.3c0,14.5-11.8,26.3-26.3,26.3
    C158.3,52.6,146.5,40.8,146.5,26.3z M196.5,26.3c0-13.1-10.5-23.9-23.6-23.9c-13.2,0-23.6,10.7-23.6,23.9s10.4,23.9,23.6,23.9
    C186,50.2,196.5,39.4,196.5,26.3z"/>
  <path d="M210.7,0.7h2.6l22.1,30.7l22.9-30.7h2.5v51.2h-2.7V5.1l-22.8,30.7L213.3,5.3v46.7h-2.6V0.7z"/>
  <path d="M274,0.7h14.9c11.5,0,18.8,7.3,18.8,17.1s-7.3,17.3-18.8,17.3h-12.3v16.8H274V0.7z M276.6,3.2v29.5h12.2
    c10.1,0,16.3-6.3,16.3-14.8c0-8.4-6.2-14.7-16.3-14.7H276.6z"/>
  <path d="M319.2,0.7h2.6v48.7h25.7v2.5h-28.3V0.7z"/>
  <path d="M358.7,0.7h31.5v2.5h-28.9V25h28.9v2.5h-28.9v21.9h28.9v2.5h-31.5V0.7z"/>
  <path d="M419.5,27.4l-17,24.6h-3L418,25.4L401,0.7h2.9l15.6,22.5l15.4-22.5h3.1l-17,24.6l18.5,26.7h-3L419.5,27.4z"
    />
  <path d="M450.7,0.7h2.7v51.2h-2.7V0.7z"/>
  <path d="M465.5,26.3c0-14.5,11.8-26.3,26.3-26.3c14.5,0,26.3,11.8,26.3,26.3c0,14.5-11.8,26.3-26.3,26.3
    C477.2,52.6,465.5,40.8,465.5,26.3z M515.4,26.3c0-13.1-10.5-23.9-23.6-23.9c-13.2,0-23.6,10.7-23.6,23.9s10.4,23.9,23.6,23.9
    C505,50.2,515.4,39.4,515.4,26.3z"/>
  <path d="M529.7,0.7h2.8l35.8,47.1V0.7h2.6v51.2h-2.7L532.2,4.8v47.1h-2.6V0.7z"/>
  <path d="M584.7,0.7h2.7v51.2h-2.7V0.7z"/>
  <path d="M598.1,45.3l2.2-1.7c3.1,3.9,8.1,6.7,14,6.7c7.3,0,13.5-4.5,13.5-12c0-7.6-6.7-9.9-13.5-12.1
    c-7.2-2.3-14.5-4.8-14.5-13.5c0-7.6,6.5-12.6,14.7-12.6c6.5,0,11.2,2.5,14.3,6.4l-2.1,1.5c-2.6-3.5-6.7-5.5-12.3-5.5
    c-6.6,0-12.1,4-12.1,10.2c0,7.3,6.6,9.3,13.4,11.4c7.2,2.3,14.6,5.2,14.6,14.2c0,8.5-7,14.4-16.2,14.4
    C607.4,52.6,601.6,49.6,598.1,45.3z"/>
  <path d="M654.3,3.2h-16.6V0.7h35.8v2.5h-16.6v48.8h-2.6V3.2z"/>
</svg>
